<?xml version="1.0" encoding="utf-8"?>
<!-- Generator: Adobe Illustrator 16.0.4, SVG Export Plug-In . SVG Version: 6.00 Build 0)  -->
<!DOCTYPE svg PUBLIC "-//W3C//DTD SVG 1.1//EN" "http://www.w3.org/Graphics/SVG/1.1/DTD/svg11.dtd">
<svg version="1.1" id="Layer_1" xmlns="http://www.w3.org/2000/svg" xmlns:xlink="http://www.w3.org/1999/xlink" x="0px" y="0px"
	 width="400px" height="300px" viewBox="0 0 400 300" enable-background="new 0 0 400 300" xml:space="preserve">
<g id="Layer_1_1_" display="none">
	<g id="bPdD7d_1_" display="inline">
		
			<image overflow="visible" enable-background="new    " width="274" height="290" id="bPdD7d" xlink:href="FDA6305713F7ECE9.jpg"  transform="matrix(0.9734 0 0 0.9666 65.0283 6.5859)">
		</image>
	</g>
	<path display="inline" fill="#FE0A00" d="M101.355,63.401c0-19.507,17.021-37.701,36.333-38.667"/>
</g>
<path d="M210.333,197.233c3.789,0,8.149-0.17,10.641,2.791c0.119,0.139,0.229,0.299,0.33,0.469l-0.281,0.24
	c-5.391,0-10.689,0.27-16.189,0c-5.261-0.25-9.729-1.74-14.541-2.75c-5.9-5.699-11.6-11.391-17.02-17.561
	c-4.57-5.209-8.6-11.289-12.5-16.689c-4.35-6.039-9.3-11.74-12.69-18.31c-1.42-2.76-3.13-5.42-5.12-7.88
	c-1.26-1.57-3.79-4.21-4.78-6.67l0.34-0.14c4.06,0.92,7.79,3.12,11.5,4.26c2.15,0.66,4.57,0.48,6.74,1.04
	c1.96,0.51,3.64,1.26,5.51,1.76c4.15,1.09,8.74,1.43,13,2.49c4.82,1.21,10.08,0.53,15,1.27c5.33,0.8,10.75,0.68,16.25,0.68
	c2.73,0,5.49,0.11,8.221,0c3.521-0.15,6.359-1.91,9.729-2.25c5.43-0.55,10.18-3.01,14.989-5.56c4.74-2.51,9.359-4.19,13.061-8.2
	c4.48-4.84,9.529-9.91,13.74-15.28c3.8-4.85,7.72-10.29,10.01-15.71h0.029c-0.311,2.6-1.409,5.22-1.779,7.74
	c-0.529,3.57-0.98,6.79-1.59,10.27c-0.07,0.39-0.141,0.78-0.21,1.18c-1.4,7.57-2.24,15.26-3.392,22.87
	c-1.129,7.47-1.539,16.549-0.75,24.439c0.32,3.311,0.131,7.029,0.95,10.25h-0.01c-0.44,2.33-2.59,4.701-4,6.75
	c-1.49,2.16-3.08,4.18-4.79,6.211c-0.2,0.059-0.391,0.01-0.57,0.029c-1.42-0.682-2.898-1.221-4.449-1.432
	c-3.58-0.51-8.061-0.969-11.689-0.559c-2.4,0.27-7.3,2.898-8.5,5l-0.09,0.209c-1.391-0.59-2.852-0.959-4.41-0.959
	c-2.07,0-3.88,0.33-5.75,0.5c-2.939,0.27-4.141,1.24-6.939,2.309c-3.25,1.24-6.569,2.562-7.74,6.25
	C210.473,196.653,210.393,196.935,210.333,197.233z"/>
<path fill="#FDF12B" d="M196.683,283.944c-151.18,6.619-191.56-238.57-2.87-258.041c189.43,6.1,172.01,260.97,2.88,258.179
	L196.683,283.944z M288.732,86.444c1.8-11.05-17.94-11.1-16.17-1.75c2.729,0.06,4.42-2.81,7.18-2.42c-0.229,0.43-0.7,0.87-1.028,1.4
	c-1.74,2.73-5.99,5.13-8.392,7.63c-3.39,3.52-7.271,6.08-10.979,9.24c-3.561,3.03-6.971,6.3-10.529,9c-3.939,2.99-8.271,5-12.8,6.94
	c-8.48,3.63-16.271,5.65-25.24,7.26c-9.42,1.7-18.99,1.5-28.75,1.99c-9.26,0.47-18.29-0.25-27.5-0.25c-8.12,0-16.12-1.44-24-1.25
	h-0.501c0.39-2.08,3.64-2.38,5.46-2.54c0.43-2.15-2.85-2.58-4.4-2.15c-1.8,0.49-3.26,2.54-4.37,3.88
	c-2.09,2.52-5.05,8.14-0.74,10.28c-0.79-0.39,0.03-6.79,1.69-6.86c1.07-0.04,5.39,8.46,6.37,9.89c1.59,2.34,3.22,5.37,5.45,7.03
	c-0.15,2.52,2.03,4.871,3.53,6.661c1.8,2.141,3.22,4.398,4.95,6.609c2.96,3.789,5.28,7.59,8.11,11.449
	c2.51,3.42,4.83,7.541,7.88,10.391c3.24,3.029,5.07,6.311,7.87,9.801c6.52,8.129,13.87,16.25,22.7,22.061
	c3.779,2.49,7.41,5.039,11.26,7.51c4.311,2.76,6.961,5.16,12.04,6.561c5.79,1.59,11.729,1.1,17.7,0.18
	c2.689-0.41,5.38-1.029,7.91-2.07c2.199-0.91,4.67-3.438,6.89-3.67c2.45-0.25,5.57,1.191,8.24,1.061
	c2.899-0.148,5.83-0.729,8.53-1.779c0.14,0.041,0.199,0.15,0.188,0.301c0.9-1.74,2.79-3.01,3.82-4.98
	c0.351-0.67,0.64-1.369,0.89-2.09c0.67-1.619,1.12-3.41,1.41-5.1c0.33-1.361,0.551-2.92,0.57-4.49c0.189-1.33,0.35-2.52-0.2-3.93
	c-0.53-1.361-1.5-2.602-2.261-3.811c2.221-2.852,2.951-6.949,2.761-10.682c-0.2-3.959-0.45-8.49-1.56-12.199
	c-2.48-8.279-1.36-17.689-2.201-26.51c-0.771-8.05,3.529-15.38,3.511-23.36c-0.011-2.8-0.16-5.53,0.271-8.19
	c0.189-1.19,0.489-2.35,0.971-3.51c0.97-2.34,1.279-3.04,1.5-5.76c0.13-1.64,0.33-3.65,1.02-5.05c-0.6-2.15,0.801-7.23,1.682-9.94
	c0.729-2.25,1.318-4.82,2.31-6.74h0.5C284.913,82.934,286.192,86.694,288.732,86.444z"/>
<path fill="#C90E32" d="M233.503,214.733c-2.57-1.43-4.892-3.379-7.041-5.939c-1.149-1.381-2.33-2.6-3.26-4.24
	c-0.66-1.17-1.15-2.898-1.9-4.061c-0.1-0.17-0.209-0.33-0.329-0.469c-2.49-2.961-6.851-2.791-10.642-2.791
	c0.062-0.299,0.142-0.58,0.262-0.939c1.17-3.689,4.488-5.01,7.738-6.25c2.801-1.068,4-2.041,6.94-2.311
	c1.87-0.17,3.681-0.5,5.75-0.5c1.56,0,3.021,0.371,4.41,0.961l0.09-0.211c1.2-2.1,6.101-4.73,8.5-5
	c3.63-0.41,8.11,0.051,11.69,0.561c1.549,0.209,3.028,0.75,4.449,1.432c1.641,0.777,3.199,1.76,4.659,2.699
	c1.229,0.789,2.29,1.479,3.229,2.27c1.181,0.98,2.171,2.1,3.029,3.73c0.131,0.25,0.28,0.5,0.432,0.75
	c0.76,1.209,1.729,2.449,2.26,3.811c0.55,1.41,0.391,2.6,0.2,3.93c-0.07,0.5-0.15,1.021-0.2,1.57c-0.07,0.898-0.189,1.889-0.37,2.92
	c-0.021,0.09-0.05,0.18-0.069,0.27c-0.41,1.609-0.791,3.262-1.341,4.83c-0.6,1.471-1.39,2.801-2.409,3.789
	c-6.759,6.561-16.279,2.549-24.559,2.189C240.632,217.544,236.853,216.583,233.503,214.733z"/>
<path fill="#C90E32" d="M274.272,183.743c0.189,3.73-0.54,7.83-2.76,10.682c-0.15-0.25-0.301-0.5-0.432-0.75
	c-0.858-1.631-1.85-2.75-3.029-3.73c1.211-1.289,1.65-2.67,1.979-4.469c0.71-3.922,1.33-8.422-0.079-12.172
	c-0.16-0.43-0.301-0.869-0.421-1.318c-0.819-3.221-0.63-6.941-0.95-10.25c-0.789-7.891-0.379-16.97,0.75-24.44
	c1.15-7.61,1.99-15.3,3.392-22.87c0.069-0.4,0.14-0.79,0.21-1.18h3.16c-0.43,2.66-0.885,5.947-0.875,8.747
	c0.02,7.98-1.739,14.546-1.56,22.63c0.173,7.744-1.032,17.25-0.202,26.49C273.802,174.966,274.072,179.784,274.272,183.743z"/>
<path fill="#C90E32" d="M137.763,128.984c0,0.6,0.15,1.24,0.42,1.89c0.99,2.46,3.52,5.1,4.78,6.67c1.99,2.46,3.7,5.12,5.12,7.88
	c3.39,6.569,8.34,12.271,12.69,18.31c3.9,5.4,7.93,11.48,12.5,16.689c5.42,6.17,11.12,11.859,17.02,17.561
	c0.92,0.9,1.85,1.801,2.791,2.701c2.351,2.25,4.319,4.828,7.181,6.309c3.6,1.871,7.01,4.801,10.771,6.25
	c6.84,2.631,15.369,2.041,22.471,1.49c3.35,1.85,7.129,2.811,11.52,3c8.28,0.359,17.8,4.371,24.561-2.189
	c1.021-0.99,1.811-2.318,2.41-3.791c-0.25,0.723-0.541,1.422-0.891,2.092c-1.03,1.971-2.92,3.238-3.82,4.979
	c0.01-0.148-0.05-0.26-0.188-0.299c-2.7,1.049-5.63,1.629-8.53,1.779c-2.67,0.131-5.79-1.311-8.24-1.061
	c-2.22,0.229-4.688,2.76-6.89,3.67c-2.53,1.039-5.22,1.66-7.91,2.07c-5.97,0.92-11.91,1.41-17.7-0.182
	c-5.08-1.398-7.729-3.801-12.039-6.561c-3.851-2.469-7.479-5.02-11.261-7.51c-8.83-5.811-16.18-13.93-22.7-22.061
	c-2.8-3.488-4.63-6.77-7.87-9.801c-3.05-2.85-5.37-6.969-7.88-10.389c-2.83-3.861-5.15-7.66-8.11-11.451
	c-1.73-2.209-3.15-4.469-4.95-6.609c-1.5-1.789-7.39-11.35-8.98-13.689c-0.98-1.43-5.3-9.93-6.37-9.89
	c-1.66,0.07-2.48,6.47-1.69,6.86c-4.31-2.14-1.35-7.76,0.74-10.28c1.11-1.34,2.57-3.39,4.37-3.88c1.55-0.43,4.83,0,4.4,2.15
	c-1.82,0.16-5.07,0.46-5.46,2.54h0.5c7.88-0.19,15.88,1.25,24,1.25c9.21,0,18.24,0.72,27.5,0.25c9.76-0.49,19.33-0.29,28.75-1.99
	c8.97-1.61,16.761-3.63,25.24-7.26c4.528-1.94,8.858-3.95,12.8-6.94c3.561-2.7,6.971-5.97,10.53-9c3.71-3.16,7.59-5.72,10.979-9.24
	c2.399-2.5,6.649-4.9,8.391-7.63c0.328-0.53,0.8-0.97,1.029-1.4c-2.761-0.39-4.451,2.48-7.181,2.42
	c-1.771-9.35,17.97-9.3,16.17,1.75c-2.54,0.25-3.741-2.262-6.46-3.96h-0.5c-0.99,1.92-1.58,4.49-2.311,6.74
	c-0.881,2.71-2.279,7.79-1.68,9.94c-0.011,1.695-0.435,2.907-0.563,4.547c-0.222,2.72-0.22,1.739-0.696,5.708
	c-0.148,1.246-0.238,2.634-0.43,3.824h-3.16c0.609-3.48,1.061-6.7,1.59-10.27c0.37-2.521,1.471-5.14,1.78-7.74
	c0.13-1.05,0.13-2.1-0.091-3.13c-3.069,1.36-6.479,7.2-8.631,9.88c-2.979,3.7-6.238,5.87-9.81,8.97
	c-5.72,4.95-12.12,11.33-19.25,14.22c-7.78,3.14-16.22,4.7-24.5,6.06c-8.33,1.37-17.88,1.5-26.49,1.5c-4.61,0-8.78-0.72-13.26-0.94
	c-4.36-0.22-8.73-0.13-12.81-0.75c-4.14-0.64-8.87-0.69-12.93-1.07c-2.23-0.2-9.54-2.29-10.76-0.99h-0.011V128.984z"/>
<path fill="none" stroke="#000000" stroke-width="2" stroke-miterlimit="10" d="M194.253,25.854c-0.15,0.01-0.301,0.03-0.44,0.05
	c-188.69,19.47-148.31,264.66,2.87,258.041c0.57-0.021,1.13-0.051,1.699-0.08"/>
<path fill="none" stroke="#000000" stroke-width="2" stroke-miterlimit="10" d="M192.022,25.854c0.6,0.01,1.2,0.03,1.79,0.05
	c189.43,6.1,172.01,260.97,2.88,258.179"/>
<path d="M181.697,77.084c0,0-0.362,0.14-1.041,0.359c-0.678,0.206-1.625,0.598-2.918,0.943c-1.291,0.353-2.907,0.833-5.049,0.853
	c-0.525,0.039-1.119-0.046-1.717-0.081l-0.114-0.009l-0.057-0.005l-0.029-0.002c0.065,0.023-0.121-0.034-0.109-0.029l-0.181-0.021
	l-0.366-0.043c-0.246-0.029-0.495-0.058-0.747-0.088c-0.527-0.067-1.143-0.233-1.739-0.363c-0.522-0.118-1.056-0.24-1.601-0.364
	c-1.038-0.229-1.985-0.426-2.858-0.462c-0.446-0.034-0.862-0.009-1.29-0.023c-0.45,0.056-0.835,0.066-1.326,0.134
	c-1.232,0.138-2.59,0.182-3.808,0.334c-1.192,0.195-2.402,0.209-3.623,0.444c-1.22,0.207-2.469,0.33-3.647,0.615
	c-0.594,0.131-1.21,0.224-1.792,0.382c-0.575,0.154-1.153,0.309-1.733,0.464l-0.869,0.229l-0.82,0.315
	c-0.545,0.214-1.1,0.4-1.657,0.582c-0.533,0.225-1.042,0.494-1.567,0.732c-0.518,0.25-1.062,0.454-1.531,0.789l-1.488,0.865
	l-0.375,0.212l-0.534,0.339l-0.915,0.588c-0.645,0.407-1.47,0.893-2.091,1.23c-0.612,0.34-1.221,0.678-1.828,1.016
	c-0.609,0.328-1.062,0.63-1.601,0.927c-0.446,0.294-0.969,0.565-1.353,0.866l-0.624,0.437l-0.559,0.47l-0.287,0.229l-0.037,0.028
	c-0.129,0.143,0.156-0.179,0.117-0.137l-0.023,0.022l-0.092,0.091l-0.185,0.182l-0.735,0.722c-0.541,0.514-0.861,0.883-1.223,1.27
	l-0.56,0.597l-0.66,0.733c-0.829,0.907-1.87,2.108-2.735,2.952c-1.806,1.804-3.407,3.343-4.88,4.846
	c-0.367,0.371-0.725,0.734-1.076,1.09c-0.336,0.36-0.646,0.72-0.984,1.056c-0.685,0.675-1.224,1.354-1.784,1.994
	c-0.564,0.637-0.949,1.287-1.449,1.855c-0.459,0.58-0.792,1.15-1.15,1.664c-0.086,0.13-0.17,0.257-0.252,0.38l-0.031,0.046
	l-0.015,0.023c-0.008,0.026,0.042-0.19,0.018-0.092l-0.006,0.013l-0.049,0.103l-0.096,0.201c-0.137,0.262-0.265,0.507-0.384,0.736
	c-0.27,0.472-0.39,0.812-0.499,1.112c-0.25,0.627-0.383,0.961-0.383,0.961l-0.7,0.018c0,0,0.012-0.38,0.034-1.092
	c0.007-0.359,0.015-0.804,0.128-1.279c0.044-0.243,0.092-0.504,0.143-0.783c0.034-0.152,0.033-0.254,0.098-0.46
	c0.046-0.146,0.094-0.296,0.143-0.45c0.208-0.611,0.385-1.312,0.679-2.033c0.315-0.71,0.596-1.512,1.009-2.309
	c0.794-1.611,1.784-3.386,3.041-5.192c1.231-1.82,2.661-3.729,4.188-5.703c0.758-1.001,1.504-2.003,2.268-3.084
	c0.378-0.535,0.765-1.076,1.185-1.625c0.411-0.549,0.821-1.112,1.272-1.615c1.725-2.163,4.062-4.057,6.53-5.527
	c1.212-0.749,2.433-1.504,3.66-2.262c1.182-0.819,2.456-1.566,3.733-2.348c0.621-0.417,1.321-0.679,1.996-0.989
	c0.681-0.296,1.351-0.62,2.039-0.89c0.704-0.225,1.407-0.45,2.107-0.674l1.049-0.334l1.07-0.233
	c0.712-0.152,1.421-0.304,2.127-0.456c0.708-0.133,1.422-0.194,2.127-0.293c1.409-0.22,2.81-0.276,4.186-0.354
	c2.758-0.132,5.421-0.054,7.907,0.053c2.601,0.041,4.986,0.887,6.985,1.753c1.014,0.437,1.951,0.833,2.858,1.18
	c0.951,0.354,1.781,0.62,2.631,0.764c1.688,0.291,3.227,0.283,4.489,0.267c1.274-0.025,2.276-0.045,2.958-0.058
	c0.682-0.001,1.045-0.002,1.045-0.002L181.697,77.084z"/>
<path d="M198.699,70.714c0.001,0,0.349-0.113,0.931-0.337c0.494-0.232,1.203-0.705,1.951-1.369c0.746-0.681,1.48-1.676,2.228-2.833
	c0.711-1.197,1.374-2.664,1.86-4.191l0.078-0.288l0.043-0.142l0.022-0.071l0.005-0.018c0.018-0.033-0.029,0.049,0.039-0.078
	l0.016-0.045c0.086-0.24,0.172-0.482,0.258-0.727c0.19-0.507,0.31-0.948,0.567-1.534c0.237-0.571,0.505-1.144,0.779-1.727
	c0.304-0.572,0.612-1.152,0.925-1.741c1.355-2.353,3.446-4.775,5.835-6.607c0.593-0.438,1.185-0.895,1.806-1.319
	c0.562-0.362,1.129-0.728,1.698-1.095c1.272-0.785,2.501-1.478,3.796-2.098c2.57-1.297,5.35-2.335,8.277-3.134
	c2.943-0.731,6.059-1.224,9.29-1.112c0.815,0.052,1.625,0.084,2.435,0.181c0.822,0.145,1.625,0.242,2.437,0.448
	c0.812,0.226,1.608,0.375,2.399,0.69c0.396,0.14,0.782,0.293,1.168,0.448l0.287,0.116l0.071,0.029
	c-0.038-0.013,0.021,0.01,0.024,0.014l0.104,0.049l0.421,0.195c1.115,0.526,2.225,1.013,3.285,1.555
	c0.532,0.265,1.061,0.526,1.58,0.785c0.53,0.267,1.074,0.561,1.59,0.853c2.067,1.145,4.115,2.305,5.557,3.292
	c1.652,1.015,3.278,2.077,4.668,3.094c1.412,0.982,2.567,2.043,3.461,2.99c0.902,0.942,1.467,1.854,1.754,2.531
	c0.287,0.671,0.302,1.072,0.32,1.057l-0.625,0.316c-0.016,0.007-0.135-0.264-0.504-0.695c-0.353-0.445-1.041-0.989-1.984-1.576
	c-0.95-0.583-2.188-1.184-3.648-1.786c-1.462-0.606-3.148-1.201-4.994-1.9c-1.856-0.748-3.824-1.481-5.918-2.289
	c-2.076-0.823-4.354-1.547-6.664-2.375c-2.268-0.842-4.674-1.288-7.201-1.252c-2.513,0.031-5.062,0.451-7.549,1.115
	c-2.494,0.64-4.935,1.518-7.265,2.546c-1.168,0.51-2.304,1.073-3.401,1.646c-0.55,0.303-1.097,0.604-1.639,0.902
	c-0.52,0.321-1.035,0.639-1.546,0.955c-2.006,1.319-3.685,2.923-5.006,4.682c-1.343,1.75-2.317,3.595-3.319,5.33
	c-1.041,1.737-2.264,3.144-3.477,4.251c-1.227,1.096-2.459,1.879-3.562,2.342c-1.107,0.466-2.053,0.612-2.729,0.647
	c-0.631,0.006-0.949-0.02-0.948-0.02L198.699,70.714z"/>
<path d="M175.044,80.933c0,0-0.174,0.088-0.502,0.254c-0.314,0.161-0.843,0.372-1.392,0.68c-0.555,0.303-1.229,0.671-2.002,1.094
	c-0.782,0.439-1.677,0.949-2.735,1.43c-0.548,0.234-1.11,0.499-1.733,0.733c-0.638,0.212-1.292,0.433-2.018,0.569
	c-1.529,0.351-2.771,0.488-4.155,0.66c-1.364,0.156-2.847,0.254-4.247,0.348c-1.342,0.149-2.771,0.152-4.003,0.387l-0.961,0.105
	l-0.481,0.051l-0.06,0.006l-0.03,0.003l-0.015,0.001c0.106-0.024-0.259,0.057,0.234-0.055l-0.133,0.034l-0.266,0.067
	c-0.707,0.186-1.424,0.325-2.128,0.488c-0.555,0.198-1.01,0.379-1.536,0.531c-0.493,0.109-1.075,0.448-1.627,0.659
	c-1.121,0.437-2.196,1.05-3.256,1.549c-0.514,0.299-0.998,0.616-1.505,0.879c-0.51,0.257-0.997,0.53-1.454,0.819
	c-0.909,0.572-1.809,1.042-2.583,1.516c-0.765,0.475-1.493,0.833-2.068,1.167c-0.571,0.335-1.065,0.555-1.383,0.725
	c-0.332,0.156-0.509,0.24-0.509,0.24l-0.286-0.279c0,0,0.506-0.532,1.393-1.464c0.438-0.471,0.995-1.021,1.626-1.659
	c0.621-0.648,1.365-1.337,2.186-2.081c0.797-0.769,1.771-1.482,2.741-2.303c1.056-0.712,2.104-1.564,3.349-2.207
	c1.175-0.744,2.554-1.276,3.922-1.833c0.697-0.189,1.4-0.381,2.106-0.573c0.756-0.217,1.477-0.23,2.22-0.355
	c1.477-0.237,2.954-0.223,4.408-0.292c1.445-0.014,2.867-0.027,4.243-0.041c1.373-0.051,2.72,0.003,3.94-0.145
	c1.234-0.106,2.385-0.376,3.445-0.632c1.064-0.28,2.041-0.537,2.905-0.765c0.873-0.217,1.646-0.377,2.295-0.478
	c0.645-0.134,1.143-0.132,1.487-0.182c0.343-0.034,0.525-0.052,0.525-0.052L175.044,80.933z"/>
<path d="M208.681,67.864c0,0,0.15-0.077,0.434-0.221c0.266-0.141,0.74-0.315,1.188-0.587c0.224-0.129,0.47-0.273,0.738-0.429
	c0.262-0.194,0.549-0.352,0.84-0.541c0.576-0.407,1.172-0.899,1.797-1.426c0.611-0.57,1.23-1.2,1.904-1.912
	c0.695-0.738,1.431-1.517,2.189-2.322c0.809-0.828,1.674-1.718,2.705-2.569c1.033-0.867,2.096-1.691,3.455-2.428
	c0.219-0.131,0.676-0.331,1.07-0.501c0.397-0.171,0.824-0.358,1.162-0.456c0.717-0.26,1.44-0.426,2.145-0.568
	c1.412-0.291,2.791-0.397,4.099-0.376c1.312-0.008,2.554,0.154,3.712,0.352c0.578,0.107,1.137,0.234,1.668,0.375
	c0.526,0.167,1.034,0.327,1.521,0.481c0.48,0.182,0.939,0.333,1.365,0.523c0.418,0.207,0.814,0.403,1.188,0.587
	c0.737,0.381,1.344,0.784,1.825,1.143c0.491,0.325,0.83,0.68,1.067,0.889c0.232,0.218,0.348,0.345,0.348,0.345l-0.158,0.367
	c0,0-0.145-0.053-0.414-0.152c-0.27-0.1-0.66-0.253-1.18-0.395c-0.512-0.166-1.148-0.31-1.877-0.473
	c-0.734-0.147-1.568-0.279-2.48-0.402c-0.916-0.102-1.91-0.189-2.966-0.21c-1.054-0.014-2.169-0.007-3.312,0.115
	c-1.144,0.1-2.315,0.291-3.478,0.587c-1.177,0.276-2.292,0.714-3.36,1.264c-1.078,0.547-2.068,1.289-3.039,2.005
	c-0.967,0.727-1.883,1.502-2.784,2.239c-0.896,0.743-1.783,1.451-2.658,2.081c-0.871,0.637-1.756,1.163-2.597,1.603
	c-0.428,0.208-0.846,0.393-1.244,0.557c-0.413,0.134-0.799,0.278-1.172,0.38c-0.375,0.088-0.728,0.171-1.053,0.247
	c-0.332,0.046-0.639,0.089-0.914,0.127c-0.557,0.095-0.974,0.058-1.267,0.086c-0.291,0.011-0.446,0.018-0.446,0.018L208.681,67.864z
	"/>
<path d="M156.395,47.973c0,0,0.11,0.015,0.318,0.042c0.206,0.035,0.518,0.055,0.889,0.117c0.755,0.11,1.835,0.274,3.102,0.558
	c0.637,0.135,1.326,0.287,2.04,0.492c0.718,0.195,1.482,0.394,2.25,0.668c0.769,0.277,1.586,0.511,2.386,0.885
	c0.817,0.37,1.608,0.698,2.547,1.311c0.253,0.207,0.559,0.432,0.757,0.675l0.424,0.48l0.422,0.478l0.433,0.557
	c0.612,0.75,1.032,1.524,1.467,2.239c0.436,0.721,0.763,1.465,1.083,2.16c0.302,0.706,0.579,1.371,0.768,2.017
	c0.211,0.635,0.383,1.22,0.488,1.76c0.12,0.533,0.215,0.993,0.253,1.39c0.084,0.788,0.096,1.231,0.096,1.231l-0.19,0.062
	c0,0-0.15-0.398-0.413-1.096c-0.122-0.352-0.33-0.757-0.535-1.233c-0.201-0.479-0.481-0.995-0.769-1.565
	c-0.277-0.577-0.648-1.165-1.002-1.805c-0.381-0.625-0.787-1.284-1.237-1.942c-0.456-0.656-0.932-1.33-1.466-1.965
	c-0.249-0.331-0.534-0.644-0.832-0.951c-0.297-0.317-0.572-0.632-0.895-0.854c-0.682-0.47-1.457-0.842-2.21-1.204
	c-0.756-0.361-1.517-0.688-2.253-1.003c-1.474-0.626-2.865-1.182-4.055-1.662c-1.188-0.488-2.179-0.894-2.873-1.178
	c-0.694-0.293-1.077-0.48-1.077-0.48L156.395,47.973z"/>
<path d="M202.081,34.484c0,0-0.072,0.093-0.207,0.266c-0.142,0.169-0.32,0.44-0.603,0.738c-0.539,0.623-1.399,1.455-2.362,2.352
	c-0.478,0.455-0.916,0.942-1.261,1.436c-0.337,0.504-0.537,1.064-0.731,1.724c-0.201,0.652-0.236,1.458-0.369,2.252
	c-0.032,0.4-0.096,0.859-0.108,1.216l-0.073,1.352c-0.078,0.895-0.195,1.812-0.24,2.673c-0.013,0.849-0.114,1.683-0.166,2.496
	c-0.035,0.408-0.069,0.808-0.104,1.2c-0.016,0.396-0.029,0.782-0.044,1.158c-0.017,0.754-0.078,1.475-0.136,2.146
	c-0.074,0.675-0.031,1.275-0.059,1.826c-0.002,0.545-0.037,1.032-0.059,1.435c-0.053,0.808-0.109,1.287-0.11,1.287l-0.192,0.048
	c0,0-0.084-0.445-0.229-1.225c-0.073-0.39-0.162-0.863-0.264-1.406c-0.087-0.545-0.259-1.151-0.282-1.832
	c-0.055-0.678-0.113-1.412-0.178-2.188c-0.031-0.388-0.063-0.787-0.098-1.195c-0.013-0.409-0.002-0.827-0.004-1.252
	c0.002-0.851,0.004-1.73,0.006-2.624c0.021-0.892,0.111-1.791,0.164-2.693c0.069-0.896,0.141-1.808,0.272-2.695
	c0.153-0.883,0.306-1.759,0.614-2.569c0.293-0.811,0.721-1.555,1.26-2.142c0.536-0.588,1.139-1.038,1.701-1.418
	c1.133-0.758,2.091-1.348,2.732-1.803c0.644-0.459,1.012-0.721,1.012-0.721L202.081,34.484z"/>
<path d="M101.493,64.191c0,0-0.132-0.228-0.337-0.655c-0.183-0.435-0.547-1.027-0.779-1.91c-0.285-0.883-0.577-1.942-0.782-3.183
	c-0.094-0.618-0.164-1.282-0.229-1.988c-0.038-0.698-0.067-1.444-0.057-2.217c0.042-1.541,0.183-3.226,0.542-4.958
	c0.342-1.739,0.858-3.541,1.565-5.337c0.332-0.91,0.747-1.798,1.189-2.687c0.413-0.908,0.926-1.772,1.447-2.642
	c1.04-1.744,2.299-3.384,3.626-4.968c1.399-1.522,2.855-3.002,4.472-4.264c0.795-0.645,1.613-1.249,2.464-1.791
	c0.423-0.272,0.843-0.543,1.261-0.812c0.427-0.256,0.873-0.479,1.302-0.714c1.726-0.932,3.498-1.654,5.23-2.175
	c1.719-0.543,3.427-0.831,4.986-0.997c0.786-0.066,1.544-0.094,2.254-0.103c0.722,0.027,1.397,0.052,2.027,0.112
	c1.27,0.144,2.35,0.393,3.22,0.65c0.865,0.197,1.53,0.554,1.97,0.722c0.441,0.193,0.669,0.319,0.669,0.319l-0.002,0.7
	c0,0-0.224,0.012-0.644,0.036c-0.418,0.03-1.035,0.033-1.811,0.15c-0.779,0.074-1.714,0.251-2.779,0.472
	c-0.526,0.138-1.086,0.285-1.676,0.44c-0.578,0.198-1.2,0.357-1.828,0.587c-1.255,0.462-2.608,0.996-3.964,1.719
	c-1.37,0.693-2.758,1.535-4.13,2.497c-1.387,0.942-2.72,2.058-4.034,3.228c-1.306,1.183-2.539,2.482-3.719,3.827
	c-2.368,2.684-4.428,5.642-6.012,8.605c-0.795,1.479-1.487,2.952-2.049,4.385c-0.588,1.424-1.018,2.817-1.385,4.108
	c-0.349,1.297-0.614,2.499-0.817,3.572c-0.176,1.076-0.314,2.021-0.367,2.796c-0.087,0.77-0.087,1.403-0.104,1.827
	c-0.014,0.426-0.021,0.653-0.021,0.653L101.493,64.191z"/>
<path d="M189.371,20.596c0,0-0.03-0.27-0.046-0.758c0.003-0.491-0.132-1.169,0.232-2.212c0.079-0.263,0.161-0.54,0.248-0.831
	c0.095-0.293,0.22-0.529,0.344-0.821c0.251-0.559,0.558-1.203,0.975-1.761c0.801-1.193,1.906-2.412,3.25-3.483
	c0.332-0.278,0.688-0.538,1.051-0.812c0.371-0.239,0.746-0.482,1.131-0.73c0.777-0.52,1.609-0.896,2.474-1.338
	c0.865-0.434,1.776-0.731,2.714-1.103c0.934-0.307,1.913-0.607,2.906-0.825c0.499-0.112,1.002-0.242,1.516-0.333
	c0.514-0.075,1.03-0.15,1.553-0.226c1.044-0.172,2.117-0.226,3.205-0.264c1.094-0.009,2.207-0.041,3.353,0.094
	c0.562,0.035,1.156,0.127,1.748,0.215l0.888,0.135l0.975,0.224l1.367,0.369l0.683,0.185c0.221,0.057,0.45,0.119,0.739,0.224
	c1.091,0.357,2.148,0.804,3.201,1.209c1.021,0.416,1.896,0.907,2.812,1.382c0.914,0.446,1.783,0.994,2.613,1.561
	c0.416,0.277,0.828,0.552,1.238,0.824l0.303,0.203l0.039,0.025l0.309,0.188l0.062,0.052l0.123,0.108l0.482,0.436
	c0.641,0.591,1.271,1.114,1.879,1.722c0.695,0.75,1.369,1.457,1.973,2.176c0.31,0.361,0.596,0.71,0.799,1.023
	c0.227,0.322,0.451,0.632,0.656,0.954c0.861,1.283,1.512,2.384,2.099,3.428c0.563,1.027,1.055,1.923,1.46,2.661
	c0.418,0.669,0.744,1.323,1.017,1.647c0.272,0.389,0.419,0.596,0.419,0.596l-0.269,0.646c0,0-0.224-0.107-0.642-0.308
	c-0.433-0.186-0.982-0.553-1.686-1.031c-0.695-0.491-1.486-1.112-2.357-1.875c-0.879-0.751-1.873-1.602-2.918-2.54
	c-1.039-0.973-2.229-1.863-3.463-2.846c-0.686-0.433-1.39-0.877-2.109-1.332l-0.543-0.342c-0.08-0.046-0.211-0.139-0.246-0.147
	l-0.288-0.143c-0.384-0.191-0.771-0.384-1.161-0.579c-1.539-0.823-3.24-1.462-4.938-2.136c-0.86-0.285-1.729-0.572-2.602-0.86
	c-0.887-0.265-1.823-0.455-2.734-0.687c-1.754-0.432-3.611-0.628-5.431-0.684c-1.821-0.025-3.628,0.011-5.354,0.24
	c-0.869,0.068-1.705,0.258-2.535,0.375c-0.813,0.187-1.622,0.334-2.385,0.559c-0.761,0.229-1.514,0.422-2.201,0.71
	c-0.348,0.132-0.69,0.262-1.027,0.389c-0.323,0.155-0.641,0.308-0.95,0.457c-0.637,0.273-1.184,0.637-1.72,0.958
	c-0.561,0.292-0.993,0.694-1.441,1.022c-0.466,0.313-0.784,0.725-1.129,1.056c-0.361,0.328-0.601,0.68-0.816,1
	c-0.211,0.328-0.45,0.572-0.576,0.872c-0.134,0.292-0.247,0.54-0.339,0.741c-0.184,0.402-0.282,0.617-0.282,0.617L189.371,20.596z"
	/>
<path fill="none" stroke="#000000" stroke-width="1.5" stroke-miterlimit="10" d="M130.522,124.234c7.88-0.19,15.88,1.25,24,1.25
	c9.21,0,18.24,0.72,27.5,0.25c9.76-0.49,19.33-0.29,28.75-1.99c8.971-1.61,16.76-3.63,25.24-7.26c4.529-1.94,8.859-3.95,12.8-6.94
	c3.56-2.7,6.97-5.97,10.53-9c3.709-3.16,7.59-5.72,10.979-9.24c2.4-2.5,6.65-4.9,8.391-7.63c0.33-0.53,0.801-0.97,1.029-1.4
	c-2.76-0.39-4.449,2.48-7.18,2.42c-1.771-9.35,17.97-9.3,16.17,1.75c-2.54,0.25-5.07-3.51-7.71-3.96"/>
<path fill="none" stroke="#000000" stroke-width="1.5" stroke-miterlimit="10" d="M130.022,124.234c0.39-2.08,3.64-2.38,5.46-2.54
	c0.43-2.15-2.85-2.58-4.4-2.15c-1.8,0.49-3.26,2.54-4.37,3.88c-2.09,2.52-5.05,8.14-0.74,10.28c-0.79-0.39,0.03-6.79,1.69-6.86
	c1.07-0.04,5.39,8.46,6.37,9.89c2.792,4.107,6.392,10.602,8.98,13.689c1.8,2.141,3.22,4.4,4.95,6.609
	c2.96,3.791,5.28,7.59,8.11,11.451c2.51,3.42,12.95,16.699,15.75,20.189c6.52,8.129,13.87,16.25,22.7,22.061
	c3.779,2.488,7.41,5.039,11.26,7.51c4.311,2.76,6.961,5.16,12.04,6.561c5.79,1.59,11.729,1.1,17.7,0.18
	c2.689-0.41,5.38-1.029,7.91-2.07c2.199-0.91,4.67-3.438,6.89-3.67c2.45-0.25,5.57,1.191,8.24,1.061
	c2.899-0.148,5.83-0.729,8.53-1.779c0.14,0.041,2.979-2.709,4.01-4.68c0.35-0.67,0.641-1.369,0.891-2.092
	c0.549-1.568,0.93-3.219,1.34-4.828c0.021-0.092,0.051-0.182,0.069-0.271c0.33-1.359,0.55-2.92,0.57-4.49
	c0.021-2.809-0.61-5.648-2.45-7.43"/>
<path fill="none" stroke="#000000" stroke-width="1.5" stroke-miterlimit="10" d="M137.772,128.734c-0.01,0.09-0.01,0.16-0.01,0.25
	c0,0.6,0.15,1.24,0.42,1.89c0.99,2.46,3.52,5.1,4.78,6.67c1.99,2.46,3.7,5.12,5.12,7.88c3.39,6.569,8.34,12.271,12.69,18.31
	c3.9,5.4,7.93,11.48,12.5,16.689c5.42,6.17,11.12,11.859,17.02,17.561c0.92,0.9,1.85,1.801,2.791,2.701
	c2.351,2.25,4.319,4.828,7.181,6.309c3.6,1.871,7.01,4.801,10.771,6.25c6.84,2.631,15.369,2.041,22.471,1.49c0.01,0,0.01,0,0.02,0"
	/>
<path fill="none" stroke="#000000" stroke-width="1.5" stroke-miterlimit="10" d="M210.272,197.233c0.02,0,0.04,0,0.061,0
	c3.789,0,8.149-0.17,10.641,2.791c0.119,0.139,0.229,0.299,0.33,0.469c0.75,1.16,1.238,2.891,1.898,4.061
	c0.932,1.641,2.11,2.859,3.262,4.24c2.148,2.561,4.47,4.51,7.039,5.939c3.351,1.85,7.131,2.811,11.521,3
	c8.28,0.359,17.8,4.371,24.56-2.189c1.021-0.99,1.812-2.318,2.41-3.791c0.67-1.619,1.12-3.408,1.41-5.1
	c0.18-1.029,0.301-2.02,0.37-2.92c0.05-0.549,0.13-1.07,0.2-1.57c0.189-1.33,0.35-2.52-0.2-3.93c-0.53-1.359-1.5-2.6-2.26-3.811
	c-0.15-0.25-0.3-0.5-0.431-0.75c-0.859-1.631-1.851-2.75-3.029-3.729c-0.94-0.791-2-1.48-3.23-2.271
	c-1.46-0.939-3.02-1.92-4.66-2.699c-1.42-0.682-2.898-1.221-4.449-1.432c-3.58-0.51-8.061-0.969-11.689-0.559
	c-2.4,0.27-7.3,2.898-8.5,5"/>
<path fill="none" stroke="#000000" stroke-width="1.5" stroke-miterlimit="10" d="M252.022,200.733c-2.4-2.859-5.68-5.709-9.15-7.99
	c-2.43-1.6-4.818-3.459-7.438-4.549c-1.392-0.59-2.851-0.961-4.41-0.961c-2.069,0-3.88,0.33-5.75,0.5
	c-2.94,0.27-4.14,1.24-6.94,2.311c-3.25,1.24-6.568,2.561-7.738,6.25c-0.12,0.359-0.2,0.641-0.262,0.939
	c-0.039,0.221-0.06,0.451-0.06,0.75"/>
<g>
	<path fill="none" stroke="#000000" stroke-width="1.5" stroke-miterlimit="10" d="M271.272,194.733c0.09-0.1,0.17-0.199,0.24-0.311
		c2.22-2.85,3.119-6.959,2.76-10.68c-3.76-38.71,4.311-91.81,5.189-94.52c0.729-2.25,1.319-4.82,2.311-6.74"/>
	<path fill="none" stroke="#000000" stroke-width="1.5" stroke-miterlimit="10" d="M137.772,128.984c1.22-1.3,8.53,0.79,10.76,0.99
		c4.06,0.38,8.79,0.43,12.93,1.07c4.08,0.62,8.45,0.53,12.81,0.75c4.48,0.22,8.65,0.94,13.26,0.94c8.61,0,18.16-0.13,26.49-1.5
		c8.279-1.36,16.721-2.92,24.5-6.06c7.13-2.89,13.529-9.27,19.25-14.22c3.57-3.1,6.83-5.27,9.811-8.97
		c2.149-2.68,5.561-8.52,8.631-9.88c0.22,1.03,0.22,2.08,0.09,3.13c-0.311,2.6-1.41,5.22-1.78,7.74
		c-0.53,3.57-0.979,6.79-1.59,10.27c-0.07,0.39-0.142,0.78-0.21,1.18c-1.4,7.57-2.24,15.26-3.391,22.87
		c-1.131,7.47-1.541,16.549-0.75,24.439c0.319,3.311,0.131,7.031,0.949,10.25c0.12,0.451,0.26,0.891,0.42,1.32
		c1.41,3.75,0.791,8.25,0.08,12.17c-0.33,1.801-0.77,3.18-1.979,4.471c-0.09,0.1-0.182,0.189-0.28,0.289"/>
</g>
<path fill="none" stroke="#000000" stroke-miterlimit="10" d="M190.272,197.983c0.01,0,0.01,0,0.02,0
	c4.81,1.01,9.28,2.5,14.541,2.75c5.5,0.27,10.801,0,16.189,0"/>
<path fill="none" stroke="#000000" stroke-miterlimit="10" d="M260.022,184.983c0.04-0.01,0.09-0.02,0.141-0.01
	c0.18-0.021,0.369,0.029,0.569-0.029c1.71-2.031,3.3-4.051,4.79-6.211c1.41-2.049,3.561-4.42,4-6.75"/>
<path fill="none" stroke="#000000" stroke-miterlimit="10" d="M138.522,130.734c4.06,0.92,7.79,3.12,11.5,4.26
	c2.15,0.66,4.57,0.48,6.74,1.04c1.96,0.51,3.64,1.26,5.51,1.76c4.15,1.09,8.74,1.43,13,2.49c4.82,1.21,10.08,0.53,15,1.27
	c5.33,0.8,10.75,0.68,16.25,0.68c2.73,0,5.49,0.11,8.221,0c3.521-0.15,6.359-1.91,9.729-2.25c5.43-0.55,10.18-3.01,14.989-5.56
	c4.74-2.51,9.359-4.19,13.061-8.2c4.48-4.84,9.529-9.91,13.74-15.28c3.8-4.85,7.72-10.29,10.01-15.71"/>
<path d="M212.613,228.114c0,0,0.156,0.059,0.449,0.168c0.287,0.104,0.737,0.285,1.254,0.434c0.503,0.176,1.156,0.312,1.867,0.51
	c0.733,0.148,1.551,0.279,2.435,0.406c0.897,0.09,1.856,0.168,2.881,0.219c1.021,0.055,2.113,0.008,3.237,0.025
	c1.129,0.008,2.308-0.123,3.511-0.131c1.186-0.043,2.496-0.125,3.646-0.207c1.259-0.066,2.605-0.09,3.715-0.221
	c0.576-0.076,1.158-0.062,1.727-0.135c0.572-0.061,1.139-0.119,1.693-0.178c0.555-0.061,1.071-0.205,1.609-0.256
	c0.267-0.035,0.529-0.07,0.791-0.104c0.256-0.049,0.502-0.111,0.751-0.166c0.495-0.107,0.975-0.234,1.456-0.318
	c0.468-0.119,0.914-0.258,1.352-0.379c0.885-0.23,1.669-0.529,2.389-0.783c0.362-0.127,0.703-0.246,1.019-0.355
	c0.308-0.133,0.591-0.254,0.847-0.363c0.508-0.23,0.95-0.371,1.237-0.488c0.293-0.111,0.448-0.172,0.448-0.172l0.193,0.23
	c0,0-0.502,0.396-1.384,1.096c-0.221,0.176-0.465,0.369-0.731,0.578c-0.283,0.186-0.592,0.385-0.922,0.596
	c-0.66,0.424-1.396,0.924-2.283,1.312c-0.437,0.209-0.885,0.439-1.358,0.654c-0.489,0.182-0.994,0.369-1.515,0.561
	c-0.514,0.211-1.059,0.373-1.623,0.512c-0.563,0.143-1.133,0.322-1.723,0.443c-1.187,0.221-2.408,0.471-3.672,0.592
	c-1.261,0.18-2.531,0.23-3.806,0.336c-2.567,0.125-5.129,0.166-7.537,0c-2.403-0.162-4.64-0.561-6.489-1.133
	c-0.459-0.15-0.896-0.311-1.312-0.459c-0.403-0.18-0.787-0.352-1.146-0.51c-0.699-0.365-1.303-0.693-1.771-1.021
	c-0.49-0.297-0.812-0.59-1.056-0.77c-0.234-0.186-0.36-0.283-0.36-0.283L212.613,228.114z"/>
<path fill="#C90E32" d="M327.541,286.052c-1.128,1-2.322,1.787-3.597,2.381c-0.007-0.068-0.01-0.137-0.032-0.211
	c-0.768-2.473-2.327-4.494-3.561-6.744c-0.165-0.303,4.301-4.52,4.7-4.934c0.64-0.664-0.378-1.543-1.068-1.092
	c-3.052,1.994-5.584,4.873-9.454,5.033c-0.991,0.041-0.787,1.566,0.199,1.525c1.386-0.057,2.609-0.432,3.748-0.979
	c0.01,0.051,0.015,0.102,0.035,0.146c1.127,2.398,2.812,4.51,3.744,6.99c-1.105,0.633-2.145,1.266-3.467,1.5
	c-0.985,0.174-0.784,1.568,0.199,1.527c3.622-0.15,6.773-1.52,9.479-3.914C329.206,286.628,328.285,285.392,327.541,286.052z"/>
<path fill="#C90E32" d="M339.296,285.687c-2.619-2.893-5.21-5.801-7.303-9.105c-0.531-0.842-1.758,0.092-1.229,0.926
	c0.562,0.889,1.164,1.744,1.789,2.582c-0.774,0.654-1.5,1.355-2.535,1.568c-0.078,0.016-0.138,0.053-0.201,0.084
	c-0.91-1.229-1.768-2.494-2.557-3.809c-0.514-0.852-1.737,0.084-1.231,0.928c1.707,2.838,3.699,5.482,5.956,7.908
	c0.671,0.719,1.907-0.199,1.23-0.928c-0.846-0.906-1.639-1.854-2.407-2.82c1.048-0.359,1.823-1.031,2.688-1.725
	c1.449,1.83,2.996,3.582,4.567,5.318C338.728,287.345,339.964,286.423,339.296,285.687z"/>
<path fill="#C90E32" d="M346.083,282.987c-2.583-2.305-4.987-4.637-5.034-8.324c-0.004-0.244-0.101-0.414-0.242-0.52
	c0.29-0.268,0.577-0.537,0.855-0.812c0.707-0.699-0.512-1.645-1.209-0.957c-1.673,1.654-3.598,3.152-5.831,3.949
	c-0.936,0.336-0.35,1.76,0.585,1.426c1.597-0.57,3.031-1.471,4.349-2.525c0.204,3.873,2.797,6.496,5.571,8.973
	C345.871,284.858,346.819,283.646,346.083,282.987z"/>
<path fill="#C90E32" d="M353.501,281.628c-0.886-0.977-1.786-1.963-2.641-2.986c0.927-1.041,1.865-2.078,2.97-2.936
	c0.783-0.609-0.142-1.84-0.928-1.23c-1.11,0.861-2.074,1.896-3.013,2.943c-0.814-1.078-1.55-2.207-2.12-3.432
	c0.03-0.006,0.057,0,0.087-0.012c2.215-0.77,4.29-1.898,6.175-3.291c0.8-0.592-0.128-1.82-0.927-1.23
	c-1.785,1.32-3.734,2.367-5.833,3.098c-0.047,0.018-0.075,0.047-0.114,0.068c-0.47-0.596-1.602-0.049-1.296,0.797
	c0.74,2.051,1.934,3.854,3.282,5.543c0.018,0.029,0.043,0.055,0.063,0.082c0.977,1.213,2.026,2.369,3.062,3.514
	C352.932,283.286,354.167,282.364,353.501,281.628z"/>
<path fill="#C90E32" d="M367.328,271.585c-0.588-4.227-5.013-4.85-8.327-3.441c-0.052,0.021-0.08,0.057-0.122,0.086
	c-0.511-0.592-1.652-0.051-1.288,0.779c1.803,4.111,3.291,8.359,5.329,12.363c0.445,0.877,1.876,0.305,1.425-0.584
	c-0.553-1.086-1.062-2.189-1.549-3.303C365.703,277.108,367.772,274.774,367.328,271.585z M362.17,276.007
	c-0.899-2.135-1.763-4.287-2.666-6.424c0.027-0.008,0.053-0.004,0.081-0.016c2.366-1.004,5.481-1.018,6.178,2.008
	C366.335,274.063,364.546,275.952,362.17,276.007z"/>
<path fill="#C90E32" d="M371.244,282.917c-3.203,0.547-6.444,0.578-9.686,0.656c-0.03,0-0.048,0.014-0.075,0.018
	c-0.119-0.062-0.254-0.104-0.42-0.088c-9.433,0.891-20.753,2.342-27.145,10.17c-0.629,0.771,0.582,1.723,1.209,0.955
	c6.113-7.488,17.122-8.748,26.135-9.598c0.038-0.004,0.062-0.021,0.099-0.029c0.114,0.061,0.241,0.104,0.396,0.1
	c3.238-0.076,6.481-0.107,9.686-0.654C372.419,284.278,372.227,282.749,371.244,282.917z"/>
</svg>
