<?xml version="1.0" encoding="utf-8"?>
<!-- Generator: Adobe Illustrator 16.0.4, SVG Export Plug-In . SVG Version: 6.00 Build 0)  -->
<!DOCTYPE svg PUBLIC "-//W3C//DTD SVG 1.1//EN" "http://www.w3.org/Graphics/SVG/1.1/DTD/svg11.dtd">
<svg version="1.1" id="Layer_1" xmlns="http://www.w3.org/2000/svg" xmlns:xlink="http://www.w3.org/1999/xlink" x="0px" y="0px"
	 width="200px" height="200px" viewBox="0 0 200 200" enable-background="new 0 0 200 200" xml:space="preserve">
<g id="XMLID_1_">
	<g>
		<path fill="#91D4E7" d="M139.821,74.409c0.371,1.391,0.113,2.118-1.525,2.167c-0.369,1.539,0.344,1.602,1.525,2.142
			c0.432,0.197,0.689,0.357,0.85,0.493c-0.689,0.013-1.377,0.013-2.068,0.037c-0.061-0.037-0.121-0.073-0.195-0.11
			c-0.949-0.493-1.145-1.022-1.861-1.834c1.699-0.074,1.861-1.182,0.643-2.253c-0.506-0.431-0.9-0.825-0.998-1.157
			c0.209-0.234,0.42-0.48,0.641-0.739c0.172-0.062,0.381-0.123,0.639-0.173C138.997,72.673,139.415,72.858,139.821,74.409z"/>
		<path fill="#28BF22" d="M139.821,74.409c-0.406-1.551-0.824-1.736-2.352-1.428c-0.258,0.05-0.467,0.111-0.639,0.173
			c1.551-1.797,3.396-4.05,5.393-6.524c0.639-0.012,1.291-0.012,1.945-0.012c3.371,4.074,6.252,8.74,8.518,13.997l-0.037,0.012
			c-2.561-0.984-5.848-1.391-8.617-1.391c-1.121,0-2.242-0.025-3.361-0.025c-0.16-0.135-0.418-0.295-0.85-0.493
			c-1.182-0.541-1.895-0.603-1.525-2.142C139.935,76.526,140.192,75.8,139.821,74.409z"/>
		<path fill="#91D4E7" d="M57.246,83.235c-0.443,0.037-0.985,0.344-1.44,0.333c-0.628-0.013-0.789-0.394-1.318-0.418
			c-0.061,0.234-0.098,0.479-0.123,0.738c-0.049,0.53-0.037,1.083-0.086,1.588c0.653,0.037,1.33,0.037,1.982,0.073
			c0.062,0.062,0.136,0.124,0.209,0.185c0.714,0.628,1.453,1.392,2.265,1.909c0.271,1.144,0.123,1.822,1.687,1.539
			c0.528-0.087,1.871-0.333,2.055-0.714l0.012-0.048c1.392,0.345,1.576-0.899,1.502-2.093c-0.505-0.123-0.874-0.295-1.416-0.32
			c-0.37-0.012-0.702,0.124-1.022,0.222c-0.172,0.049-0.344,0.098-0.517,0.085c-1.097-0.073-0.998-1.034-1.478-1.821
			C59.031,83.617,58.342,83.137,57.246,83.235z M127.401,136.845c0.012,0.223,0.012,0.445,0.012,0.666
			c0,1.758-0.109,3.434-0.639,5.096c-0.234,0.74-0.432,1.748-0.852,2.449c-0.332,0.543-1.648,1.664-1.795,2.586
			c-0.039,0.271,0.01,0.518,0.207,0.738c0.332,0.357,1.553,0.479,2.033,0.529c0.541,0.049,1.082-0.037,1.623-0.209
			c0.543,0.111,1.072,0.197,1.602,0.246c3.447,0.297,9.023,2.377,11.793,0c-2.154,2.473-4.469,4.727-6.906,6.746
			c-6.191,0.787-12.248,0.873-18.121,0.393c-3.127-0.244-6.203-0.65-9.219-1.203c-4.127-0.754-8.139-1.764-12.029-2.969
			c-2.658-0.824-5.268-1.746-7.804-2.758c-6.265-2.461-12.15-5.416-17.578-8.605c0.984-0.455,2.4-1.943,3.028-2.314
			c0.394-0.232,1.489-0.725,1.711-1.168c0.32-0.664,0.012-2.217,0.012-2.953c0-1.799,1.058-2.328,2.351-3.287
			c0.037-0.014,0.074-0.051,0.111-0.076c0.701-0.527,1.071-0.775,1.563-1.562c0.665-1.07,1.022-1.514,2.154-1.822
			c0.714-0.195,1.49-0.332,2.081-0.85c0.862-0.736,0.75-1.613,0.997-2.646c0.357-1.574,0.333-4.172,1.921-4.936
			c1.231-0.592,2.806-0.529,3.569-1.982c0.862-1.639,0.099-3.188-0.665-4.617c-0.344-0.639-0.886-1.328-1.168-2.006
			c-3.497-0.197-7.892,0.357-10.858-1.662c-0.64-0.418-1.292-1.033-1.76-1.611c-0.493-0.615-0.529-1.393-0.936-1.957
			c-0.147-0.197-0.615-0.381-0.8-0.591c-0.295-0.321-0.37-0.851-0.64-1.146c-1.022-1.119-2.918-1.047-3.583-2.574
			c-1.022,0.038-0.677-1.574-0.714-2.252c-0.455-0.122-1.182-0.677-1.625-0.91c-0.456-0.235-1.366-0.555-1.453-1.047
			c-0.948,0.037-1.576-0.541-2.424-0.75c-1.035-2.019-4.371-1.649-5.995-0.405c-1.146-0.642-2.339-1.577-2.757-1.847
			c-1.06-0.69-2.204-1.662-3.25-2.229c-0.406-0.221-0.788-0.369-1.157-0.504c0.221-0.874,0.382-1.662,0.418-2.585
			c0.049-1.379-0.616-4.653-2.364-4.616c-1.28,0.025-2.794,3.053-3.595,1.133c-0.874-2.13,1.367-3.139,2.45-4.223
			c0.702-0.713,1.132-1.699,2.031-2.191c0.024-0.012,0.037-0.024,0.062-0.037c0.75-0.369,1.797-0.356,2.622-0.652
			c0.984-0.357,4.062-1.551,5.022-0.775c1.416,1.144-1.145,2.88-1.514,3.877c-0.11,0.295-0.135,0.689-0.184,1.009
			c0.984-0.086,1.416,0.283,2.289-0.295c0.652-0.418,1.465-1.12,2.007-1.637c0.714-0.677,1.341-1.613,1.92-2.463
			c0.653-0.972,0.628-2.117,1.637-2.818c2.438,2.979,5.392,6.278,8.814,9.688c3.361,3.348,7.189,6.795,11.424,10.13v0.014
			c3.25,2.572,6.758,5.096,10.476,7.458c3.681,2.353,7.571,4.544,11.671,6.501c2.879,1.391,5.859,2.646,8.924,3.766
			c5.898,2.154,12.125,3.768,18.639,4.605c-0.258,0.775-0.492,1.562-0.812,2.303c-0.283,0.701-0.738,1.291-0.789,2.055
			c-0.074,1.156,0.578,1.934,0.898,2.881c0.197,0.564,0.271,1.17,0.26,1.773c-0.012,0.504-0.098,1.008-0.209,1.5
			c-0.234,0.912-0.604,1.65-1.146,2.439c-0.588,0.859-0.713,1.771-1.156,2.682c-0.355,0.738-1.107,1.17-1.49,1.885
			C127.339,134.999,127.376,135.923,127.401,136.845z M109.208,123.269c0-0.838-0.678-1.514-1.514-1.514
			c-0.84,0-1.516,0.676-1.516,1.514s0.676,1.514,1.516,1.514C108.53,124.782,109.208,124.106,109.208,123.269z"/>
		<path fill="#91D4E7" d="M61.074,144.935c-0.382,0.121-0.751,0.258-1.133,0.393c-4.099,1.514-10.155,4.578-13.123,7.818
			c-0.344-0.051-0.664-0.174-0.959-0.357l-0.111,0.123c-2.351-2.328-4.481-4.863-6.352-7.609l0.308-0.207
			c1.539-0.051,4.013-2.709,5.551-3.768c2.057-1.43,3.459-2.02,5.762-2.77c2.376-0.764,4.813-1.367,7.288-1.527
			c0.258,0.787,0.751,1.465,1.096,2.229c0.418,0.922,0.369,1.785,0.604,2.756c0.258,1.01,0.91,1.785,1.058,2.844
			C61.062,144.884,61.074,144.909,61.074,144.935z"/>
		<path fill="#28BF22" d="M71.785,64.364c0.541-2.991,1.686-5.971,2.646-8.888c0.862-2.672,2.314-5.81,4.518-7.521c0,0,0,0,0.013,0
			c2.597-0.751,5.244-1.342,7.915-1.748c-0.616,0.579-2.056,0.887-1.822,1.92c1.207,0.013,2.426,0.53,3.508,1.158
			c-0.578,0.701-1.12,1.391-1.464,2.068c-0.505,0.959-0.911,2.043-1.268,3.188c-0.099-0.246-0.222-0.467-0.37-0.628
			c-0.911-0.96-3.434-0.627-4.333,0.283c0.135,0.333,0.357,0.566,0.738,0.702c0.825,0.296,1.416,0.05,2.179,0.505
			c0.406,0.259,0.91,0.517,1.317,0.85c-0.381,1.551-0.677,3.139-0.948,4.591c-0.333,0.258-0.677,0.481-1.01,0.616
			c-1.896,0.8-3.569-0.751-5.331-0.898c-1.452-0.111-3.274,0.418-4,1.723c0.911,0.025,1.883-0.406,2.683-0.775
			c0.837-0.381,2.782-0.678,3.25,0.418c0.406,0.96-0.837,2.167-1.441,2.745c-1.28,1.207-1.391-0.443-2.548-0.825
			c-0.837-0.283-2.893,0.037-3.706,0.308C72.129,64.216,71.957,64.291,71.785,64.364z"/>
		<path fill="#91D4E7" d="M162.376,111.511c0.945,0.48,1.992,1.17,3.027,1.945c1.045,1.613,1.723,3.791,1.908,4.838
			c0.49,2.783,0.773,5.553,1.352,8.273c-0.934-1.121-1.945-2.191-3.064-3.178c-1.686-1.488-3.889-3.211-6.191-3.225
			c-1.219-0.012-2.461,0.666-3.57,0.74c0.174-0.615,0.32-1.244,0.469-1.885c0.234-0.959,0.455-1.932,0.641-2.916
			c0.357-1.736,0.664-3.51,0.922-5.33c1.502-0.727,0.652-0.074,2.326,0.012C160.786,110.81,161.538,111.081,162.376,111.511z"/>
		<path fill="#91D4E7" d="M90.864,45.69c1.391-0.135,2.781-0.234,4.186-0.271v0.148c0.64,0,0.961,0.345,1.133,0.96
			c0.541,1.958-2.672,3.151-2.93,5.01c-0.098,0.665-0.049,1.748,0.284,2.277c0.418,0.702,1.538,0.504,1.687,1.292
			c0.147,0.775-0.985,0.837-1.44,1.268c-0.518,0.492-0.849,1.49-0.64,2.129c0.517,1.564,1.908,0.591,2.855-0.394
			c-0.565,2.733-1.021,5.466-1.637,8.199c-1.194,5.269-1.957,10.845-2.487,16.25c-0.222,2.19-0.222,4.418,0.025,6.622
			c0.456,3.939,0.024,8.814,1.059,12.678c-3.717-2.362-7.226-4.886-10.476-7.458v-0.014c-1.724-2.03-0.394-5.403-0.468-7.952
			c-0.111-4.136,0.061-8.334,0.468-12.434c0.394-3.963,0.997-8.038,1.723-12.002c0.074-0.369,0.135-0.751,0.209-1.157
			c1.169-0.936,2.142-2.535,1.526-3.866c-0.124-0.283-0.332-0.517-0.579-0.726c0.147-0.579,0.296-1.145,0.468-1.711
			c0.233,0.48,0.43,1.022,0.85,1.206c1.242,0.53,1.833-0.627,2.573-1.243c0.861-0.727,1.637-0.997,1.846-2.154
			c0.271-1.465-0.356-1.588-1.255-2.229c-0.394-0.283-0.825-0.565-1.281-0.836C89.51,48.103,90.532,46.896,90.864,45.69z"/>
		<path fill="#91D4E7" d="M47.496,106.415c-0.678,2.623,0.702,5.133,2.155,7.104c0.467,0.641,0.935,0.922,1.206,1.723
			c0.295,0.863,0.197,1.885,0.64,2.658c0.406,0.738,0.874,1.184,1.207,1.934c0.394,0.85,0.775,1.688,1.391,2.486
			c0.948,1.232,1.625,2.893,2.105,4.334c0.271,0.836,0.726,1.674,1.046,2.572c0.369,1.047,0.124,2.191,0.247,3.275
			c-1.01-0.752-2.007-1.492-2.967-2.24c-3.213-2.488-6.143-4.963-8.752-7.324c-7.879-7.129-12.84-13.271-14.046-15.758
			c0.665-4.186,1.773-8.544,3.348-13.073l0.172,0.061c1.49,2.438,4.297,3.705,6.144,5.958c1.243,1.503,2.745,2.252,4.309,3.424
			c0.898,0.664,1.625,1.045,2.413,1.23C47.854,105.306,47.645,105.849,47.496,106.415z"/>
		<path fill="#91D4E7" d="M154.163,121.163c0.65-0.602,1.848-1.195,2.129-2.143h0.014c-0.148,0.641-0.295,1.27-0.469,1.885
			c-0.604,2.301-1.293,4.518-2.057,6.646c-0.232,0-0.467,0-0.688-0.012c-0.455-1.01-1.391-1.934-1.367-3.176
			C151.763,122.628,153.056,122.173,154.163,121.163z"/>
		<path fill="#91D4E7" d="M104.454,107.806c0.148,0.137,0.209,0.309,0.186,0.518l-0.012,0.037c-4.1-1.957-7.99-4.148-11.671-6.501
			c-1.034-3.864-0.603-8.739-1.059-12.678c-0.247-2.204-0.247-4.432-0.025-6.622c0.53-5.405,1.293-10.981,2.487-16.25
			c0.615-2.733,1.071-5.466,1.637-8.199c0.32-0.344,0.604-0.69,0.764-0.936c1.097-1.625,2.166-2.486,4.186-2.56
			c1.502-0.062,3.115-1.022,4.002-2.303c0.564-0.812,0.367-1.662,0.639-2.499c0.271-0.886,0.838-0.985,1.492-1.477
			c0.799-0.603,1.045-1.182,2.078-1.317c1.736-0.222,3.336-0.185,4,1.403c-0.455,0.456-0.836,1.059-1.131,1.563
			c-1.158,1.994-2.068,4.124-2.809,6.315c-1.045,3.151-2.018,6.278-2.854,9.442c-0.752,2.819-1.393,5.663-1.91,8.568
			c-0.309,1.797-0.664,3.569-0.996,5.331c-0.689,3.544-1.281,7.065-1.281,10.832c0,0.099,0,0.197,0,0.296
			c-0.012,3.939-0.209,8.358,0.629,12.347C103.149,104.778,103.667,106.354,104.454,107.806z"/>
		<path fill="#28BF22" d="M115.116,68.032c-0.271-1.588,0.713-3.988-0.652-5.083c-0.604-0.468-1.133-0.234-1.318-1.047
			c-0.035-0.172-0.023-0.369,0.012-0.566c0.395-0.345,0.803-0.665,1.23-0.948c0.432,0.283,0.863,0.923,1.121,1.206
			c0.469,0.492,0.936,0.898,1.441,1.219c0.406,0.258,1.391,0.578,1.662,1.009c0.381,0.579,0.098,1.391,0.062,2.056
			c-1.355,0.074-1.848,2.179-2.918,2.191c-0.025,0-0.039,0-0.061,0c-0.027,0-0.064,0-0.088-0.013
			C115.435,68.057,115.274,68.045,115.116,68.032z"/>
		<path fill="#91D4E7" d="M54.476,130.321c-2.167,0.283-3.681-0.752-5.773-0.615c-1.81,0.123-3.877,1.061-5.614,1.551
			c-2.166,0.604-7.509,3.027-8.309,5.221l-0.111,0.049c-1.244-3.006-2.203-6.193-2.831-9.553l0.172-0.037
			c3.262-3.459,8.899-3.977,13.763-4c2.609,2.361,5.54,4.836,8.752,7.324L54.476,130.321z"/>
		<path fill="#91D4E7" d="M144.378,138.214c1.574-0.285,3.15-0.654,4.738-0.506l0.074,0.037c-2.277,4.135-4.889,7.865-7.781,11.178
			c-0.01,0.01-0.023,0.023-0.023,0.023c-2.77,2.377-8.346,0.297-11.793,0c-0.529-0.049-1.059-0.135-1.602-0.246
			c1.01-0.295,2.02-0.836,3.016-1.145c1.836-0.578,3.189-1.404,4.48-2.684c1.467-1.465,3.549-2.217,5.158-3.57
			c0.346-0.307,0.566-0.725,0.9-1.033c0.381-0.346,0.85-0.406,1.254-0.738c0.396-0.309,0.617-0.727,1.084-1.035
			C144.021,138.409,144.19,138.31,144.378,138.214z"/>
		<path fill="#C8F4C6" d="M117.368,165.835c-1.746,0.703-3.508,1.318-5.305,1.846l-0.037-0.121
			c-0.604-0.443-1.184-1.145-1.688-1.957c0.715-0.258,1.268-0.713,2.094-0.812c1.205-0.148,4.615-0.494,4.924,1.021L117.368,165.835
			z"/>
		<path fill="#C8F4C6" d="M95.997,58.11c0.272-1.329,0.566-2.646,0.924-3.963c0.492-1.872,0.984-3.829,1.995-5.54
			c0.603-1.022,1.476-1.847,1.415-3.066v-0.085c4.789,0.209,9.539,0.959,14.156,2.228c-0.504,0.062-0.947,0.357-1.33,0.738
			c-0.664-1.588-2.264-1.625-4-1.403c-1.033,0.135-1.279,0.714-2.078,1.317c-0.654,0.492-1.221,0.591-1.492,1.477
			c-0.271,0.837-0.074,1.687-0.639,2.499c-0.887,1.281-2.5,2.241-4.002,2.303c-2.02,0.074-3.089,0.935-4.186,2.56
			C96.601,57.42,96.317,57.766,95.997,58.11z"/>
		<path fill="#91D4E7" d="M132.116,81.303c-0.271,0.049-0.629-0.087-0.887-0.037c-0.1-0.111-0.184-0.247-0.27-0.382
			c1.674-0.517,3.223-1.107,5.021-1.391c0.137,0.16,0.258,0.308,0.381,0.456c0.703,0.874,1.65,1.821,2.832,1.107
			c0.295-1.132,0.295-1.341-0.592-1.81c0.691-0.024,1.379-0.024,2.068-0.037c0.604,0.554-0.492,0.874-0.529,2.265
			c0.924,0.209,1.195-0.677,2.043-0.603c1.012,0.098,0.826,1.194,1.453,1.723c0.824,0.702,3.902,0.862,3.053,2.376
			c-0.934,1.687-4.283,1.12-5.748,0.418c-0.689-0.333-1.021-1.121-1.549-1.514c-0.643-0.468-1.43-0.308-2.156-0.714
			c-0.309-0.173-0.604-0.566-0.924-0.727c-1.133-0.541-0.541-0.012-1.441,0.48C133.532,83.642,132.669,82.238,132.116,81.303z"/>
		<path fill="#28BF22" d="M135.981,79.493c-0.652-0.751-1.402-1.613-1.674-2.536c-0.086-0.295-0.111-0.591-0.135-0.874
			c0.566-0.567,1.242-1.317,2.018-2.191c0.098,0.332,0.492,0.727,0.998,1.157c1.219,1.071,1.057,2.179-0.643,2.253
			c0.717,0.812,0.912,1.341,1.861,1.834c0.074,0.037,0.135,0.074,0.195,0.11c-0.504,0.025-1.021,0.049-1.527,0.099
			C136.694,79.382,136.339,79.432,135.981,79.493z"/>
		<path fill="#91D4E7" d="M50.684,98.415c0.985-0.678,1.76-1.761,1.514-3.054c-1.071-0.455-4.283,0.443-3.902-1.588
			c0.049-0.294,0.505-0.665,0.64-0.985c0.234-0.566,0.344-1.292,0.48-1.858c0.011-0.025,0.011-0.062,0.024-0.086
			c0.369,0.135,0.75,0.283,1.157,0.504c1.047,0.567,2.19,1.539,3.25,2.229c0.418,0.271,1.612,1.206,2.757,1.847
			c-0.062,0.036-0.124,0.084-0.185,0.134c-0.936,0.813-0.53,2.241-1.638,2.857c-0.8,0.442-1.797,0.307-2.585,0.726
			c-0.824,0.431-1.207,1.268-1.747,2.018c-0.838,1.169-1.724,2.339-2.339,3.62c-0.788-0.186-1.514-0.566-2.413-1.23
			c-1.563-1.172-3.065-1.921-4.309-3.424c-1.847-2.252-4.653-3.52-6.144-5.958l-0.172-0.061c0.418-1.169,0.862-2.352,1.329-3.545
			l0.087,0.024c0.677-2.351,1.464-4.604,2.364-6.771c1.255,1.145,3.655,0.283,4.025,1.994c0.197,0.874,0.185,2.499,0,3.385
			c-0.11,0.579-0.529,1.009-0.48,1.502c0.024,0.283,0.381,0.763,0.505,1.034c0.874,0.185,1.772-0.419,2.732-0.37
			c1.121,1.749-0.566,4.163,0.96,5.835c0.948,1.034,1.268,0.727,2.438,0.432c1.182-0.295,1.034,0.294,1.625,0.825L50.684,98.415z"/>
		<path fill="#91D4E7" d="M113.54,63.354c-0.086-0.037-0.172-0.012-0.271-0.037c-0.098-0.418-0.381-0.665-0.824-0.579
			c-0.332,0.825-0.232,1.847-0.43,2.746c-0.148,0.714,0,1.982,1.07,1.182l-0.037-0.049C113.331,65.645,114.253,64.253,113.54,63.354
			z M114.464,62.949c1.365,1.096,0.381,3.496,0.652,5.083c0.158,0.013,0.318,0.025,0.492,0.025c0.023,0.013,0.061,0.013,0.088,0.013
			c0.021,0,0.035,0,0.061,0c1.07-0.013,1.562-2.118,2.918-2.191c0.035-0.665,0.318-1.478-0.062-2.056
			c-0.271-0.431-1.256-0.75-1.662-1.009c-0.506-0.321-0.973-0.727-1.441-1.219c-0.258-0.283-0.689-0.923-1.121-1.206
			c0.775-0.542,1.602-1.01,2.475-1.404c0.211,0.431,0.42,0.874,0.703,1.28c0.467,0.678,1.082,1.195,1.516,1.97
			c0.701,1.231,1.783,3.632,0.639,4.912c-0.639,0.714-2.99,1.243-3.053,2.462c-0.049,0.799,0.875,0.935,1.402,1.218
			c0.1,0.049,0.211,0.123,0.309,0.222c-0.123,0.05-0.246,0.099-0.369,0.135c-0.752,0.259-1.564,0.542-2.352,0.862
			c-0.715-0.161-1.379-0.247-1.811-0.025c-0.615,0.32-0.65,0.702-0.479,1.058c-0.211,0.111-0.408,0.222-0.604,0.333
			c-3.053,1.723-5.639,5.183-9.047,6.278l-0.26-0.048c0.332-1.761,0.688-3.534,0.996-5.331c0.518-2.905,1.158-5.749,1.91-8.568
			l0.43,0.11c1.662-1.92,4.445-2.831,6.316-4.48c0.012-0.012,0.035-0.025,0.047-0.037c-0.035,0.197-0.047,0.394-0.012,0.566
			C113.331,62.715,113.86,62.481,114.464,62.949z"/>
		<path fill="#28BF22" d="M153.056,129.485c-0.012,0.023-0.012,0.035-0.037,0.061c-0.418,0.738-1.205,0.875-1.908,1.391
			c-1.121,0.824-1.797,1.848-2.498,2.979c-0.529,0.85-1.256,1.232-1.996,1.859c-0.652,0.555-0.996,1.502-1.66,2.057
			c-0.16,0.146-0.369,0.271-0.578,0.383c-0.729,0.121-1.453,0.232-2.193,0.27c-2.461,0.109-5.66,0.418-8.049-0.16
			c-0.986-0.234-4.174-0.689-6.734-1.479c-0.025-0.922-0.062-1.846,0.344-2.596c0.383-0.715,1.135-1.146,1.49-1.885
			c0.443-0.91,0.568-1.822,1.156-2.682c0.543-0.789,0.912-1.527,1.146-2.439c0.111-0.492,0.197-0.996,0.209-1.5
			c3.238,0.773,6.463,1.5,10.043,1.5c3.854,0,7.461,0.271,11.303,0.297c0.184,0.406,0.283,0.836,0.195,1.303
			C153.216,129.067,153.144,129.274,153.056,129.485z"/>
		<path fill="#91D4E7" d="M59.56,162.905c-5.108-2.684-9.786-6.018-13.812-9.994l0.111-0.123c0.295,0.184,0.615,0.307,0.959,0.357
			c2.967-3.24,9.024-6.305,13.123-7.818c0.382-0.135,0.751-0.271,1.133-0.393c0.197,1.342,0.739,3.297,1.477,4.395
			c0.456,0.664,0.948,1.365,1.342,2.041c0.247,0.445,0.37,0.604,0.714,0.926c0.357,0.318,0.898,0.479,0.96,0.984
			c0.862,0.65,1.427,1.602,2.449,2.141c0.197,0.111,0.468,0.186,0.789,0.223c-0.185,0.16-0.382,0.307-0.566,0.469
			c-1.046,0.848-2.13,1.697-3.238,2.289c-2.154,1.133-3.89,2.129-5.293,4.234L59.56,162.905z"/>
		<path fill="#28BF22" d="M157.671,101.799c-1.525,0.64-2.844-1.01-3.385-2.253c-0.406-0.946-0.307-1.858-0.836-2.745
			c-0.492-0.8-0.912-1.55-1.244-2.462c-0.48-1.341-1.059-2.658-1.945-3.656c0.443,0.025,0.887,0.087,1.305,0.197
			c1.688,0.467,2.941,1.822,4.617,2.351l0.455-0.098c0.59,2.758,1.023,5.637,1.305,8.641L157.671,101.799z"/>
		<path fill="#28BF22" d="M85.362,56.252c-0.407-0.333-0.911-0.591-1.317-0.85c-0.764-0.455-1.354-0.209-2.179-0.505
			c-0.381-0.135-0.603-0.369-0.738-0.702c0.899-0.911,3.422-1.243,4.333-0.283c0.148,0.161,0.271,0.382,0.37,0.628
			C85.658,55.107,85.509,55.673,85.362,56.252z"/>
		<path fill="#91D4E7" d="M129.987,78.705c1.365,0.074,2.424-0.184,2.424-1.317l0.184-0.011c0.285-0.074,0.826-0.53,1.578-1.293
			c0.023,0.283,0.049,0.579,0.135,0.874c0.271,0.923,1.021,1.785,1.674,2.536c-1.799,0.283-3.348,0.874-5.021,1.391
			c-0.541-0.8-1.061-1.822-2.008-1.957c-1.293-0.197-2.732-0.148-4.002,0.098c-1.477,0.295-3.064,0.591-4.615,0.517
			c-1.182-0.062-2.66-0.566-3.779-0.394c-1.096,1.612-2.953,2.757-3.742,4.628c-0.295,0.714-0.221,1.366-0.602,1.994l-0.014,0.013
			c-0.309,0.172-0.615,0.356-0.91,0.542c-1.344,0.85-2.818,1.108-4.223,1.823c-1.059,0.542-3.471,3.188-4.58,2.622h-0.309
			c0-0.099,0-0.197,0-0.296c0-3.767,0.592-7.288,1.281-10.832l0.26,0.048c3.408-1.095,5.994-4.555,9.047-6.278
			c0.195-0.111,0.393-0.222,0.604-0.333c0.111,0.259,0.32,0.505,0.479,0.714c0.729,0.899,1.135,1.858,1.27,3.065
			c0.664-0.025,0.91,0.32,1.428,0.48c0.516,0.148,1.045,0.085,1.637,0.148c1.035,0.11,1.697,0.91,2.77,0.825
			c1.404-0.111,1.785-1.33,2.033-2.572c0.307-1.625-0.938-1.071-1.281-2.253c1.119-0.074,2.178-0.308,3.348-0.308
			c1.588,0,2.242,0.505,3.496,1.329c0.775,0.518,1.637,0.899,2.117,1.749C131.476,77.684,129.864,77.573,129.987,78.705z"/>
		<path fill="#28BF22" d="M190.294,147.358c0.098,1.674,0.012,3.385,0,5.072c-2.857-1.096-3.275-1.836-5.467-4.174
			c-0.848-0.91-1.711-1.98-2.436-3.09l0.109-0.072c1.697,0,2.523-0.186,4-0.887c0.703-0.346,1.418-0.543,1.996-1.01
			c0.48-0.371,0.713-0.863,1.23-1.107c0.16,0.135,0.307,0.244,0.443,0.344l-0.074,0.098
			C190.565,143.813,190.231,145.979,190.294,147.358z"/>
		<path fill="#91D4E7" d="M189.728,142.091c-0.518,0.244-0.75,0.736-1.23,1.107c-0.578,0.467-1.293,0.664-1.996,1.01
			c-1.477,0.701-2.303,0.887-4,0.887l-0.109,0.072c-0.125-0.172-0.236-0.344-0.346-0.518c-1.354-2.141-3.102-4.172-4.738-6.166
			c-0.764-0.924-1.467-1.883-2.156-2.869l0.271-0.209c0-3.139-0.775-6.008-1.047-9.084c-0.16-1.908-0.873-3.484-1.648-5.049
			c1.205,1.502,2.486,2.943,3.311,4.74C177.331,128.843,186.034,139.001,189.728,142.091z"/>
		<path fill="#28BF22" d="M175.423,135.405l-0.271,0.209c-2.152-3.027-4.086-6.217-6.488-9.047c-0.578-2.721-0.861-5.49-1.352-8.273
			c-0.186-1.047-0.863-3.225-1.908-4.838c2.484,1.848,4.887,4.174,5.551,5.307c0.518,0.898,1.145,1.711,1.773,2.51
			c0.775,1.564,1.488,3.141,1.648,5.049C174.647,129.397,175.423,132.267,175.423,135.405z"/>
		<path fill="#28BF22" d="M157.931,105.702c0.023,0,0.049,0,0.074,0l0.209-0.014c0.037,0.59,0.049,1.195,0.062,1.799
			c-0.088,0.873-0.197,1.748-0.309,2.598l-0.555-0.074c-0.271-0.445-1.637-0.555-2.303-0.924c-0.812-0.457-1.291-1.256-2.031-1.736
			c-0.898-0.578-2.055-0.727-3.053-0.996c-2.131-0.58-4.383-0.852-6.598-0.961c-3.963-0.197-7.768-0.936-11.744-0.186
			c-3.668,0.691-7.164,1.158-10.758,2.219c-0.172,0-0.334,0-0.506,0.021c-0.887,0.074-2.277,0.346-3.164,0.1
			c-0.688-0.186-1.156-0.873-1.551-1.416c-0.961,0.111-1.34-1.354-1.809-1.981c-0.529-0.714-1.391-1.674-2.082-2.215
			c-0.947-0.764-1.883-1.294-2.584-2.167c-0.234-0.296-0.727-0.652-0.898-0.96c-0.098-0.185-0.148-0.382-0.172-0.58
			c2.105-1.194,4.037-2.706,6.18-3.68c4.197-1.919,8.1-4.309,12.764-4.542c3.498-0.173,6.881-0.726,10.465-0.615
			c2.104,0.061,4.197,0.172,6.277,0.467c1.035,0.136,2.031,0.37,3.078,0.616c0.355,0.086,0.729,0.123,1.084,0.147
			c0.971,1.035,1.49,2.253,1.994,3.583c0.455,1.206,1.256,1.858,2.055,2.757c0.357,0.394,0.801,0.949,1.01,1.454
			c0.295,0.726,0.543,1.292,0.838,1.956c0.639,1.478,0.838,3.103,0.908,4.691C155.925,105.517,156.847,105.688,157.931,105.702z"/>
		<path fill="#91D4E7" d="M158.214,105.688l-0.209,0.014c-0.025,0-0.051,0-0.074,0c-1.084-0.014-2.006-0.186-3.117-0.641
			c-0.07-1.588-0.27-3.213-0.908-4.691c-0.295-0.665-0.543-1.23-0.838-1.956c-0.209-0.505-0.652-1.06-1.01-1.454
			c-0.799-0.898-1.6-1.551-2.055-2.757c-0.504-1.33-1.023-2.548-1.994-3.583c0.75,0.05,1.514,0.025,2.252,0.062
			c0.887,0.998,1.465,2.314,1.945,3.656c0.332,0.912,0.752,1.662,1.244,2.462c0.529,0.887,0.43,1.799,0.836,2.745
			c0.541,1.243,1.859,2.893,3.385,2.253l0.271-0.025C158.065,103.056,158.151,104.36,158.214,105.688z"/>
		<path fill="#28BF22" d="M157.968,110.085c-0.037,0.232-0.062,0.453-0.1,0.689c-0.258,1.82-0.564,3.594-0.922,5.33
			c-8.605,1.588-16.891,1.674-24.756,0.627c0.123-0.369,0.246-0.727,0.383-1.084c0.33-0.885,1.266-1.76,1.391-2.572
			c0.158-1.207-0.986-2.143-1.861-2.637c-1.711-0.945-3.494-0.908-5.416-1.463c-1.934-0.555-3.682-1.588-5.76-1.549
			c3.594-1.061,7.09-1.527,10.758-2.219c3.977-0.75,7.781-0.012,11.744,0.186c2.215,0.109,4.467,0.381,6.598,0.961
			c0.998,0.27,2.154,0.418,3.053,0.996c0.74,0.48,1.219,1.279,2.031,1.736c0.666,0.369,2.031,0.479,2.303,0.924L157.968,110.085z"/>
		<path fill="#28BF22" d="M156.638,93.133l-0.455,0.098c-1.676-0.528-2.93-1.883-4.617-2.351c-0.418-0.11-0.861-0.172-1.305-0.197
			c-0.369-0.43-0.799-0.799-1.305-1.083c-0.492-0.295-1.045-0.972-1.639-0.923c-1.512,0.099-0.061,1.207,0.385,1.637
			c0.109,0.098,0.209,0.197,0.307,0.308c-0.355-0.024-0.729-0.061-1.084-0.147c-1.047-0.246-2.043-0.48-3.078-0.616
			c-2.08-0.295-4.174-0.406-6.277-0.467c-3.584-0.111-6.967,0.442-10.465,0.615c-4.664,0.233-8.566,2.623-12.764,4.542
			c-2.143,0.974-4.074,2.486-6.18,3.68c-0.037-0.271-0.049-0.552-0.137-0.836h-0.109c-0.051-0.825,0.072-1.796,0.283-2.548
			c0.244-0.861,0.824-1.169,1.082-2.056c0.283-0.935,0.086-2.105,0.615-2.966c0.58-0.936,1.035-1.219,1.33-2.388
			c0.234-0.936,0.529-0.936,0.973-1.65l0.014-0.013c5.084-2.794,11.521-3.04,17.049-4.406c0.59-0.148,1.158-0.309,1.699-0.481
			c0.086,0.136,0.17,0.271,0.27,0.382c0.258-0.05,0.615,0.086,0.887,0.037c0.553,0.935,1.416,2.338,2.756,1.612
			c0.9-0.493,0.309-1.021,1.441-0.48c0.32,0.16,0.615,0.554,0.924,0.727c0.727,0.406,1.514,0.247,2.156,0.714
			c0.527,0.393,0.859,1.181,1.549,1.514c1.465,0.702,4.814,1.268,5.748-0.418c0.85-1.514-2.229-1.674-3.053-2.376
			c-0.627-0.529-0.441-1.625-1.453-1.723c-0.848-0.074-1.119,0.812-2.043,0.603c0.037-1.391,1.133-1.711,0.529-2.265
			c1.119,0,2.24,0.025,3.361,0.025c2.77,0,6.057,0.407,8.617,1.391l0.037-0.012C154.36,84.467,155.69,88.639,156.638,93.133z"/>
		<path fill="#28BF22" d="M156.292,119.021c-0.281,0.947-1.479,1.541-2.129,2.143c-1.107,1.01-2.4,1.465-2.438,3.201
			c-0.023,1.242,0.912,2.166,1.367,3.176c-3.842-0.025-7.449-0.297-11.303-0.297c-3.58,0-6.805-0.727-10.043-1.5
			c0.012-0.604-0.062-1.209-0.26-1.773c-0.32-0.947-0.973-1.725-0.898-2.881c0.051-0.764,0.506-1.354,0.789-2.055
			c0.32-0.74,0.555-1.527,0.812-2.303c7.865,1.047,16.15,0.961,24.756-0.627c-0.186,0.984-0.406,1.957-0.641,2.916H156.292z"/>
		<path fill="#91D4E7" d="M151.11,130.937c0.703-0.516,1.49-0.652,1.908-1.391c-1.121,2.893-2.414,5.627-3.828,8.199l-0.074-0.037
			c-1.588-0.148-3.164,0.221-4.738,0.506c0.209-0.111,0.418-0.236,0.578-0.383c0.664-0.555,1.008-1.502,1.66-2.057
			c0.74-0.627,1.467-1.01,1.996-1.859C149.313,132.784,149.989,131.761,151.11,130.937z"/>
		<path fill="#28BF22" d="M144.378,138.214c-0.188,0.096-0.357,0.195-0.494,0.281c-0.467,0.309-0.688,0.727-1.084,1.035
			c-0.404,0.332-0.873,0.393-1.254,0.738c-0.334,0.309-0.555,0.727-0.9,1.033c-1.609,1.354-3.691,2.105-5.158,3.57
			c-1.291,1.279-2.645,2.105-4.48,2.684c-0.996,0.309-2.006,0.85-3.016,1.145c-1.305-0.26-2.633-0.664-3.863-1.059
			c0.146-0.922,1.463-2.043,1.795-2.586c0.42-0.701,0.617-1.709,0.852-2.449c0.529-1.662,0.639-3.338,0.639-5.096
			c0-0.221,0-0.443-0.012-0.666c2.561,0.789,5.748,1.244,6.734,1.479c2.389,0.578,5.588,0.27,8.049,0.16
			C142.925,138.446,143.649,138.335,144.378,138.214z"/>
		<path fill="#28BF22" d="M143.171,65.447c-0.332,0.407-0.641,0.801-0.947,1.182c-2.6,0.024-5.111,0.161-7.547,0.776
			c-1.811,0.455-3.67,0-5.502,0.283c-1.699,0.258-3.965,0.75-5.602,1.268c-1.811,0.579-3.434,1.465-5.195,2.093
			c-0.098-0.099-0.209-0.172-0.309-0.222c-0.527-0.284-1.451-0.419-1.402-1.218c0.062-1.219,2.414-1.749,3.053-2.462
			c1.145-1.28,0.062-3.681-0.639-4.912c-0.434-0.775-1.049-1.292-1.516-1.97c-0.283-0.406-0.492-0.849-0.703-1.28
			c0.926-0.43,1.885-0.763,2.857-1.021c2.684-0.715,5.416-1.219,8.211-1.354c2.105-0.112,4.049,0.356,6.082,0.443
			C137.323,59.464,140.399,62.272,143.171,65.447z"/>
		<path fill="#28BF22" d="M142.224,66.629c-1.996,2.475-3.842,4.727-5.393,6.524c-0.555,0.197-0.727,0.456-0.641,0.739
			c-0.775,0.874-1.451,1.625-2.018,2.191c-0.051-1.182,0.197-2.339-1.023-3.09c-0.861-0.53-2.695-0.48-3.668-0.209
			c0.123,1.551,2.24,2.216,2.721,3.607c0.135,0.394,0.209,0.726,0.209,0.997c0,1.133-1.059,1.391-2.424,1.317
			c-0.123-1.132,1.488-1.021,0.676-2.449c-0.48-0.85-1.342-1.231-2.117-1.749c-1.254-0.824-1.908-1.329-3.496-1.329
			c-1.17,0-2.229,0.234-3.348,0.308c0.344,1.182,1.588,0.628,1.281,2.253c-0.248,1.242-0.629,2.461-2.033,2.572
			c-1.072,0.085-1.734-0.715-2.77-0.825c-0.592-0.062-1.121,0-1.637-0.148c-0.518-0.16-0.764-0.505-1.428-0.48
			c-0.135-1.207-0.541-2.167-1.27-3.065c-0.158-0.209-0.367-0.455-0.479-0.714c0.713-0.369,1.502-0.714,2.289-1.033
			c1.49,0.319,3.262,0.948,3.951-0.185c-0.455-0.049-0.85-0.505-1.23-0.812c1.762-0.628,3.385-1.514,5.195-2.093
			c1.637-0.517,3.902-1.009,5.602-1.268c1.832-0.283,3.691,0.172,5.502-0.283C137.112,66.79,139.624,66.653,142.224,66.629z"/>
		<path fill="#91D4E7" d="M133.149,72.994c1.221,0.75,0.973,1.908,1.023,3.09c-0.752,0.763-1.293,1.219-1.578,1.293l-0.184,0.011
			c0-0.271-0.074-0.603-0.209-0.997c-0.48-1.391-2.598-2.056-2.721-3.607C130.454,72.514,132.288,72.464,133.149,72.994z"/>
		<path fill="#91D4E7" d="M132.103,110.438c0.875,0.494,2.02,1.43,1.861,2.637c-0.125,0.812-1.061,1.688-1.391,2.572
			c-0.137,0.357-0.26,0.715-0.383,1.084c-6.514-0.838-12.74-2.451-18.639-4.605l0.16-0.43c2.18-1.982,3.891-3.25,6.783-4.148
			c0.148-0.049,0.283-0.086,0.432-0.121c2.078-0.039,3.826,0.994,5.76,1.549C128.608,109.53,130.392,109.493,132.103,110.438z"/>
		<path fill="#28BF22" d="M128.952,78.927c0.947,0.135,1.467,1.157,2.008,1.957c-0.541,0.172-1.109,0.333-1.699,0.481
			c-5.527,1.366-11.965,1.612-17.049,4.406c0.381-0.628,0.307-1.28,0.602-1.994c0.789-1.871,2.646-3.016,3.742-4.628
			c1.119-0.173,2.598,0.332,3.779,0.394c1.551,0.074,3.139-0.222,4.615-0.517C126.22,78.779,127.659,78.73,128.952,78.927z"/>
		<path fill="#C8F4C6" d="M134.013,57.052c-2.033-0.086-3.977-0.555-6.082-0.443c-2.795,0.135-5.527,0.639-8.211,1.354
			c-0.973,0.258-1.932,0.591-2.857,1.021c-0.232-0.467-0.455-0.947-0.762-1.391c-0.652-0.96-0.861-2.253-1.404-3.286
			c-0.43-0.8-1.268-1.292-1.439-2.155c-0.209-1.009,0.318-2.043,0.098-3.077c-0.049-0.247-0.123-0.468-0.197-0.653
			c0.383-0.381,0.826-0.677,1.33-0.738C121.468,49.604,128.116,52.719,134.013,57.052z"/>
		<path fill="#91D4E7" d="M116.358,156.085c5.873,0.48,11.93,0.395,18.121-0.393c-4.566,3.828-9.564,6.869-14.834,9.197
			c-0.393-0.371-0.801-1-1.133-1.355c-0.43-1.021-1.096-1.908-1.613-2.855c-0.627-1.184-0.566-2.918-0.566-4.297L116.358,156.085z"
			/>
		<path fill="#91D4E7" d="M120.927,107.427c-0.148,0.035-0.283,0.072-0.432,0.121c-2.893,0.898-4.604,2.166-6.783,4.148l-0.16,0.43
			c-3.064-1.119-6.045-2.375-8.924-3.766l0.012-0.037c0.023-0.209-0.037-0.381-0.186-0.518c-0.787-1.451-1.305-3.027-1.648-4.689
			c1.256-1.661,3.41-3.816,5.182-4.789c0.061-0.037,0.111-0.062,0.174-0.1c0.023,0.197,0.074,0.395,0.172,0.58
			c0.172,0.308,0.664,0.665,0.898,0.96c0.701,0.873,1.637,1.404,2.584,2.167c0.691,0.541,1.553,1.501,2.082,2.215
			c0.469,0.628,0.848,2.093,1.809,1.981c0.395,0.543,0.863,1.23,1.551,1.416c0.887,0.246,2.277-0.025,3.164-0.1
			C120.593,107.427,120.755,107.427,120.927,107.427z"/>
		<path fill="#91D4E7" d="M118.513,163.534c0.332,0.355,0.74,0.984,1.133,1.355c-0.75,0.33-1.514,0.65-2.277,0.945l-0.012-0.023
			c-0.309-1.516-3.719-1.17-4.924-1.021c-0.826,0.1-1.379,0.555-2.094,0.812c-0.615-0.961-1.131-2.082-1.539-3.115
			c-0.799-2.055-2.721-5.355-1.66-7.605c3.016,0.553,6.092,0.959,9.219,1.203l-0.025,0.297c0,1.379-0.061,3.113,0.566,4.297
			C117.417,161.626,118.083,162.513,118.513,163.534z"/>
		<path fill="#91D4E7" d="M116.101,57.593c0.307,0.444,0.529,0.924,0.762,1.391c-0.873,0.394-1.699,0.862-2.475,1.404
			c-0.135-0.099-0.258-0.148-0.393-0.148c-0.381-0.013-0.738,0.554-0.838,1.096c-0.012,0.012-0.035,0.025-0.047,0.037
			c-1.871,1.649-4.654,2.561-6.316,4.48l-0.43-0.11c0.836-3.164,1.809-6.291,2.854-9.442c0.74-2.191,1.65-4.321,2.809-6.315
			c0.295-0.505,0.676-1.108,1.131-1.563c0.074,0.185,0.148,0.406,0.197,0.653c0.221,1.034-0.307,2.068-0.098,3.077
			c0.172,0.862,1.01,1.354,1.439,2.155C115.239,55.34,115.448,56.633,116.101,57.593z"/>
		<path fill="#91D4E7" d="M107.915,97.392h0.109c0.088,0.284,0.1,0.566,0.137,0.836c-0.062,0.038-0.113,0.063-0.174,0.1
			c-1.771,0.973-3.926,3.127-5.182,4.789c-0.838-3.989-0.641-8.408-0.629-12.347h0.309c1.109,0.566,3.521-2.08,4.58-2.622
			c1.404-0.714,2.879-0.973,4.223-1.823c0.295-0.185,0.602-0.369,0.91-0.542c-0.443,0.714-0.738,0.714-0.973,1.65
			c-0.295,1.169-0.75,1.452-1.33,2.388c-0.529,0.861-0.332,2.031-0.615,2.966c-0.258,0.887-0.838,1.195-1.082,2.056
			C107.987,95.595,107.864,96.567,107.915,97.392z"/>
		<path fill="#C8F4C6" d="M112.026,167.56l0.037,0.121c-2.611,0.789-5.256,1.418-7.928,1.885c-1.047-0.381-2.967-2.535-4.508-4.518
			c0.161,0.025,0.333,0.039,0.493,0.049c2.315,0.211,4.704-0.455,6.979,0c0.938,0.197,1.836,0.863,2.895,0.615
			c0.123-0.023,0.232-0.061,0.344-0.109C110.843,166.415,111.423,167.116,112.026,167.56z"/>
		<path fill="#91D4E7" d="M108.8,162.487c0.408,1.033,0.924,2.154,1.539,3.115c-0.111,0.049-0.221,0.086-0.344,0.109
			c-1.059,0.248-1.957-0.418-2.895-0.615c-2.275-0.455-4.664,0.211-6.979,0c-0.16-0.01-0.332-0.023-0.493-0.049
			c-0.934-1.205-1.71-2.352-2.078-3.004c-1.885-3.41-1.343-6.646-2.439-10.131c3.891,1.205,7.902,2.215,12.029,2.969
			C106.079,157.132,108.001,160.433,108.8,162.487z"/>
		<path d="M107.694,121.755c0.836,0,1.514,0.676,1.514,1.514s-0.678,1.514-1.514,1.514c-0.84,0-1.516-0.676-1.516-1.514
			S106.854,121.755,107.694,121.755z"/>
		<path fill="#C8F4C6" d="M99.628,165.048c1.541,1.982,3.461,4.137,4.508,4.518c-3.535,0.627-7.104,0.973-10.662,1.047
			c-1.932-0.652-3.914-3.68-5.588-7.25c1.588,0.564,2.794,1.033,4.555,1.119C94.828,164.581,97.253,164.825,99.628,165.048z"/>
		<path fill="#C8F4C6" d="M100.331,45.542c0.061,1.219-0.812,2.044-1.415,3.066c-1.011,1.71-1.503,3.668-1.995,5.54
			c-0.357,1.317-0.651,2.634-0.924,3.963c-0.947,0.985-2.338,1.958-2.855,0.394c-0.209-0.639,0.123-1.637,0.64-2.129
			c0.455-0.431,1.588-0.493,1.44-1.268c-0.148-0.788-1.269-0.591-1.687-1.292c-0.333-0.529-0.382-1.612-0.284-2.277
			c0.258-1.859,3.471-3.053,2.93-5.01c-0.172-0.615-0.493-0.96-1.133-0.96v-0.148c1.761-0.061,3.52-0.049,5.281,0.037V45.542z"/>
		<path fill="#91D4E7" d="M97.55,162.044c0.368,0.652,1.145,1.799,2.078,3.004c-2.375-0.223-4.8-0.467-7.188-0.566
			c-1.761-0.086-2.967-0.555-4.555-1.119c-2.388-5.098-4.137-11.289-4.173-13.346L83.7,149.87c1.108-0.111,2.24-0.16,3.397-0.16
			l0.209-0.555c2.536,1.012,5.146,1.934,7.804,2.758C96.207,155.397,95.665,158.634,97.55,162.044z"/>
		<path fill="#C8F4C6" d="M93.474,170.612c-3.692,0.098-7.373-0.098-10.992-0.578v-0.012c-1.354-2.635-2.646-5.281-3.705-8.176
			c1.12,0.531,2.302,1.133,3.373,0.861c1.083-0.27,1.834-0.748,3.114-0.381c0.727,0.209,1.563,0.666,2.352,0.936
			c0.099,0.037,0.185,0.061,0.271,0.1C89.56,166.933,91.542,169.96,93.474,170.612z"/>
		<path fill="#28BF22" d="M89.843,50.121c0.899,0.641,1.527,0.764,1.255,2.229c-0.209,1.157-0.984,1.427-1.846,2.154
			c-0.739,0.616-1.331,1.772-2.573,1.243c-0.419-0.184-0.616-0.726-0.85-1.206c0.356-1.145,0.762-2.229,1.268-3.188
			c0.344-0.677,0.886-1.367,1.464-2.068C89.018,49.556,89.449,49.838,89.843,50.121z"/>
		<path fill="#C8F4C6" d="M90.864,45.69c-0.332,1.206-1.354,2.413-2.302,3.595c-1.083-0.628-2.302-1.145-3.508-1.158
			c-0.234-1.034,1.207-1.342,1.822-1.92l0.013-0.012C88.206,45.985,89.535,45.825,90.864,45.69z"/>
		<path fill="#28BF22" d="M76.831,130.827c-1.293,0.959-2.351,1.488-2.351,3.287c0,0.736,0.308,2.289-0.012,2.953
			c-0.222,0.443-1.317,0.936-1.711,1.168c-0.628,0.371-2.044,1.859-3.028,2.314c-4.396-2.572-8.482-5.305-12.236-8.049
			c-0.123-1.084,0.123-2.229-0.247-3.275c-0.32-0.898-0.775-1.736-1.046-2.572c-0.48-1.441-1.157-3.102-2.105-4.334
			c-0.615-0.799-0.997-1.637-1.391-2.486c-0.333-0.75-0.8-1.195-1.207-1.934c-0.443-0.773-0.345-1.795-0.64-2.658
			c-0.271-0.801-0.739-1.082-1.206-1.723c-1.453-1.971-2.833-4.48-2.155-7.104c0.148-0.566,0.357-1.109,0.616-1.637
			c0.615-1.281,1.501-2.451,2.339-3.62c0.541-0.75,0.923-1.587,1.747-2.018c0.788-0.418,1.786-0.283,2.585-0.726
			c1.108-0.616,0.702-2.044,1.638-2.857c0.061-0.049,0.123-0.098,0.185-0.134c1.625-1.244,4.96-1.613,5.995,0.405
			c0.849,0.21,1.476,0.787,2.424,0.75c0.087,0.493,0.997,0.812,1.453,1.047c0.443,0.232,1.17,0.788,1.625,0.91
			c0.037,0.678-0.308,2.291,0.714,2.252c0.665,1.527,2.561,1.455,3.583,2.574c0.27,0.295,0.344,0.824,0.64,1.146
			c0.185,0.21,0.652,0.394,0.8,0.591c0.407,0.564,0.443,1.342,0.936,1.957c0.468,0.578,1.12,1.193,1.76,1.611
			c2.966,2.02,7.361,1.465,10.858,1.662c0.283,0.678,0.824,1.367,1.168,2.006c0.764,1.43,1.527,2.979,0.665,4.617
			c-0.764,1.453-2.338,1.391-3.569,1.982c-1.588,0.764-1.563,3.361-1.921,4.936c-0.247,1.033-0.135,1.91-0.997,2.646
			c-0.591,0.518-1.367,0.654-2.081,0.85c-1.132,0.309-1.489,0.752-2.154,1.822c-0.493,0.787-0.862,1.035-1.563,1.562
			C76.905,130.776,76.868,130.813,76.831,130.827z M71.058,108.495c0-0.838-0.689-1.514-1.527-1.514
			c-0.837,0-1.514,0.676-1.514,1.514s0.677,1.516,1.514,1.516C70.368,110.011,71.058,109.333,71.058,108.495z"/>
		<path fill="#91D4E7" d="M87.885,163.362c-0.086-0.039-0.172-0.062-0.271-0.1c-0.788-0.27-1.625-0.727-2.352-0.936
			c-1.28-0.367-2.031,0.111-3.114,0.381c-1.071,0.271-2.253-0.33-3.373-0.861c-0.123-0.344-0.247-0.701-0.37-1.057
			c-0.923-2.721-2.646-5.146-3.312-8.002l-0.283-0.666c2.844-1.182,5.773-1.934,8.888-2.252l0.012,0.146
			C83.749,152.073,85.498,158.265,87.885,163.362z"/>
		<path fill="#8BC4D0" d="M68.202,143.739c0.172-0.246,0.37-0.469,0.615-0.615c0.222-0.762-0.11-1.811,0.345-2.426
			c0.16,0.014,0.357-0.035,0.566-0.148c5.428,3.189,11.313,6.145,17.578,8.605l-0.209,0.555c-1.157,0-2.289,0.049-3.397,0.16
			c-3.115,0.318-6.044,1.07-8.888,2.252c-1.083,0.455-2.142,0.961-3.188,1.551c-0.013-0.518-0.148-1.045-0.357-1.377
			c-0.591-0.961-1.415-1.035-1.797-1.994c-0.382-0.973-0.431-1.945-1.33-2.674c-0.947-0.787-1.365-1.094-1.341-2.424
			C67.5,144.97,67.808,144.294,68.202,143.739z"/>
		<path fill="#91D4E7" d="M84.414,60.843C84.34,61.25,84.279,61.632,84.205,62c-0.726,3.964-1.33,8.039-1.723,12.002
			c-0.407,4.1-0.579,8.298-0.468,12.434c0.074,2.548-1.256,5.921,0.468,7.952c-4.235-3.335-8.063-6.782-11.424-10.13
			c-1.206-2.954-0.419-7.485-0.271-10.574c0.148-3.004,0.431-5.921,0.911-8.863c0.024-0.148,0.049-0.308,0.087-0.456
			c0.172-0.073,0.344-0.147,0.528-0.209c0.812-0.271,2.869-0.59,3.706-0.308c1.157,0.382,1.268,2.032,2.548,0.825
			c0.604-0.579,1.847-1.785,1.441-2.745c-0.469-1.096-2.414-0.8-3.25-0.418c-0.8,0.369-1.772,0.8-2.683,0.775
			c0.726-1.305,2.548-1.834,4-1.723c1.761,0.147,3.435,1.698,5.331,0.898C83.737,61.324,84.081,61.102,84.414,60.843z"/>
		<path fill="#C8F4C6" d="M82.481,170.022v0.012c-3.163-0.408-6.278-1.023-9.319-1.848c-0.493-1.797-0.911-3.594-1.305-5.453
			c0.751-0.221,0.492-0.689,0.788-1.734c1.601-0.051,3.225-0.074,4.703,0.295c0.456,0.111,0.935,0.32,1.428,0.553
			C79.835,164.741,81.127,167.388,82.481,170.022z"/>
		<path fill="#91D4E7" d="M78.407,160.79c0.123,0.355,0.247,0.713,0.37,1.057c-0.493-0.232-0.973-0.441-1.428-0.553
			c-1.478-0.369-3.102-0.346-4.703-0.295c-0.295,1.045-0.037,1.514-0.788,1.734c-0.049-0.234-0.099-0.48-0.148-0.713
			c-0.467-2.266-2.24-3.607-3.25-5.639l-0.221-0.27c0.184-0.162,0.382-0.309,0.566-0.469c0.799,0.135,1.833,0.061,2.289-0.334
			c0.382-0.318,0.542-0.982,0.53-1.637c1.046-0.59,2.105-1.096,3.188-1.551l0.283,0.666C75.76,155.644,77.483,158.069,78.407,160.79
			z"/>
		<path fill="#28BF22" d="M71.796,50.479c2.339-0.985,4.728-1.822,7.152-2.524c-2.203,1.711-3.656,4.85-4.518,7.521
			c-0.96,2.917-2.105,5.897-2.646,8.888c-0.948,0.443-1.663,1.121-2.315,1.97c-1.047,1.391-1.268,3.534-2.351,5.084
			c-0.567,0.788-1.342,1.416-2.13,1.945c-0.812,0.542-1.797,0.628-2.634,1.132c-0.037,0.025-0.074,0.049-0.111,0.074
			c-5.748-7.054-8.567-12.347-7.792-13.086l-0.012-0.012C59.633,56.781,65.53,53.125,71.796,50.479z"/>
		<path fill="#C8F4C6" d="M71.858,162.733c0.394,1.859,0.812,3.656,1.305,5.453c-2.832-0.764-5.601-1.697-8.272-2.807
			c0.813-0.258,0.75-1.328,1.305-1.908c0.714-0.75,1.576-0.639,2.536-0.639c0.836,0,1.736,0.098,2.572,0
			C71.538,162.808,71.71,162.782,71.858,162.733z"/>
		<path fill="#91D4E7" d="M71.71,162.021c0.049,0.232,0.099,0.479,0.148,0.713c-0.148,0.049-0.32,0.074-0.555,0.1
			c-0.836,0.098-1.736,0-2.572,0c-0.96,0-1.822-0.111-2.536,0.639c-0.554,0.58-0.492,1.65-1.305,1.908
			c-1.822-0.738-3.607-1.574-5.331-2.475l0.148-0.27c1.404-2.105,3.139-3.102,5.293-4.234c1.108-0.592,2.191-1.441,3.238-2.289
			l0.221,0.27C69.47,158.413,71.243,159.755,71.71,162.021z"/>
		<path fill="#91D4E7" d="M71.785,64.364c-0.038,0.148-0.062,0.308-0.087,0.456c-0.48,2.942-0.763,5.859-0.911,8.863
			c-0.148,3.089-0.935,7.62,0.271,10.574c-3.422-3.41-6.376-6.709-8.814-9.688c0.037-0.025,0.074-0.049,0.111-0.074
			c0.837-0.504,1.822-0.59,2.634-1.132c0.788-0.529,1.563-1.157,2.13-1.945c1.083-1.55,1.304-3.693,2.351-5.084
			C70.122,65.484,70.836,64.807,71.785,64.364z"/>
		<path fill="#28BF22" d="M71.624,153.673c-0.049,0.025-0.099,0.049-0.148,0.074c-0.898,0.492-1.785,1.182-2.671,1.896
			c-0.32-0.037-0.591-0.111-0.789-0.223c-1.022-0.539-1.587-1.49-2.449-2.141c-0.062-0.506-0.604-0.666-0.96-0.984
			c-0.344-0.322-0.467-0.48-0.714-0.926c-0.394-0.676-0.886-1.377-1.342-2.041c-0.738-1.098-1.28-3.053-1.477-4.395
			c2.388-0.764,4.764-1.145,7.127-1.195c-0.394,0.555-0.702,1.23-1.403,1.465c-0.024,1.33,0.394,1.637,1.341,2.424
			c0.899,0.729,0.948,1.701,1.33,2.674c0.382,0.959,1.206,1.033,1.797,1.994C71.476,152.628,71.611,153.155,71.624,153.673z"/>
		<path d="M69.531,106.981c0.837,0,1.527,0.676,1.527,1.514s-0.689,1.516-1.527,1.516c-0.837,0-1.514-0.678-1.514-1.516
			S68.694,106.981,69.531,106.981z"/>
		<path fill="#28BF22" d="M58.304,137.03c-0.062-0.186-0.11-0.383-0.135-0.578c-0.173-1.195-0.308-2.229-0.59-3.385
			c-0.05-0.186-0.075-0.383-0.086-0.566c3.754,2.744,7.841,5.477,12.236,8.049c-0.209,0.113-0.407,0.162-0.566,0.148
			c-0.456,0.615-0.123,1.664-0.345,2.426c-0.246,0.146-0.443,0.369-0.615,0.615c-2.364,0.051-4.74,0.432-7.127,1.195
			c0-0.025-0.013-0.051-0.013-0.076c-0.148-1.059-0.8-1.834-1.058-2.844c-0.235-0.971-0.185-1.834-0.604-2.756
			C59.055,138.495,58.562,137.817,58.304,137.03z"/>
		<path fill="#28BF22" d="M62.489,88.418l-0.012,0.048c-0.184,0.382-1.527,0.627-2.055,0.714c-1.564,0.283-1.416-0.395-1.687-1.539
			c0.837,0.542,1.748,0.836,2.794,0.492c0.037-0.627,0.024-1.28,0.024-1.908c0.32-0.099,0.652-0.234,1.022-0.222
			c0.542,0.025,0.91,0.198,1.416,0.32C64.065,87.52,63.881,88.763,62.489,88.418z"/>
		<path fill="#28BF22" d="M61.554,86.227c0,0.627,0.012,1.28-0.024,1.908c-1.047,0.344-1.957,0.05-2.794-0.492
			c-0.025-0.099-0.049-0.209-0.086-0.321c-0.395-1.304-0.333-1.6-1.711-1.735c-0.222-0.024-0.443-0.037-0.677-0.037
			c-0.677-0.591-1.317-1.132-1.896-1.662c0.025-0.259,0.062-0.504,0.123-0.738c0.529,0.025,0.69,0.406,1.318,0.418
			c0.455,0.012,0.997-0.296,1.44-0.333c1.096-0.098,1.786,0.382,2.314,1.256c0.48,0.788,0.381,1.748,1.478,1.821
			C61.21,86.325,61.382,86.276,61.554,86.227z"/>
		<path fill="#28BF22" d="M62.243,74.569c-1.009,0.701-0.984,1.846-1.637,2.818c-0.579,0.85-1.206,1.786-1.92,2.463
			c-0.542,0.517-1.354,1.218-2.007,1.637c-0.874,0.579-1.305,0.209-2.289,0.295c0.049-0.32,0.074-0.714,0.184-1.009
			c0.369-0.997,2.93-2.733,1.514-3.877c-0.96-0.775-4.038,0.418-5.022,0.775c-0.825,0.295-1.872,0.283-2.622,0.652
			c-0.025,0.013-0.038,0.025-0.062,0.037c-1.489-1.673-2.671-3.508-3.446-5.736l-0.099-0.074c2.808-4.172,6.044-7.866,9.603-11.079
			l0.012,0.012C53.676,62.222,56.495,67.516,62.243,74.569z"/>
		<path fill="#28BF22" d="M58.649,87.322c0.037,0.112,0.061,0.222,0.086,0.321c-0.812-0.517-1.551-1.28-2.265-1.909
			c-0.074-0.061-0.147-0.122-0.209-0.185c0.234,0,0.455,0.013,0.677,0.037C58.316,85.722,58.255,86.018,58.649,87.322z"/>
		<path fill="#91D4E7" d="M58.169,136.452c0.025,0.195,0.074,0.393,0.135,0.578c-2.474,0.16-4.912,0.764-7.288,1.527
			c-2.302,0.75-3.705,1.34-5.762,2.77c-1.538,1.059-4.012,3.717-5.551,3.768l-0.308,0.207c-1.847-2.719-3.447-5.648-4.728-8.775
			l0.111-0.049c0.8-2.193,6.143-4.617,8.309-5.221c1.736-0.49,3.804-1.428,5.614-1.551c2.093-0.137,3.606,0.898,5.773,0.615
			l0.049-0.061c0.96,0.748,1.957,1.488,2.967,2.24c0.012,0.184,0.037,0.381,0.086,0.566
			C57.861,134.224,57.996,135.257,58.169,136.452z"/>
		<path fill="#28BF22" d="M52.198,95.36c0.246,1.293-0.529,2.376-1.514,3.054l-0.024,0.037c-0.591-0.531-0.443-1.121-1.625-0.825
			c-1.17,0.294-1.49,0.602-2.438-0.432c-1.526-1.672,0.16-4.086-0.96-5.835c-0.96-0.049-1.858,0.555-2.732,0.37
			c-0.124-0.271-0.48-0.751-0.505-1.034c-0.049-0.493,0.37-0.923,0.48-1.502c0.185-0.886,0.197-2.511,0-3.385
			c-0.37-1.711-2.77-0.85-4.025-1.994c0.406-1.01,0.849-2.006,1.304-2.979c0.875,1.269,1.194,3.09,2.499,4.248
			c0.431,0.381,1.194,0.591,1.514,0.959c0.37,0.407,0.419,1.207,0.751,1.662c0.503,0.69,1.6,1.429,2.277,1.995
			c0.788,0.652,1.489,0.874,2.241,1.145c-0.013,0.024-0.013,0.061-0.024,0.086c-0.136,0.565-0.247,1.292-0.48,1.858
			c-0.135,0.32-0.591,0.69-0.64,0.985C47.915,95.804,51.127,94.905,52.198,95.36z"/>
		<path fill="#28BF22" d="M47.496,83.642c1.748-0.037,2.413,3.237,2.364,4.616c-0.037,0.923-0.198,1.711-0.418,2.585
			c-0.751-0.271-1.453-0.493-2.241-1.145c-0.677-0.566-1.773-1.305-2.277-1.995c-0.333-0.455-0.382-1.255-0.751-1.662
			c-0.32-0.369-1.083-0.578-1.514-0.959c-1.305-1.157-1.625-2.979-2.499-4.248c1.379-2.941,2.942-5.711,4.678-8.284l0.099,0.074
			c0.775,2.228,1.957,4.062,3.446,5.736c-0.899,0.492-1.329,1.478-2.031,2.191c-1.083,1.084-3.324,2.093-2.45,4.223
			C44.702,86.694,46.216,83.667,47.496,83.642z"/>
		<path fill="#91D4E7" d="M45.773,122.937c-4.863,0.023-10.5,0.541-13.763,4l-0.172,0.037c-1.145-6.057-1.256-12.668-0.111-19.795
			C32.933,109.665,37.894,115.808,45.773,122.937z"/>
	</g>
	<g>
		<path fill="none" stroke="#000000" stroke-width="2" stroke-miterlimit="10" d="M31.727,107.179
			c1.206,2.486,6.167,8.629,14.046,15.758c2.609,2.361,5.54,4.836,8.752,7.324c0.96,0.748,1.957,1.488,2.967,2.24
			c3.754,2.744,7.841,5.477,12.236,8.049c5.428,3.189,11.313,6.145,17.578,8.605c2.536,1.012,5.146,1.934,7.804,2.758
			c3.891,1.205,7.902,2.215,12.029,2.969c3.016,0.553,6.092,0.959,9.219,1.203c5.873,0.48,11.93,0.395,18.121-0.393
			c0.037,0,0.074-0.014,0.111-0.014"/>
		<path fill="none" stroke="#000000" stroke-width="2" stroke-miterlimit="10" d="M157.868,110.774
			c1.502-0.727,0.652-0.074,2.326,0.012c0.592,0.023,1.344,0.295,2.182,0.725c0.945,0.48,1.992,1.17,3.027,1.945
			c2.484,1.848,4.887,4.174,5.551,5.307c0.518,0.898,1.145,1.711,1.773,2.51c1.205,1.502,2.486,2.943,3.311,4.74
			c1.293,2.83,9.996,12.988,13.689,16.078c0.16,0.135,0.307,0.244,0.443,0.344c0.332,0.258,0.602,0.432,0.799,0.506"/>
		<path fill="none" stroke="#000000" stroke-width="2" stroke-miterlimit="10" d="M155.419,120.929
			c0.135,0.012,0.271,0.012,0.418-0.023c1.109-0.074,2.352-0.752,3.57-0.74c2.303,0.014,4.506,1.736,6.191,3.225
			c1.119,0.986,2.131,2.057,3.064,3.178c2.402,2.83,4.336,6.02,6.488,9.047c0.689,0.986,1.393,1.945,2.156,2.869
			c1.637,1.994,3.385,4.025,4.738,6.166c0.109,0.174,0.221,0.346,0.346,0.518c0.725,1.109,1.588,2.18,2.436,3.09
			c2.191,2.338,2.609,3.078,5.467,4.174c0.209,0.086,0.43,0.172,0.676,0.258"/>
		<path fill="none" stroke="#000000" stroke-width="2" stroke-miterlimit="10" d="M86.889,46.195
			c1.317-0.209,2.646-0.37,3.976-0.505c1.391-0.135,2.781-0.234,4.186-0.271c1.761-0.061,3.52-0.049,5.281,0.037
			c4.789,0.209,9.539,0.959,14.156,2.228c6.98,1.92,13.629,5.035,19.525,9.368c3.311,2.412,6.387,5.22,9.158,8.395
			c0.332,0.382,0.676,0.776,0.998,1.17c3.371,4.074,6.252,8.74,8.518,13.997c1.674,3.853,3.004,8.025,3.951,12.519
			c0.59,2.758,1.023,5.637,1.305,8.641c0.123,1.282,0.209,2.587,0.271,3.915c0.037,0.59,0.049,1.195,0.062,1.799
			c0.021,0.627,0.035,1.254,0.035,1.883"/>
		<path fill="none" stroke="#000000" stroke-width="2" stroke-miterlimit="10" d="M78.961,47.955
			c2.597-0.751,5.244-1.342,7.915-1.748"/>
		<path fill="none" stroke="#000000" stroke-width="2" stroke-miterlimit="10" d="M36.035,92.222
			c0.148-0.555,0.295-1.096,0.456-1.637c0.677-2.351,1.464-4.604,2.364-6.771c0.406-1.01,0.849-2.006,1.304-2.979
			c1.379-2.941,2.942-5.711,4.678-8.284c2.808-4.172,6.044-7.866,9.603-11.079c5.194-4.69,11.091-8.346,17.356-10.993
			c2.339-0.985,4.728-1.822,7.152-2.524"/>
		<path fill="none" stroke="#000000" stroke-miterlimit="10" d="M132.595,77.376c0.285-0.074,0.826-0.53,1.578-1.293
			c0.566-0.567,1.242-1.317,2.018-2.191c0.209-0.234,0.42-0.48,0.641-0.739c1.551-1.797,3.396-4.05,5.393-6.524
			c0.307-0.381,0.615-0.775,0.947-1.182c6.424-8.063,13.947-17.972,17.135-22.145c0.592-0.763,1.021-1.33,1.279-1.662
			c0.812,0.727,2.217,0.825,3.596,0.591c0.049,0,0.109-0.013,0.16-0.025c0.1-0.504,0.014-0.936-0.234-1.305
			c-1.328-2.08-7.164-1.883-6.352,1.675c0.652,0.283,1.145,0.479,1.551,0.726c0.715,0.431,1.158,0.948,1.736,2.081
			c1.846,0.11,2.941-1.564,3.139-3.151c0.062-0.468,0.037-0.936-0.074-1.33c-0.086-0.344-0.234-0.641-0.455-0.874"/>
		<path fill="none" stroke="#000000" stroke-miterlimit="10" d="M72.19,54.565c0.209-0.382,0.037-1.883-0.395-4.087
			c-1.539-7.841-6.365-24.571-8.555-30.972c-1.108-2.093-0.862-2.77-0.738-4.542c0.135-2.13,1.747-4.014-0.443-5.823
			c-5.7-1.576-5.245,5.613-0.308,6.647"/>
		<path fill="none" stroke="#000000" stroke-width="2" stroke-miterlimit="10" d="M82.481,94.401
			c3.25,2.572,6.758,5.096,10.476,7.458c3.681,2.353,7.571,4.544,11.671,6.501c2.879,1.391,5.859,2.646,8.924,3.766
			c5.898,2.154,12.125,3.768,18.639,4.605c7.865,1.047,16.15,0.961,24.756-0.627h0.012"/>
		<path fill="none" stroke="#000000" stroke-width="2" stroke-miterlimit="10" d="M54.451,61.483
			c-0.775,0.739,2.044,6.032,7.792,13.086c2.438,2.979,5.392,6.278,8.814,9.688c3.361,3.348,7.189,6.795,11.424,10.13"/>
		<path fill="none" stroke="#000000" stroke-miterlimit="10" d="M117.356,165.812c-0.309-1.516-3.719-1.17-4.924-1.021
			c-0.826,0.1-1.379,0.555-2.094,0.812c-0.111,0.049-0.221,0.086-0.344,0.109c-1.059,0.248-1.957-0.418-2.895-0.615
			c-2.275-0.455-4.664,0.211-6.979,0c-0.16-0.01-0.332-0.023-0.493-0.049c-2.375-0.223-4.8-0.467-7.188-0.566
			c-1.761-0.086-2.967-0.555-4.555-1.119c-0.086-0.039-0.172-0.062-0.271-0.1c-0.788-0.27-1.625-0.727-2.352-0.936
			c-1.28-0.367-2.031,0.111-3.114,0.381c-1.071,0.271-2.253-0.33-3.373-0.861c-0.493-0.232-0.973-0.441-1.428-0.553
			c-1.478-0.369-3.102-0.346-4.703-0.295c-0.295,1.045-0.037,1.514-0.788,1.734c-0.148,0.049-0.32,0.074-0.555,0.1
			c-0.836,0.098-1.736,0-2.572,0c-0.96,0-1.822-0.111-2.536,0.639c-0.554,0.58-0.492,1.65-1.305,1.908
			c-0.012,0.014-0.024,0.025-0.049,0.025"/>
		<path fill="none" stroke="#000000" stroke-miterlimit="10" d="M48.112,104.778c-0.258,0.527-0.467,1.07-0.616,1.637
			c-0.678,2.623,0.702,5.133,2.155,7.104c0.467,0.641,0.935,0.922,1.206,1.723c0.295,0.863,0.197,1.885,0.64,2.658
			c0.406,0.738,0.874,1.184,1.207,1.934c0.394,0.85,0.775,1.688,1.391,2.486c0.948,1.232,1.625,2.893,2.105,4.334
			c0.271,0.836,0.726,1.674,1.046,2.572c0.369,1.047,0.124,2.191,0.247,3.275c0.012,0.184,0.037,0.381,0.086,0.566
			c0.282,1.156,0.417,2.189,0.59,3.385c0.025,0.195,0.074,0.393,0.135,0.578c0.258,0.787,0.751,1.465,1.096,2.229
			c0.418,0.922,0.369,1.785,0.604,2.756c0.258,1.01,0.91,1.785,1.058,2.844c0,0.025,0.013,0.051,0.013,0.076
			c0.197,1.342,0.739,3.297,1.477,4.395c0.456,0.664,0.948,1.365,1.342,2.041c0.247,0.445,0.37,0.604,0.714,0.926
			c0.357,0.318,0.898,0.479,0.96,0.984c0.862,0.65,1.427,1.602,2.449,2.141c0.197,0.111,0.468,0.186,0.789,0.223
			c0.799,0.135,1.833,0.061,2.289-0.334c0.382-0.318,0.542-0.982,0.53-1.637c-0.013-0.518-0.148-1.045-0.357-1.377
			c-0.591-0.961-1.415-1.035-1.797-1.994c-0.382-0.973-0.431-1.945-1.33-2.674c-0.947-0.787-1.365-1.094-1.341-2.424
			c0.702-0.234,1.009-0.91,1.403-1.465c0.172-0.246,0.37-0.469,0.615-0.615c0.222-0.762-0.11-1.811,0.345-2.426
			c0.16,0.014,0.357-0.035,0.566-0.148c0.984-0.455,2.4-1.943,3.028-2.314c0.394-0.232,1.489-0.725,1.711-1.168
			c0.32-0.664,0.012-2.217,0.012-2.953c0-1.799,1.058-2.328,2.351-3.287c0.037-0.014,0.074-0.051,0.111-0.076
			c0.701-0.527,1.071-0.775,1.563-1.562c0.665-1.07,1.022-1.514,2.154-1.822c0.714-0.195,1.49-0.332,2.081-0.85
			c0.862-0.736,0.75-1.613,0.997-2.646c0.357-1.574,0.333-4.172,1.921-4.936c1.231-0.592,2.806-0.529,3.569-1.982
			c0.862-1.639,0.099-3.188-0.665-4.617c-0.344-0.639-0.886-1.328-1.168-2.006c-3.497-0.197-7.892,0.357-10.858-1.662
			c-0.64-0.418-1.292-1.033-1.76-1.611c-0.493-0.615-0.529-1.393-0.936-1.957c-0.147-0.197-0.615-0.381-0.8-0.591
			c-0.295-0.321-0.37-0.851-0.64-1.146c-1.022-1.119-2.918-1.047-3.583-2.574c-1.022,0.038-0.677-1.574-0.714-2.252
			c-0.455-0.122-1.182-0.677-1.625-0.91c-0.456-0.235-1.366-0.555-1.453-1.047c-0.948,0.037-1.576-0.541-2.424-0.75
			c-1.035-2.019-4.371-1.649-5.995-0.405c-0.062,0.036-0.124,0.084-0.185,0.134c-0.936,0.813-0.53,2.241-1.638,2.857
			c-0.8,0.442-1.797,0.307-2.585,0.726c-0.824,0.431-1.207,1.268-1.747,2.018C49.613,102.327,48.727,103.497,48.112,104.778z"/>
		<path fill="none" stroke="#000000" stroke-miterlimit="10" d="M62.269,88.357c0.073,0.024,0.147,0.049,0.221,0.062
			c1.392,0.345,1.576-0.899,1.502-2.093c-0.505-0.123-0.874-0.295-1.416-0.32c-0.37-0.012-0.702,0.124-1.022,0.222
			c-0.172,0.049-0.344,0.098-0.517,0.085c-1.097-0.073-0.998-1.034-1.478-1.821c-0.528-0.874-1.218-1.354-2.314-1.256
			c-0.443,0.037-0.985,0.344-1.44,0.333c-0.628-0.013-0.789-0.394-1.318-0.418c-0.061,0.234-0.098,0.479-0.123,0.738
			c-0.049,0.53-0.037,1.083-0.086,1.588c0.653,0.037,1.33,0.037,1.982,0.073c0.234,0,0.455,0.013,0.677,0.037
			c1.378,0.135,1.317,0.431,1.711,1.735c0.037,0.112,0.061,0.222,0.086,0.321c0.271,1.144,0.123,1.822,1.687,1.539
			c0.528-0.087,1.871-0.333,2.055-0.714"/>
		<path fill="none" stroke="#000000" stroke-miterlimit="10" d="M86.876,46.207c-0.616,0.579-2.056,0.887-1.822,1.92
			c1.207,0.013,2.426,0.53,3.508,1.158c0.456,0.271,0.887,0.554,1.281,0.836c0.899,0.641,1.527,0.764,1.255,2.229
			c-0.209,1.157-0.984,1.427-1.846,2.154c-0.739,0.616-1.331,1.772-2.573,1.243c-0.419-0.184-0.616-0.726-0.85-1.206
			c-0.099-0.246-0.222-0.467-0.37-0.628c-0.911-0.96-3.434-0.627-4.333,0.283c0.135,0.333,0.357,0.566,0.738,0.702
			c0.825,0.296,1.416,0.05,2.179,0.505c0.406,0.259,0.91,0.517,1.317,0.85c0.247,0.209,0.455,0.443,0.579,0.726
			c0.615,1.331-0.357,2.93-1.526,3.866c-0.333,0.258-0.677,0.481-1.01,0.616c-1.896,0.8-3.569-0.751-5.331-0.898
			c-1.452-0.111-3.274,0.418-4,1.723c0.911,0.025,1.883-0.406,2.683-0.775c0.837-0.381,2.782-0.678,3.25,0.418
			c0.406,0.96-0.837,2.167-1.441,2.745c-1.28,1.207-1.391-0.443-2.548-0.825c-0.837-0.283-2.893,0.037-3.706,0.308
			c-0.184,0.062-0.356,0.136-0.528,0.209c-0.948,0.443-1.663,1.121-2.315,1.97c-1.047,1.391-1.268,3.534-2.351,5.084
			c-0.567,0.788-1.342,1.416-2.13,1.945c-0.812,0.542-1.797,0.628-2.634,1.132c-0.037,0.025-0.074,0.049-0.111,0.074
			c-1.009,0.701-0.984,1.846-1.637,2.818c-0.579,0.85-1.206,1.786-1.92,2.463c-0.542,0.517-1.354,1.218-2.007,1.637
			c-0.874,0.579-1.305,0.209-2.289,0.295c0.049-0.32,0.074-0.714,0.184-1.009c0.369-0.997,2.93-2.733,1.514-3.877
			c-0.96-0.775-4.038,0.418-5.022,0.775c-0.825,0.295-1.872,0.283-2.622,0.652c-0.025,0.013-0.038,0.025-0.062,0.037
			c-0.899,0.492-1.329,1.478-2.031,2.191c-1.083,1.084-3.324,2.093-2.45,4.223c0.8,1.92,2.315-1.108,3.595-1.133
			c1.748-0.037,2.413,3.237,2.364,4.616c-0.037,0.923-0.198,1.711-0.418,2.585c-0.013,0.024-0.013,0.061-0.024,0.086
			c-0.136,0.565-0.247,1.292-0.48,1.858c-0.135,0.32-0.591,0.69-0.64,0.985c-0.381,2.031,2.831,1.133,3.902,1.588
			c0.246,1.293-0.529,2.376-1.514,3.054"/>
		<line fill="none" stroke="#000000" stroke-width="2" stroke-miterlimit="10" x1="86.889" y1="46.195" x2="86.876" y2="46.207"/>
		<path fill="none" stroke="#000000" stroke-miterlimit="10" d="M112.198,85.784c-0.443,0.714-0.738,0.714-0.973,1.65
			c-0.295,1.169-0.75,1.452-1.33,2.388c-0.529,0.861-0.332,2.031-0.615,2.966c-0.258,0.887-0.838,1.195-1.082,2.056
			c-0.211,0.751-0.334,1.723-0.283,2.548c-0.014,0.1,0,0.209,0.012,0.308"/>
		<path fill="none" stroke="#000000" stroke-miterlimit="10" d="M94.792,45.579c0.086-0.012,0.172-0.012,0.258-0.012
			c0.64,0,0.961,0.345,1.133,0.96c0.541,1.958-2.672,3.151-2.93,5.01c-0.098,0.665-0.049,1.748,0.284,2.277
			c0.418,0.702,1.538,0.504,1.687,1.292c0.147,0.775-0.985,0.837-1.44,1.268c-0.518,0.492-0.849,1.49-0.64,2.129
			c0.517,1.564,1.908,0.591,2.855-0.394c0.32-0.344,0.604-0.69,0.764-0.936c1.097-1.625,2.166-2.486,4.186-2.56
			c1.502-0.062,3.115-1.022,4.002-2.303c0.564-0.812,0.367-1.662,0.639-2.499c0.271-0.886,0.838-0.985,1.492-1.477
			c0.799-0.603,1.045-1.182,2.078-1.317c1.736-0.222,3.336-0.185,4,1.403c0.074,0.185,0.148,0.406,0.197,0.653
			c0.221,1.034-0.307,2.068-0.098,3.077c0.172,0.862,1.01,1.354,1.439,2.155c0.543,1.033,0.752,2.326,1.404,3.286
			c0.307,0.444,0.529,0.924,0.762,1.391c0.211,0.431,0.42,0.874,0.703,1.28c0.467,0.678,1.082,1.195,1.516,1.97
			c0.701,1.231,1.783,3.632,0.639,4.912c-0.639,0.714-2.99,1.243-3.053,2.462c-0.049,0.799,0.875,0.935,1.402,1.218
			c0.1,0.049,0.211,0.123,0.309,0.222c0.381,0.308,0.775,0.764,1.23,0.812c-0.689,1.133-2.461,0.504-3.951,0.185
			c-0.715-0.161-1.379-0.247-1.811-0.025c-0.615,0.32-0.65,0.702-0.479,1.058c0.111,0.259,0.32,0.505,0.479,0.714
			c0.729,0.899,1.135,1.858,1.27,3.065c0.664-0.025,0.91,0.32,1.428,0.48c0.516,0.148,1.045,0.085,1.637,0.148
			c1.035,0.11,1.697,0.91,2.77,0.825c1.404-0.111,1.785-1.33,2.033-2.572c0.307-1.625-0.938-1.071-1.281-2.253
			c1.119-0.074,2.178-0.308,3.348-0.308c1.588,0,2.242,0.505,3.496,1.329c0.775,0.518,1.637,0.899,2.117,1.749
			c0.812,1.428-0.799,1.317-0.676,2.449c1.365,0.074,2.424-0.184,2.424-1.317c0-0.271-0.074-0.603-0.209-0.997
			c-0.48-1.391-2.598-2.056-2.721-3.607c0.973-0.271,2.807-0.32,3.668,0.209c1.221,0.75,0.973,1.908,1.023,3.09
			c0.023,0.283,0.049,0.579,0.135,0.874c0.271,0.923,1.021,1.785,1.674,2.536c0.137,0.16,0.258,0.308,0.381,0.456
			c0.703,0.874,1.65,1.821,2.832,1.107c0.295-1.132,0.295-1.341-0.592-1.81c-0.061-0.037-0.121-0.073-0.195-0.11
			c-0.949-0.493-1.145-1.022-1.861-1.834c1.699-0.074,1.861-1.182,0.643-2.253c-0.506-0.431-0.9-0.825-0.998-1.157
			c-0.086-0.283,0.086-0.542,0.641-0.739c0.172-0.062,0.381-0.123,0.639-0.173c1.527-0.308,1.945-0.123,2.352,1.428
			c0.371,1.391,0.113,2.118-1.525,2.167c-0.369,1.539,0.344,1.602,1.525,2.142c0.432,0.197,0.689,0.357,0.85,0.493
			c0.604,0.554-0.492,0.874-0.529,2.265c0.924,0.209,1.195-0.677,2.043-0.603c1.012,0.098,0.826,1.194,1.453,1.723
			c0.824,0.702,3.902,0.862,3.053,2.376c-0.934,1.687-4.283,1.12-5.748,0.418c-0.689-0.333-1.021-1.121-1.549-1.514
			c-0.643-0.468-1.43-0.308-2.156-0.714c-0.309-0.173-0.604-0.566-0.924-0.727c-1.133-0.541-0.541-0.012-1.441,0.48
			c-1.34,0.726-2.203-0.677-2.756-1.612c-0.271,0.049-0.629-0.087-0.887-0.037c-0.1-0.111-0.184-0.247-0.27-0.382
			c-0.541-0.8-1.061-1.822-2.008-1.957c-1.293-0.197-2.732-0.148-4.002,0.098c-1.477,0.295-3.064,0.591-4.615,0.517
			c-1.182-0.062-2.66-0.566-3.779-0.394c-1.096,1.612-2.953,2.757-3.742,4.628c-0.295,0.714-0.221,1.366-0.602,1.994"/>
		<path fill="none" stroke="#000000" stroke-miterlimit="10" d="M158.005,105.702c-0.025,0-0.051,0-0.074,0
			c-0.789,0.012-1.809,0.146-2.512-0.1"/>
		<path fill="none" stroke="#000000" stroke-miterlimit="10" d="M157.671,101.799c-1.525,0.64-2.844-1.01-3.385-2.253
			c-0.406-0.946-0.307-1.858-0.836-2.745c-0.492-0.8-0.912-1.55-1.244-2.462c-0.48-1.341-1.059-2.658-1.945-3.656
			c-0.369-0.43-0.799-0.799-1.305-1.083c-0.492-0.295-1.045-0.972-1.639-0.923c-1.512,0.099-0.061,1.207,0.385,1.637
			c0.109,0.098,0.209,0.197,0.307,0.308c0.971,1.035,1.49,2.253,1.994,3.583c0.455,1.206,1.256,1.858,2.055,2.757
			c0.357,0.394,0.801,0.949,1.01,1.454c0.295,0.726,0.543,1.292,0.838,1.956c0.639,1.478,0.838,3.103,0.908,4.691
			c1.111,0.455,2.033,0.627,3.117,0.641"/>
		<path fill="none" stroke="#000000" stroke-miterlimit="10" d="M108.024,97.392c0.088,0.284,0.1,0.566,0.137,0.836
			c0.023,0.197,0.074,0.395,0.172,0.58c0.172,0.308,0.664,0.665,0.898,0.96c0.701,0.873,1.637,1.404,2.584,2.167
			c0.691,0.541,1.553,1.501,2.082,2.215c0.469,0.628,0.848,2.093,1.809,1.981c0.395,0.543,0.863,1.23,1.551,1.416
			c0.887,0.246,2.277-0.025,3.164-0.1c0.172-0.021,0.334-0.021,0.506-0.021c2.078-0.039,3.826,0.994,5.76,1.549
			c1.922,0.555,3.705,0.518,5.416,1.463c0.875,0.494,2.02,1.43,1.861,2.637c-0.125,0.812-1.061,1.688-1.391,2.572
			c-0.137,0.357-0.26,0.715-0.383,1.084c-0.258,0.775-0.492,1.562-0.812,2.303c-0.283,0.701-0.738,1.291-0.789,2.055
			c-0.074,1.156,0.578,1.934,0.898,2.881c0.197,0.564,0.271,1.17,0.26,1.773c-0.012,0.504-0.098,1.008-0.209,1.5
			c-0.234,0.912-0.604,1.65-1.146,2.439c-0.588,0.859-0.713,1.771-1.156,2.682c-0.355,0.738-1.107,1.17-1.49,1.885
			c-0.406,0.75-0.369,1.674-0.344,2.596c0.012,0.223,0.012,0.445,0.012,0.666c0,1.758-0.109,3.434-0.639,5.096
			c-0.234,0.74-0.432,1.748-0.852,2.449c-0.332,0.543-1.648,1.664-1.795,2.586c-0.039,0.271,0.01,0.518,0.207,0.738
			c0.332,0.357,1.553,0.479,2.033,0.529c0.541,0.049,1.082-0.037,1.623-0.209c1.01-0.295,2.02-0.836,3.016-1.145
			c1.836-0.578,3.189-1.404,4.48-2.684c1.467-1.465,3.549-2.217,5.158-3.57c0.346-0.307,0.566-0.725,0.9-1.033
			c0.381-0.346,0.85-0.406,1.254-0.738c0.396-0.309,0.617-0.727,1.084-1.035c0.137-0.086,0.307-0.186,0.494-0.281
			c0.209-0.111,0.418-0.236,0.578-0.383c0.664-0.555,1.008-1.502,1.66-2.057c0.74-0.627,1.467-1.01,1.996-1.859
			c0.701-1.131,1.377-2.154,2.498-2.979c0.703-0.516,1.49-0.652,1.908-1.391c0.012-0.012,0.025-0.037,0.037-0.049v-0.012
			c0.123-0.225,0.197-0.432,0.232-0.643c0.088-0.467-0.012-0.896-0.195-1.303c-0.455-1.01-1.391-1.934-1.367-3.176
			c0.037-1.736,1.33-2.191,2.438-3.201c0.65-0.602,1.848-1.195,2.129-2.143c0.027-0.062,0.039-0.123,0.049-0.184"/>
		<path fill="none" stroke="#000000" stroke-miterlimit="10" d="M115.757,68.07c0.135,0,0.258,0,0.369-0.013"/>
		<path fill="none" stroke="#000000" stroke-miterlimit="10" d="M115.608,68.057c0.023,0.013,0.061,0.013,0.088,0.013
			c0.021,0,0.035,0,0.061,0c1.07-0.013,1.562-2.118,2.918-2.191c0.035-0.665,0.318-1.478-0.062-2.056
			c-0.271-0.431-1.256-0.75-1.662-1.009c-0.506-0.321-0.973-0.727-1.441-1.219c-0.258-0.283-0.689-0.923-1.121-1.206
			c-0.135-0.099-0.258-0.148-0.393-0.148c-0.381-0.013-0.738,0.554-0.838,1.096c-0.035,0.197-0.047,0.394-0.012,0.566
			c0.186,0.813,0.715,0.579,1.318,1.047c1.365,1.096,0.381,3.496,0.652,5.083C115.274,68.045,115.435,68.057,115.608,68.057"/>
		<path fill="none" stroke="#000000" stroke-miterlimit="10" d="M113.048,66.617c0.283-0.973,1.205-2.364,0.492-3.263
			c-0.086-0.037-0.172-0.012-0.271-0.037c-0.098-0.418-0.381-0.665-0.824-0.579c-0.332,0.825-0.232,1.847-0.43,2.746
			c-0.148,0.714,0,1.982,1.07,1.182c0.025-0.013,0.037-0.037,0.061-0.049"/>
		<path fill="none" stroke="#000000" stroke-miterlimit="10" d="M38.78,83.752c0.025,0.024,0.049,0.049,0.075,0.062
			c1.255,1.145,3.655,0.283,4.025,1.994c0.197,0.874,0.185,2.499,0,3.385c-0.11,0.579-0.529,1.009-0.48,1.502
			c0.024,0.283,0.381,0.763,0.505,1.034c0.874,0.185,1.772-0.419,2.732-0.37c1.121,1.749-0.566,4.163,0.96,5.835
			c0.948,1.034,1.268,0.727,2.438,0.432c1.182-0.295,1.034,0.294,1.625,0.825c0.062,0.061,0.135,0.121,0.221,0.171"/>
		<path fill="none" stroke="#000000" stroke-width="2" stroke-miterlimit="10" d="M32.01,126.937c3.262-3.459,8.899-3.977,13.763-4
			c0.136,0,0.258,0,0.394,0"/>
		<path fill="none" stroke="#000000" stroke-width="2" stroke-miterlimit="10" d="M34.78,136.478c0.8-2.193,6.143-4.617,8.309-5.221
			c1.736-0.49,3.804-1.428,5.614-1.551c2.093-0.137,3.606,0.898,5.773,0.615"/>
		<path fill="none" stroke="#000000" stroke-width="2" stroke-miterlimit="10" d="M39.704,145.095
			c1.539-0.051,4.013-2.709,5.551-3.768c2.057-1.43,3.459-2.02,5.762-2.77c2.376-0.764,4.813-1.367,7.288-1.527
			c2.093-0.158,4.209,0.012,6.328,0.678"/>
		<path fill="none" stroke="#000000" stroke-width="2" stroke-miterlimit="10" d="M45.859,152.788
			c0.295,0.184,0.615,0.307,0.959,0.357c2.967-3.24,9.024-6.305,13.123-7.818c0.382-0.135,0.751-0.271,1.133-0.393
			c2.388-0.764,4.764-1.145,7.127-1.195c3.065-0.074,6.105,0.406,9.048,1.355"/>
		<path fill="none" stroke="#000000" stroke-width="2" stroke-miterlimit="10" d="M59.708,162.636
			c1.404-2.105,3.139-3.102,5.293-4.234c1.108-0.592,2.191-1.441,3.238-2.289c0.184-0.162,0.382-0.309,0.566-0.469
			c0.886-0.715,1.772-1.404,2.671-1.896c0.049-0.025,0.099-0.049,0.148-0.074c1.046-0.59,2.105-1.096,3.188-1.551
			c2.844-1.182,5.773-1.934,8.888-2.252c1.108-0.111,2.24-0.16,3.397-0.16"/>
		<path fill="none" stroke="#000000" stroke-width="2" stroke-miterlimit="10" d="M73.249,168.483
			c-0.024-0.1-0.049-0.197-0.086-0.297c-0.493-1.797-0.911-3.594-1.305-5.453c-0.049-0.234-0.099-0.48-0.148-0.713
			c-0.467-2.266-2.24-3.607-3.25-5.639"/>
		<path fill="none" stroke="#000000" stroke-width="2" stroke-miterlimit="10" d="M82.481,170.022
			c-1.354-2.635-2.646-5.281-3.705-8.176c-0.123-0.344-0.247-0.701-0.37-1.057c-0.923-2.721-2.646-5.146-3.312-8.002"/>
		<path fill="none" stroke="#000000" stroke-width="2" stroke-miterlimit="10" d="M94.606,170.735
			c-0.369,0.062-0.75,0.023-1.133-0.123c-1.932-0.652-3.914-3.68-5.588-7.25c-2.388-5.098-4.137-11.289-4.173-13.346"/>
		<path fill="none" stroke="#000000" stroke-width="2" stroke-miterlimit="10" d="M104.345,169.626
			c-0.062-0.012-0.135-0.021-0.209-0.061c-1.047-0.381-2.967-2.535-4.508-4.518c-0.934-1.205-1.71-2.352-2.078-3.004
			c-1.885-3.41-1.343-6.646-2.439-10.131c0-0.012-0.012-0.037-0.012-0.049"/>
		<path fill="none" stroke="#000000" stroke-width="2" stroke-miterlimit="10" d="M119.72,164.95
			c-0.023-0.025-0.049-0.039-0.074-0.061c-0.393-0.371-0.801-1-1.133-1.355c-0.43-1.021-1.096-1.908-1.613-2.855
			c-0.627-1.184-0.566-2.918-0.566-4.297"/>
		<path fill="none" stroke="#000000" stroke-width="2" stroke-miterlimit="10" d="M112.026,167.56
			c-0.604-0.443-1.184-1.145-1.688-1.957c-0.615-0.961-1.131-2.082-1.539-3.115c-0.799-2.055-2.721-5.355-1.66-7.605
			c0.035-0.088,0.072-0.162,0.121-0.248"/>
		<path fill="none" stroke="#000000" stroke-width="2" stroke-miterlimit="10" d="M50.316,102.784
			c0.196,0.738,0.553,1.341,0.443,2.129c-1.071,0.049-1.884,0.035-2.647-0.135c-0.788-0.186-1.514-0.566-2.413-1.23
			c-1.563-1.172-3.065-1.921-4.309-3.424c-1.847-2.252-4.653-3.52-6.144-5.958"/>
		<path fill="none" stroke="#000000" stroke-width="2" stroke-miterlimit="10" d="M59.092,95.238
			c-0.049,1.219-1.231,0.874-2.486,0.186c-1.146-0.642-2.339-1.577-2.757-1.847c-1.06-0.69-2.204-1.662-3.25-2.229
			c-0.406-0.221-0.788-0.369-1.157-0.504c-0.751-0.271-1.453-0.493-2.241-1.145c-0.677-0.566-1.773-1.305-2.277-1.995
			c-0.333-0.455-0.382-1.255-0.751-1.662c-0.32-0.369-1.083-0.578-1.514-0.959c-1.305-1.157-1.625-2.979-2.499-4.248
			c-0.049-0.073-0.098-0.147-0.147-0.209"/>
		<path fill="none" stroke="#000000" stroke-width="2" stroke-miterlimit="10" d="M61.554,86.165c0,0.025,0,0.038,0,0.062
			c0,0.627,0.012,1.28-0.024,1.908c-1.047,0.344-1.957,0.05-2.794-0.492c-0.812-0.517-1.551-1.28-2.265-1.909
			c-0.074-0.061-0.147-0.122-0.209-0.185c-0.677-0.591-1.317-1.132-1.896-1.662c-0.172-0.16-0.332-0.308-0.48-0.468
			c-0.8-0.8-1.662-1.465-2.499-2.179c-1.096-0.936-2.105-1.883-3.004-2.88c-1.489-1.673-2.671-3.508-3.446-5.736"/>
		<path fill="none" stroke="#000000" stroke-width="2" stroke-miterlimit="10" d="M79.096,47.844
			c-0.049,0.037-0.086,0.074-0.135,0.111c-0.013,0-0.013,0-0.013,0c-2.203,1.711-3.656,4.85-4.518,7.521
			c-0.96,2.917-2.105,5.897-2.646,8.888c-0.038,0.148-0.062,0.308-0.087,0.456c-0.48,2.942-0.763,5.859-0.911,8.863
			c-0.148,3.089-0.935,7.62,0.271,10.574"/>
		<path fill="none" stroke="#000000" stroke-width="2" stroke-miterlimit="10" d="M90.938,45.382
			c-0.012,0.098-0.037,0.209-0.074,0.308c-0.332,1.206-1.354,2.413-2.302,3.595c-0.578,0.701-1.12,1.391-1.464,2.068
			c-0.505,0.959-0.911,2.043-1.268,3.188c-0.172,0.566-0.321,1.133-0.468,1.711c-0.381,1.551-0.677,3.139-0.948,4.591
			C84.34,61.25,84.279,61.632,84.205,62c-0.726,3.964-1.33,8.039-1.723,12.002c-0.407,4.1-0.579,8.298-0.468,12.434
			c0.074,2.548-1.256,5.921,0.468,7.952v0.014"/>
		<path fill="none" stroke="#000000" stroke-width="2" stroke-miterlimit="10" d="M100.331,45.542
			c0.061,1.219-0.812,2.044-1.415,3.066c-1.011,1.71-1.503,3.668-1.995,5.54c-0.357,1.317-0.651,2.634-0.924,3.963
			c-0.565,2.733-1.021,5.466-1.637,8.199c-1.194,5.269-1.957,10.845-2.487,16.25c-0.222,2.19-0.222,4.418,0.025,6.622
			c0.456,3.939,0.024,8.814,1.059,12.678c0.037,0.161,0.074,0.308,0.123,0.456"/>
		<path fill="none" stroke="#000000" stroke-width="2" stroke-miterlimit="10" d="M114.487,47.684
			c-0.504,0.062-0.947,0.357-1.33,0.738c-0.455,0.456-0.836,1.059-1.131,1.563c-1.158,1.994-2.068,4.124-2.809,6.315
			c-1.045,3.151-2.018,6.278-2.854,9.442c-0.752,2.819-1.393,5.663-1.91,8.568c-0.309,1.797-0.664,3.569-0.996,5.331
			c-0.689,3.544-1.281,7.065-1.281,10.832c0,0.099,0,0.197,0,0.296c-0.012,3.939-0.209,8.358,0.629,12.347
			c0.344,1.662,0.861,3.238,1.648,4.689c0.148,0.137,0.209,0.309,0.186,0.518"/>
		<path fill="none" stroke="#000000" stroke-width="2" stroke-miterlimit="10" d="M113.712,111.696
			c2.18-1.982,3.891-3.25,6.783-4.148c0.148-0.049,0.283-0.086,0.432-0.121c3.594-1.061,7.09-1.527,10.758-2.219
			c3.977-0.75,7.781-0.012,11.744,0.186c2.215,0.109,4.467,0.381,6.598,0.961c0.998,0.27,2.154,0.418,3.053,0.996
			c0.74,0.48,1.219,1.279,2.031,1.736c0.666,0.369,2.031,0.479,2.303,0.924"/>
		<path fill="none" stroke="#000000" stroke-width="2" stroke-miterlimit="10" d="M102.806,103.116
			c1.256-1.661,3.41-3.816,5.182-4.789c0.061-0.037,0.111-0.062,0.174-0.1c2.105-1.194,4.037-2.706,6.18-3.68
			c4.197-1.919,8.1-4.309,12.764-4.542c3.498-0.173,6.881-0.726,10.465-0.615c2.104,0.061,4.197,0.172,6.277,0.467
			c1.035,0.136,2.031,0.37,3.078,0.616c0.355,0.086,0.729,0.123,1.084,0.147c0.75,0.05,1.514,0.025,2.252,0.062
			c0.443,0.025,0.887,0.087,1.305,0.197c1.688,0.467,2.941,1.822,4.617,2.351"/>
		<path fill="none" stroke="#000000" stroke-width="2" stroke-miterlimit="10" d="M112.212,85.771
			c5.084-2.794,11.521-3.04,17.049-4.406c0.59-0.148,1.158-0.309,1.699-0.481c1.674-0.517,3.223-1.107,5.021-1.391
			c0.357-0.061,0.713-0.111,1.094-0.148c0.506-0.049,1.023-0.074,1.527-0.099c0.691-0.024,1.379-0.024,2.068-0.037
			c1.119,0,2.24,0.025,3.361,0.025c2.77,0,6.057,0.407,8.617,1.391"/>
		<line fill="none" stroke="#000000" stroke-miterlimit="10" x1="112.198" y1="85.784" x2="112.212" y2="85.771"/>
		<path fill="none" stroke="#000000" stroke-width="2" stroke-miterlimit="10" d="M102.485,90.77c1.109,0.566,3.521-2.08,4.58-2.622
			c1.404-0.714,2.879-0.973,4.223-1.823c0.295-0.185,0.602-0.369,0.91-0.542"/>
		<path fill="none" stroke="#000000" stroke-width="2" stroke-miterlimit="10" d="M103.718,79.69
			c3.408-1.095,5.994-4.555,9.047-6.278c0.195-0.111,0.393-0.222,0.604-0.333c0.713-0.369,1.502-0.714,2.289-1.033
			c0.787-0.321,1.6-0.604,2.352-0.862c0.123-0.037,0.246-0.085,0.369-0.135c1.762-0.628,3.385-1.514,5.195-2.093
			c1.637-0.517,3.902-1.009,5.602-1.268c1.832-0.283,3.691,0.172,5.502-0.283c2.436-0.615,4.947-0.751,7.547-0.776
			c0.639-0.012,1.291-0.012,1.945-0.012c0.012,0,0.012,0,0.021,0"/>
		<path fill="none" stroke="#000000" stroke-width="2" stroke-miterlimit="10" d="M106.794,65.854
			c1.662-1.92,4.445-2.831,6.316-4.48c0.012-0.012,0.035-0.025,0.047-0.037c0.395-0.345,0.803-0.665,1.23-0.948
			c0.775-0.542,1.602-1.01,2.475-1.404c0.926-0.43,1.885-0.763,2.857-1.021c2.684-0.715,5.416-1.219,8.211-1.354
			c2.105-0.112,4.049,0.356,6.082,0.443c0.209,0.013,0.418,0.024,0.627,0.024"/>
		<path fill="none" stroke="#000000" stroke-width="2" stroke-miterlimit="10" d="M153.88,127.552c-0.037,0-0.061,0-0.1,0
			c-0.232,0-0.467,0-0.688-0.012c-3.842-0.025-7.449-0.297-11.303-0.297c-3.58,0-6.805-0.727-10.043-1.5
			c-1.674-0.395-3.361-0.812-5.084-1.133c-0.074-0.371,0.086-0.504,0.295-0.752"/>
		<path fill="none" stroke="#000000" stroke-width="2" stroke-miterlimit="10" d="M149.116,137.708
			c-1.588-0.148-3.164,0.221-4.738,0.506c-0.729,0.121-1.453,0.232-2.193,0.27c-2.461,0.109-5.66,0.418-8.049-0.16
			c-0.986-0.234-4.174-0.689-6.734-1.479c-2.006-0.615-3.643-1.439-3.521-2.521"/>
		<path fill="none" stroke="#000000" stroke-width="2" stroke-miterlimit="10" d="M141.386,148.946
			c-2.77,2.377-8.346,0.297-11.793,0c-0.529-0.049-1.059-0.135-1.602-0.246c-1.305-0.26-2.633-0.664-3.863-1.059
			c-0.297-0.1-0.58-0.197-0.863-0.283c-1.402-0.443-4.074-0.639-3.693-2.721"/>
		<path fill="none" stroke="#000000" stroke-width="2" stroke-miterlimit="10" d="M71.058,108.495c0,0.838-0.689,1.516-1.527,1.516
			c-0.837,0-1.514-0.678-1.514-1.516s0.677-1.514,1.514-1.514C70.368,106.981,71.058,107.657,71.058,108.495z"/>
		<path fill="none" stroke="#000000" stroke-width="2" stroke-miterlimit="10" d="M109.208,123.269c0,0.838-0.678,1.514-1.514,1.514
			c-0.84,0-1.516-0.676-1.516-1.514s0.676-1.514,1.516-1.514C108.53,121.755,109.208,122.431,109.208,123.269z"/>
		<path fill="none" stroke="#000000" stroke-width="2" stroke-miterlimit="10" d="M74.788,124.942
			c-0.714,2.164,0.431,4.221,2.043,5.885c1.158,1.193,2.548,2.178,3.656,2.842c3.767,2.266,7.559,2.488,10.611-0.727"/>
		<path fill="none" stroke="#000000" stroke-width="2" stroke-miterlimit="10" d="M36.404,90.56
			c-0.467,1.194-0.911,2.376-1.329,3.545c-1.575,4.529-2.683,8.888-3.348,13.073c-1.145,7.127-1.034,13.738,0.111,19.795
			c0.628,3.359,1.587,6.547,2.831,9.553c1.28,3.127,2.88,6.057,4.728,8.775c1.871,2.746,4.001,5.281,6.352,7.609
			c4.026,3.977,8.703,7.311,13.812,9.994c1.724,0.9,3.509,1.736,5.331,2.475c2.671,1.109,5.441,2.043,8.272,2.807
			c3.041,0.824,6.156,1.439,9.319,1.848c3.619,0.48,7.3,0.676,10.992,0.578c3.559-0.074,7.127-0.42,10.662-1.047
			c2.672-0.467,5.316-1.096,7.928-1.885c1.797-0.527,3.559-1.143,5.305-1.846c0.764-0.295,1.527-0.615,2.277-0.945
			c5.27-2.328,10.268-5.369,14.834-9.197c2.438-2.02,4.752-4.273,6.906-6.746c0,0,0.014-0.014,0.023-0.023
			c2.893-3.312,5.504-7.043,7.781-11.178c1.414-2.572,2.707-5.307,3.828-8.199c0.025-0.025,0.025-0.037,0.037-0.061
			c0.088-0.211,0.16-0.418,0.232-0.643c0.174-0.418,0.334-0.859,0.492-1.291c0.764-2.129,1.453-4.346,2.057-6.646
			c0.174-0.615,0.32-1.244,0.469-1.885c0.234-0.959,0.455-1.932,0.641-2.916c0.357-1.736,0.664-3.51,0.922-5.33
			c0.037-0.236,0.062-0.457,0.1-0.689c0.111-0.85,0.221-1.725,0.309-2.598c0.01-0.1,0.021-0.211,0.035-0.309"/>
		<path fill="none" stroke="#000000" stroke-width="2" stroke-miterlimit="10" d="M190.097,142.532
			c0.469,1.281,0.135,3.447,0.197,4.826c0.098,1.674,0.012,3.385,0,5.072c0,0.086,0,0.172,0,0.258"/>
		<path fill="none" stroke="#000000" stroke-miterlimit="10" d="M162.188,111.548c0.062-0.012,0.123-0.023,0.188-0.037
			c1.18-0.195,2.215,0.703,3.027,1.945c1.045,1.613,1.723,3.791,1.908,4.838c0.49,2.783,0.773,5.553,1.352,8.273
			c0.051,0.221,0.1,0.455,0.148,0.676"/>
		<path fill="none" stroke="#000000" stroke-miterlimit="10" d="M171.274,118.011c0.406,1.145,0.947,2.193,1.453,3.262
			c0.775,1.564,1.488,3.141,1.648,5.049c0.271,3.076,1.047,5.945,1.047,9.084"/>
		<path fill="none" stroke="#000000" stroke-miterlimit="10" d="M182.501,145.095c1.697,0,2.523-0.186,4-0.887
			c0.703-0.346,1.418-0.543,1.996-1.01c0.48-0.371,0.713-0.863,1.23-1.107c0.049-0.037,0.098-0.051,0.16-0.076"/>
	</g>
</g>
</svg>
