<?xml version="1.0" encoding="utf-8"?>
<!-- Generator: Adobe Illustrator 16.0.4, SVG Export Plug-In . SVG Version: 6.00 Build 0)  -->
<!DOCTYPE svg PUBLIC "-//W3C//DTD SVG 1.1//EN" "http://www.w3.org/Graphics/SVG/1.1/DTD/svg11.dtd">
<svg version="1.1" id="Layer_1" xmlns="http://www.w3.org/2000/svg" xmlns:xlink="http://www.w3.org/1999/xlink" x="0px" y="0px"
	 width="200px" height="200px" viewBox="0 0 200 200" enable-background="new 0 0 200 200" xml:space="preserve">
<g id="XMLID_1_">
	<g>
		<g id="XMLID_2_">
			<g>
				<path fill="#E5C47B" d="M168.37,149.27c0.09,1.431,0.01,2.891,0,4.33c-2.43-0.939-2.79-1.569-4.66-3.56
					c-0.72-0.78-1.46-1.69-2.07-2.63l0.091-0.07c1.449,0,2.149-0.149,3.409-0.75c0.601-0.3,1.21-0.46,1.7-0.859
					c0.41-0.32,0.61-0.74,1.05-0.95c0.141,0.12,0.261,0.21,0.38,0.3l-0.069,0.08C168.6,146.25,168.32,148.1,168.37,149.27z"/>
				<path fill="#E5C47B" d="M167.89,144.78c-0.439,0.21-0.64,0.63-1.05,0.95c-0.49,0.399-1.1,0.56-1.7,0.859
					c-1.26,0.601-1.96,0.75-3.409,0.75l-0.091,0.07c-0.109-0.15-0.199-0.3-0.3-0.44c-1.149-1.83-2.64-3.56-4.04-5.26
					c-0.649-0.79-1.25-1.61-1.83-2.45l0.23-0.17c0-2.68-0.66-5.12-0.9-7.75c-0.13-1.62-0.74-2.97-1.399-4.3
					c1.029,1.28,2.119,2.51,2.819,4.04C157.32,133.49,164.74,142.15,167.89,144.78z"/>
				<path fill="#E5C47B" d="M155.7,139.09l-0.23,0.17c-1.84-2.58-3.489-5.29-5.529-7.71c-0.5-2.319-0.74-4.68-1.16-7.05
					c-0.16-0.89-0.73-2.75-1.62-4.12c2.109,1.57,4.16,3.561,4.729,4.521c0.44,0.77,0.971,1.46,1.511,2.14
					c0.659,1.33,1.27,2.68,1.399,4.3C155.04,133.97,155.7,136.41,155.7,139.09z"/>
				<path fill="#E5C47B" d="M139.95,122.63c0.3-1.47,0.56-2.99,0.78-4.54c1.279-0.62,0.56-0.06,1.989,0.01
					c0.5,0.021,1.141,0.25,1.86,0.62c0.8,0.41,1.689,1,2.58,1.66c0.89,1.37,1.46,3.23,1.62,4.12c0.42,2.37,0.66,4.73,1.16,7.05
					c-0.801-0.95-1.66-1.859-2.62-2.7c-1.431-1.27-3.311-2.739-5.271-2.75c-1.04-0.01-2.1,0.561-3.05,0.631
					c0.15-0.53,0.28-1.061,0.4-1.61C139.6,124.3,139.79,123.47,139.95,122.63z"/>
				<path fill="#E5C47B" d="M141.03,113.76c0.029,0.5,0.04,1.021,0.05,1.53c-0.07,0.74-0.17,1.49-0.26,2.21l-0.471-0.06
					c-0.229-0.381-1.399-0.471-1.97-0.79c-0.689-0.391-1.1-1.07-1.729-1.48c-0.761-0.49-1.75-0.62-2.601-0.85
					c-1.819-0.49-3.74-0.721-5.62-0.811c-3.38-0.17-6.62-0.8-10.01-0.16c-3.13,0.591-6.11,0.98-9.17,1.891c-0.15,0-0.29,0-0.43,0.02
					c-0.761,0.061-1.95,0.29-2.7,0.08c-0.59-0.16-0.99-0.74-1.32-1.21c-0.819,0.101-1.149-1.149-1.55-1.68
					c-0.45-0.61-1.18-1.431-1.77-1.891c-0.811-0.649-1.601-1.1-2.201-1.85c-0.2-0.25-0.62-0.55-0.77-0.82
					c-0.08-0.149-0.12-0.319-0.14-0.489c1.79-1.021,3.439-2.311,5.26-3.141c3.58-1.64,6.91-3.67,10.88-3.87
					c2.98-0.15,5.87-0.62,8.92-0.52c1.801,0.05,3.58,0.14,5.351,0.39c0.89,0.12,1.729,0.32,2.63,0.53c0.3,0.07,0.62,0.1,0.92,0.12
					c0.83,0.89,1.27,1.93,1.7,3.06c0.39,1.03,1.069,1.58,1.75,2.351c0.31,0.33,0.68,0.81,0.859,1.239
					c0.25,0.62,0.46,1.101,0.721,1.66c0.54,1.261,0.71,2.65,0.77,4c0.95,0.391,1.73,0.54,2.66,0.55c0.02,0,0.04,0,0.06,0
					L141.03,113.76z"/>
				<path fill="#E5C47B" d="M141.03,113.76l-0.181,0.01c-0.02,0-0.04,0-0.06,0c-0.93-0.01-1.71-0.159-2.66-0.55
					c-0.06-1.35-0.229-2.739-0.77-4c-0.261-0.56-0.471-1.04-0.721-1.66c-0.18-0.43-0.55-0.909-0.859-1.239
					c-0.681-0.771-1.36-1.32-1.75-2.351c-0.431-1.13-0.87-2.17-1.7-3.06c0.64,0.05,1.29,0.03,1.92,0.06
					c0.75,0.85,1.25,1.97,1.66,3.11c0.28,0.78,0.64,1.42,1.06,2.1c0.45,0.761,0.36,1.53,0.71,2.34
					c0.46,1.061,1.58,2.471,2.891,1.921l0.229-0.021C140.9,111.51,140.97,112.62,141.03,113.76z"/>
				<path fill="#E5C47B" d="M140.82,117.5c-0.03,0.2-0.061,0.39-0.09,0.59c-0.221,1.55-0.48,3.07-0.78,4.54
					c-7.34,1.36-14.4,1.43-21.101,0.54c0.101-0.32,0.21-0.62,0.32-0.92c0.29-0.76,1.08-1.5,1.19-2.2
					c0.13-1.03-0.841-1.819-1.591-2.24c-1.46-0.81-2.979-0.779-4.609-1.25c-1.65-0.47-3.141-1.35-4.91-1.319
					c3.06-0.91,6.04-1.3,9.17-1.891c3.39-0.64,6.63-0.01,10.01,0.16c1.88,0.09,3.801,0.32,5.62,0.811
					c0.851,0.229,1.84,0.359,2.601,0.85c0.63,0.41,1.04,1.09,1.729,1.48c0.57,0.319,1.74,0.409,1.97,0.79L140.82,117.5z"/>
				<path fill="#E5C47B" d="M140.8,110.42l-0.229,0.021c-1.311,0.55-2.431-0.86-2.891-1.921c-0.35-0.81-0.26-1.579-0.71-2.34
					c-0.42-0.68-0.779-1.319-1.06-2.1c-0.41-1.14-0.91-2.26-1.66-3.11c0.38,0.02,0.75,0.07,1.11,0.16
					c1.439,0.4,2.51,1.561,3.939,2.01l0.38-0.08C140.19,105.41,140.56,107.86,140.8,110.42z"/>
				<path fill="#E5C47B" d="M139.95,122.63c-0.16,0.84-0.351,1.67-0.55,2.49h-0.011c-0.239,0.81-1.26,1.31-1.81,1.83
					c-0.95,0.859-2.05,1.25-2.08,2.72c-0.02,1.061,0.78,1.85,1.16,2.71c-3.271-0.02-6.351-0.25-9.63-0.25
					c-3.05,0-5.8-0.62-8.561-1.28c0.011-0.51-0.05-1.029-0.22-1.51c-0.27-0.81-0.83-1.47-0.77-2.46c0.05-0.649,0.43-1.149,0.67-1.75
					c0.279-0.63,0.479-1.3,0.699-1.96C125.55,124.06,132.61,123.99,139.95,122.63z"/>
				<path fill="#E5C47B" d="M139.68,103.06l-0.38,0.08c-1.43-0.449-2.5-1.609-3.939-2.01c-0.36-0.09-0.73-0.14-1.11-0.16
					c-0.63-0.03-1.28-0.01-1.92-0.06c-0.3-0.02-0.62-0.05-0.92-0.12c-0.9-0.21-1.74-0.41-2.63-0.53
					c-1.771-0.25-3.55-0.34-5.351-0.39c-3.05-0.1-5.939,0.37-8.92,0.52c-3.97,0.2-7.3,2.23-10.88,3.87
					c-1.82,0.83-3.47,2.12-5.26,3.141c-0.04-0.23-0.05-0.471-0.12-0.71h-0.09c-0.05-0.71,0.06-1.54,0.24-2.181
					c0.21-0.729,0.7-0.99,0.92-1.75c0.24-0.8,0.07-1.79,0.52-2.53c0.5-0.79,0.89-1.04,1.14-2.03c0.2-0.8,0.45-0.8,0.83-1.41
					l0.011-0.01c4.33-2.38,9.819-2.59,14.529-3.76c0.5-0.12,0.99-0.26,1.45-0.4c0.07,0.11,0.141,0.23,0.23,0.32
					c0.22-0.04,0.52,0.07,0.75,0.03c0.47,0.8,1.21,2,2.35,1.38c0.771-0.42,0.271-0.87,1.23-0.41c0.27,0.13,0.529,0.47,0.79,0.62
					c0.619,0.34,1.29,0.21,1.84,0.61c0.45,0.33,0.729,1,1.319,1.29c1.25,0.59,4.101,1.08,4.9-0.36c0.72-1.29-1.9-1.43-2.61-2.03
					c-0.529-0.45-0.369-1.38-1.229-1.47c-0.73-0.06-0.96,0.7-1.75,0.52c0.04-1.19,0.97-1.46,0.46-1.93c0.95,0,1.91,0.02,2.86,0.02
					c2.359,0,5.159,0.35,7.35,1.19l0.03-0.01C137.74,95.68,138.88,99.23,139.68,103.06z"/>
				<path fill="#E5C47B" d="M139,126.73c-0.51,1.96-1.1,3.85-1.75,5.659c-0.2,0-0.4,0-0.59-0.01c-0.38-0.86-1.18-1.649-1.16-2.71
					c0.03-1.47,1.13-1.86,2.08-2.72c0.55-0.521,1.57-1.021,1.81-1.83h0.011C139.28,125.67,139.15,126.2,139,126.73z"/>
				<path fill="#E5C47B" d="M136.66,132.38c0.189,0.01,0.39,0.01,0.59,0.01c-0.14,0.37-0.27,0.75-0.42,1.101
					c-0.061,0.189-0.12,0.37-0.2,0.55c-0.01,0.02-0.01,0.03-0.03,0.05c-0.359,0.63-1.029,0.75-1.63,1.19
					c-0.95,0.7-1.529,1.569-2.13,2.54c-0.45,0.72-1.07,1.05-1.7,1.58c-0.55,0.47-0.85,1.279-1.409,1.75
					c-0.141,0.13-0.32,0.229-0.49,0.33c-0.62,0.1-1.24,0.199-1.87,0.229c-2.101,0.09-4.83,0.36-6.87-0.14
					c-0.83-0.2-3.55-0.58-5.73-1.261c-0.029-0.779-0.06-1.569,0.29-2.21c0.32-0.609,0.971-0.979,1.271-1.6
					c0.38-0.78,0.479-1.56,0.979-2.29c0.471-0.67,0.78-1.3,0.98-2.08c0.1-0.42,0.17-0.85,0.18-1.28
					c2.761,0.66,5.511,1.28,8.561,1.28C130.31,132.13,133.39,132.36,136.66,132.38z"/>
				<path fill="#E5C47B" d="M136.32,92.38v0.01l-0.03,0.01c-2.19-0.84-4.99-1.19-7.35-1.19c-0.95,0-1.91-0.02-2.86-0.02
					c-0.14-0.12-0.36-0.25-0.73-0.42c-1.01-0.46-1.609-0.52-1.3-1.83c1.4-0.04,1.62-0.66,1.3-1.84c-0.34-1.33-0.699-1.48-2-1.22
					c-0.22,0.04-0.399,0.09-0.55,0.15c1.32-1.54,2.9-3.46,4.601-5.57c0.54,0,1.1,0,1.659,0C131.93,83.93,134.39,87.9,136.32,92.38z"
					/>
				<path fill="#E5C47B" d="M134.97,135.28c0.601-0.44,1.271-0.561,1.63-1.19c-0.96,2.47-2.06,4.8-3.26,6.99l-0.07-0.03
					c-1.35-0.13-2.689,0.19-4.029,0.431c0.17-0.101,0.35-0.2,0.49-0.33c0.56-0.471,0.859-1.28,1.409-1.75
					c0.63-0.53,1.25-0.86,1.7-1.58C133.44,136.85,134.02,135.98,134.97,135.28z"/>
				<path fill="#E5C47B" d="M133.34,141.08c-1.939,3.53-4.17,6.7-6.63,9.53c-0.01,0.01-0.03,0.02-0.03,0.02
					c-2.359,2.021-7.109,0.25-10.05,0c-0.45-0.04-0.899-0.12-1.36-0.21c0.86-0.25,1.721-0.71,2.57-0.979
					c1.561-0.49,2.72-1.19,3.82-2.28c1.25-1.25,3.02-1.891,4.39-3.05c0.3-0.261,0.49-0.62,0.771-0.88
					c0.33-0.29,0.72-0.351,1.069-0.631c0.341-0.26,0.53-0.619,0.92-0.88c0.12-0.069,0.271-0.16,0.431-0.239
					c1.34-0.24,2.68-0.561,4.029-0.431L133.34,141.08z"/>
				<path fill="#E5C47B" d="M128.6,94.07c0.71,0.6,3.33,0.74,2.61,2.03c-0.8,1.44-3.65,0.95-4.9,0.36
					c-0.59-0.29-0.869-0.96-1.319-1.29c-0.55-0.4-1.221-0.27-1.84-0.61c-0.261-0.15-0.521-0.49-0.79-0.62
					c-0.96-0.46-0.46-0.01-1.23,0.41c-1.14,0.62-1.88-0.58-2.35-1.38c-0.23,0.04-0.53-0.07-0.75-0.03
					c-0.09-0.09-0.16-0.21-0.23-0.32c1.42-0.45,2.75-0.95,4.28-1.19c0.11,0.14,0.22,0.26,0.32,0.39c0.6,0.74,1.409,1.55,2.42,0.94
					c0.25-0.96,0.25-1.14-0.511-1.54c0.591-0.02,1.181-0.02,1.771-0.03c0.51,0.47-0.42,0.74-0.46,1.93
					c0.79,0.18,1.02-0.58,1.75-0.52C128.23,92.69,128.07,93.62,128.6,94.07z"/>
				<path fill="#E5C47B" d="M129.24,141.48c-0.16,0.079-0.311,0.17-0.431,0.239c-0.39,0.261-0.579,0.62-0.92,0.88
					c-0.35,0.28-0.739,0.341-1.069,0.631c-0.28,0.26-0.471,0.619-0.771,0.88c-1.37,1.159-3.14,1.8-4.39,3.05
					c-1.101,1.09-2.26,1.79-3.82,2.28c-0.85,0.27-1.71,0.729-2.57,0.979c-1.109-0.22-2.25-0.57-3.3-0.9
					c0.13-0.789,1.25-1.75,1.54-2.21c0.351-0.6,0.521-1.46,0.721-2.09c0.449-1.41,0.55-2.84,0.55-4.34c0-0.189,0-0.38-0.011-0.57
					c2.181,0.681,4.9,1.061,5.73,1.261c2.04,0.5,4.77,0.229,6.87,0.14C128,141.68,128.62,141.58,129.24,141.48z"/>
				<path fill="#E5C47B" d="M128.21,79.46c-0.29,0.34-0.55,0.68-0.81,1c-2.221,0.03-4.36,0.14-6.431,0.67
					c-1.55,0.38-3.13,0-4.689,0.24c-1.45,0.22-3.38,0.64-4.78,1.08c-1.54,0.49-2.92,1.25-4.43,1.78c-0.08-0.08-0.17-0.15-0.261-0.19
					c-0.449-0.24-1.239-0.35-1.189-1.04c0.05-1.03,2.05-1.49,2.6-2.09c0.971-1.1,0.05-3.14-0.55-4.19c-0.37-0.66-0.89-1.1-1.29-1.68
					c-0.24-0.35-0.42-0.72-0.6-1.09c0.79-0.37,1.609-0.65,2.439-0.87c2.28-0.61,4.61-1.04,7-1.16c1.79-0.09,3.45,0.31,5.181,0.38
					C123.22,74.36,125.84,76.75,128.21,79.46z"/>
				<path fill="#E5C47B" d="M125.35,90.77c0.37,0.17,0.591,0.3,0.73,0.42c-0.59,0.01-1.18,0.01-1.771,0.03
					c-0.05-0.03-0.1-0.06-0.159-0.09c-0.811-0.42-0.98-0.88-1.591-1.57c1.45-0.06,1.591-1,0.551-1.92
					c-0.431-0.37-0.771-0.7-0.851-0.98c0.181-0.2,0.351-0.41,0.54-0.63c0.15-0.06,0.33-0.11,0.55-0.15c1.301-0.26,1.66-0.11,2,1.22
					c0.32,1.18,0.101,1.8-1.3,1.84C123.74,90.25,124.34,90.31,125.35,90.77z"/>
				<path fill="#E5C47B" d="M124.31,91.22c0.761,0.4,0.761,0.58,0.511,1.54c-1.011,0.61-1.82-0.2-2.42-0.94
					c-0.101-0.13-0.21-0.25-0.32-0.39c0.3-0.05,0.61-0.09,0.93-0.13C123.44,91.26,123.88,91.24,124.31,91.22z"/>
				<path fill="#E5C47B" d="M124.15,91.13c0.06,0.03,0.109,0.06,0.159,0.09c-0.43,0.02-0.869,0.04-1.3,0.08
					c-0.319,0.04-0.63,0.08-0.93,0.13c-0.561-0.64-1.2-1.37-1.43-2.16c-0.07-0.25-0.091-0.51-0.11-0.75
					c0.479-0.48,1.06-1.12,1.72-1.86c0.08,0.28,0.42,0.61,0.851,0.98c1.04,0.92,0.899,1.86-0.551,1.92
					C123.17,90.25,123.34,90.71,124.15,91.13z"/>
				<path fill="#E5C47B" d="M52.51,95.18c-0.04,0.45-0.03,0.92-0.07,1.35c0.56,0.03,1.13,0.03,1.69,0.06
					c0.05,0.06,0.12,0.11,0.18,0.16c0.61,0.53,1.24,1.19,1.93,1.63c0.23,0.97,0.1,1.55,1.44,1.31c0.45-0.08,1.59-0.29,1.75-0.61
					l0.01-0.04c1.18,0.29,1.34-0.77,1.28-1.79c-0.43-0.1-0.75-0.25-1.21-0.27c-0.31-0.01-0.6,0.11-0.87,0.19
					c-0.15,0.04-0.29,0.08-0.44,0.07c-0.93-0.06-0.85-0.88-1.26-1.55c-0.45-0.75-1.04-1.15-1.97-1.07
					c-0.38,0.03-0.84,0.29-1.23,0.28c-0.53-0.01-0.67-0.33-1.12-0.35C52.57,94.75,52.53,94.96,52.51,95.18z M85.41,110.49
					c3.13,2.01,6.45,3.88,9.94,5.54c2.46,1.189,5,2.26,7.61,3.22c5.03,1.83,10.34,3.21,15.89,3.92c-0.22,0.66-0.42,1.33-0.699,1.96
					c-0.24,0.601-0.62,1.101-0.67,1.75c-0.061,0.99,0.5,1.65,0.77,2.46c0.17,0.48,0.23,1,0.22,1.51c-0.01,0.431-0.08,0.86-0.18,1.28
					c-0.2,0.78-0.51,1.41-0.98,2.08c-0.5,0.73-0.6,1.51-0.979,2.29c-0.3,0.62-0.95,0.99-1.271,1.6
					c-0.35,0.641-0.319,1.431-0.29,2.21c0.011,0.19,0.011,0.381,0.011,0.57c0,1.5-0.101,2.93-0.55,4.34
					c-0.2,0.63-0.37,1.49-0.721,2.09c-0.29,0.46-1.41,1.421-1.54,2.21c-0.029,0.23,0.011,0.44,0.181,0.631
					c0.279,0.3,1.319,0.399,1.729,0.449c0.47,0.04,0.93-0.029,1.39-0.18c0.461,0.09,0.91,0.17,1.36,0.21
					c2.94,0.25,7.69,2.021,10.05,0c-1.83,2.11-3.8,4.03-5.88,5.75c-5.28,0.67-10.439,0.74-15.45,0.33
					c-2.659-0.21-5.28-0.55-7.85-1.02c-3.52-0.65-6.94-1.511-10.26-2.53c-2.26-0.71-4.49-1.49-6.65-2.351
					c-5.34-2.1-10.36-4.619-14.98-7.34c0.84-0.39,2.04-1.649,2.58-1.97c0.33-0.2,1.27-0.62,1.46-1c0.27-0.56,0.01-1.89,0.01-2.51
					c0-1.54,0.9-1.99,2-2.811c0.03-0.01,0.07-0.04,0.1-0.06c0.59-0.45,0.91-0.66,1.33-1.33c0.57-0.91,0.87-1.29,1.84-1.56
					c0.6-0.16,1.26-0.28,1.77-0.721c0.73-0.63,0.64-1.37,0.85-2.26c0.3-1.34,0.28-3.55,1.64-4.2c1.04-0.51,2.39-0.45,3.04-1.689
					c0.73-1.4,0.08-2.721-0.57-3.94c-0.29-0.54-0.75-1.13-0.99-1.71c-2.98-0.17-6.73,0.31-9.26-1.41c-0.55-0.359-1.1-0.88-1.5-1.38
					c-0.42-0.52-0.45-1.18-0.8-1.67c-0.12-0.16-0.52-0.32-0.68-0.5c-0.25-0.27-0.31-0.72-0.54-0.98
					c-0.88-0.949-2.49-0.89-3.06-2.189c-0.87,0.03-0.58-1.34-0.61-1.92c-0.38-0.101-1-0.58-1.38-0.771
					c-0.39-0.199-1.17-0.479-1.24-0.899c-0.81,0.029-1.34-0.46-2.07-0.641c-0.88-1.72-3.72-1.399-5.11-0.34
					c-0.97-0.55-1.99-1.35-2.35-1.58c-0.9-0.58-1.88-1.41-2.77-1.899c-0.34-0.181-0.67-0.311-0.98-0.431
					c0.18-0.74,0.32-1.41,0.35-2.2c0.05-1.17-0.52-3.97-2.01-3.93c-1.09,0.02-2.38,2.6-3.07,0.96c-0.74-1.81,1.17-2.67,2.09-3.6
					c0.6-0.61,0.97-1.45,1.73-1.87c0.03-0.01,0.04-0.02,0.06-0.03c0.64-0.31,1.53-0.3,2.23-0.55c0.84-0.31,3.46-1.32,4.28-0.66
					c1.21,0.97-0.97,2.45-1.29,3.3c-0.09,0.25-0.11,0.59-0.16,0.86c0.84-0.07,1.21,0.24,1.96-0.25c0.55-0.36,1.24-0.96,1.71-1.4
					c0.6-0.57,1.14-1.37,1.63-2.09c0.56-0.83,0.54-1.81,1.4-2.41c2.08,2.54,4.59,5.35,7.51,8.26c2.87,2.85,6.13,5.79,9.74,8.63v0.02
					C79.25,106.33,82.24,108.48,85.41,110.49z M99.26,128.74c0-0.71-0.58-1.29-1.29-1.29c-0.72,0-1.29,0.58-1.29,1.29
					c0,0.72,0.57,1.29,1.29,1.29C98.68,130.03,99.26,129.46,99.26,128.74z"/>
				<path fill="#E5C47B" d="M127.4,80.46c-1.7,2.11-3.28,4.03-4.601,5.57c-0.189,0.22-0.359,0.43-0.54,0.63
					c-0.66,0.74-1.24,1.38-1.72,1.86c-0.05-1,0.17-1.99-0.87-2.63c-0.74-0.45-2.3-0.41-3.13-0.18c0.1,1.32,1.91,1.89,2.32,3.08
					c0.109,0.33,0.18,0.61,0.18,0.85c0,0.96-0.91,1.18-2.07,1.12c-0.109-0.97,1.271-0.87,0.57-2.09c-0.4-0.72-1.14-1.05-1.8-1.49
					c-1.07-0.7-1.62-1.13-2.98-1.13c-1,0-1.899,0.2-2.85,0.26c0.29,1.01,1.35,0.53,1.09,1.92c-0.21,1.06-0.54,2.1-1.73,2.19
					c-0.92,0.08-1.479-0.61-2.359-0.7c-0.51-0.05-0.96,0-1.4-0.13c-0.439-0.13-0.649-0.43-1.22-0.41c-0.11-1.02-0.46-1.84-1.08-2.61
					c-0.13-0.18-0.31-0.39-0.41-0.61c0.61-0.31,1.28-0.61,1.96-0.88c0.67-0.27,1.36-0.51,2-0.73c0.11-0.03,0.21-0.08,0.311-0.12
					c1.51-0.53,2.89-1.29,4.43-1.78c1.4-0.44,3.33-0.86,4.78-1.08c1.56-0.24,3.14,0.14,4.689-0.24
					C123.04,80.6,125.18,80.49,127.4,80.46z"/>
				<path fill="#E5C47B" d="M120.65,89.27c0.229,0.79,0.869,1.52,1.43,2.16c-1.53,0.24-2.86,0.74-4.28,1.19
					c-0.46-0.69-0.91-1.56-1.71-1.67c-1.1-0.17-2.33-0.13-3.41,0.08c-1.26,0.25-2.62,0.5-3.939,0.44c-1-0.05-2.26-0.48-3.221-0.33
					c-0.93,1.37-2.52,2.35-3.189,3.94c-0.25,0.61-0.19,1.17-0.51,1.7l-0.011,0.01c-0.27,0.15-0.529,0.31-0.779,0.46
					c-1.14,0.73-2.4,0.95-3.6,1.56c-0.9,0.46-2.96,2.709-3.9,2.23h-0.26c0-0.08,0-0.17,0-0.25c0-3.21,0.5-6.21,1.09-9.23l0.22,0.04
					c2.9-0.94,5.11-3.88,7.71-5.35c0.17-0.1,0.33-0.19,0.51-0.29c0.101,0.22,0.28,0.43,0.41,0.61c0.62,0.77,0.97,1.59,1.08,2.61
					c0.57-0.02,0.78,0.28,1.22,0.41c0.44,0.13,0.891,0.08,1.4,0.13c0.88,0.09,1.439,0.78,2.359,0.7c1.19-0.09,1.521-1.13,1.73-2.19
					c0.26-1.39-0.8-0.91-1.09-1.92c0.95-0.06,1.85-0.26,2.85-0.26c1.36,0,1.91,0.43,2.98,1.13c0.66,0.44,1.399,0.77,1.8,1.49
					c0.7,1.22-0.68,1.12-0.57,2.09c1.16,0.06,2.07-0.16,2.07-1.12l0.15-0.01c0.239-0.07,0.71-0.46,1.35-1.11
					C120.56,88.76,120.58,89.02,120.65,89.27z"/>
				<path fill="#E5C47B" d="M119.67,85.89c1.04,0.64,0.82,1.63,0.87,2.63c-0.64,0.65-1.11,1.04-1.35,1.11l-0.15,0.01
					c0-0.24-0.07-0.52-0.18-0.85c-0.41-1.19-2.221-1.76-2.32-3.08C117.37,85.48,118.93,85.44,119.67,85.89z"/>
				<path fill="#E5C47B" d="M118.77,117.81c0.75,0.421,1.721,1.21,1.591,2.24c-0.11,0.7-0.9,1.44-1.19,2.2
					c-0.11,0.3-0.22,0.6-0.32,0.92c-5.55-0.71-10.859-2.09-15.89-3.92l0.14-0.37c1.86-1.689,3.311-2.77,5.78-3.54
					c0.12-0.04,0.24-0.07,0.37-0.1c1.77-0.03,3.26,0.85,4.91,1.319C115.79,117.03,117.31,117,118.77,117.81z"/>
				<path fill="#E5C47B" d="M117.8,92.62c-0.46,0.14-0.95,0.28-1.45,0.4c-4.71,1.17-10.199,1.38-14.529,3.76
					c0.319-0.53,0.26-1.09,0.51-1.7c0.67-1.59,2.26-2.57,3.189-3.94c0.961-0.15,2.221,0.28,3.221,0.33
					c1.319,0.06,2.68-0.19,3.939-0.44c1.08-0.21,2.311-0.25,3.41-0.08C116.89,91.06,117.34,91.93,117.8,92.62z"/>
				<path fill="#E5C47B" d="M120.4,72.3c-1.73-0.07-3.391-0.47-5.181-0.38c-2.39,0.12-4.72,0.55-7,1.16
					c-0.83,0.22-1.649,0.5-2.439,0.87c-0.2-0.4-0.391-0.81-0.65-1.19c-0.55-0.81-0.729-1.92-1.189-2.8
					c-0.37-0.68-1.08-1.1-1.23-1.83c-0.18-0.86,0.271-1.75,0.08-2.63c-0.04-0.21-0.1-0.4-0.17-0.55c0.33-0.33,0.71-0.58,1.14-0.63
					C109.71,65.95,115.37,68.61,120.4,72.3z"/>
				<path fill="#E5C47B" d="M105.35,156.71c5.011,0.41,10.17,0.34,15.45-0.33c-3.89,3.26-8.149,5.851-12.64,7.84
					c-0.34-0.319-0.69-0.85-0.97-1.16c-0.37-0.869-0.931-1.619-1.381-2.43c-0.529-1.01-0.479-2.49-0.479-3.66L105.35,156.71z"/>
				<path fill="#E5C47B" d="M109.25,115.24c-0.13,0.029-0.25,0.06-0.37,0.1c-2.47,0.771-3.92,1.851-5.78,3.54l-0.14,0.37
					c-2.61-0.96-5.15-2.03-7.61-3.22l0.01-0.03c0.02-0.17-0.03-0.32-0.15-0.44c-0.67-1.239-1.12-2.579-1.41-3.989
					c1.07-1.42,2.91-3.261,4.42-4.09c0.05-0.03,0.09-0.051,0.15-0.08c0.02,0.17,0.06,0.34,0.14,0.489
					c0.15,0.271,0.57,0.57,0.77,0.82c0.6,0.75,1.39,1.2,2.201,1.85c0.59,0.46,1.319,1.28,1.77,1.891c0.4,0.53,0.73,1.78,1.55,1.68
					c0.33,0.47,0.73,1.05,1.32,1.21c0.75,0.21,1.939-0.02,2.7-0.08C108.96,115.24,109.1,115.24,109.25,115.24z"/>
				<path fill="#E5C47B" d="M107.67,76.72c0.6,1.05,1.521,3.09,0.55,4.19c-0.55,0.6-2.55,1.06-2.6,2.09
					c-0.05,0.69,0.74,0.8,1.189,1.04c0.091,0.04,0.181,0.11,0.261,0.19c-0.101,0.04-0.2,0.09-0.311,0.12
					c-0.64,0.22-1.33,0.46-2,0.73c-0.609-0.13-1.18-0.21-1.55-0.02c-0.52,0.27-0.55,0.6-0.41,0.9c-0.18,0.1-0.34,0.19-0.51,0.29
					c-2.6,1.47-4.81,4.41-7.71,5.35l-0.22-0.04c0.28-1.5,0.58-3.02,0.85-4.55c0.44-2.47,0.98-4.9,1.62-7.3l0.37,0.09
					c1.42-1.63,3.79-2.41,5.38-3.81c0.01-0.02,0.04-0.03,0.04-0.04c-0.03,0.17-0.04,0.34,0,0.49c0.149,0.69,0.6,0.49,1.12,0.89
					c1.16,0.93,0.319,2.98,0.55,4.33c0.14,0.01,0.28,0.02,0.42,0.02c0.021,0.01,0.06,0.01,0.08,0.01c0.02,0,0.03,0,0.05,0
					c0.91-0.01,1.33-1.8,2.49-1.86c0.03-0.57,0.27-1.26-0.061-1.76c-0.229-0.36-1.069-0.64-1.409-0.86
					c-0.431-0.27-0.83-0.62-1.23-1.04c-0.22-0.24-0.59-0.78-0.96-1.02c0.66-0.47,1.37-0.86,2.11-1.2c0.18,0.37,0.359,0.74,0.6,1.09
					C106.78,75.62,107.3,76.06,107.67,76.72z M102.53,80.46c0.239-0.83,1.029-2.02,0.42-2.79c-0.07-0.03-0.15-0.01-0.23-0.03
					c-0.08-0.35-0.33-0.56-0.7-0.49c-0.289,0.7-0.199,1.57-0.369,2.34c-0.131,0.61,0,1.69,0.909,1.01L102.53,80.46z"/>
				<path fill="#E5C47B" d="M107.27,78.07c0.33,0.5,0.091,1.19,0.061,1.76c-1.16,0.06-1.58,1.85-2.49,1.86c-0.02,0-0.03,0-0.05,0
					c-0.021,0-0.06,0-0.08-0.01c-0.14,0-0.28-0.01-0.42-0.02c-0.23-1.35,0.61-3.4-0.55-4.33c-0.521-0.4-0.971-0.2-1.12-0.89
					c-0.04-0.15-0.03-0.32,0-0.49c0.34-0.29,0.689-0.56,1.05-0.8c0.37,0.24,0.74,0.78,0.96,1.02c0.4,0.42,0.8,0.77,1.23,1.04
					C106.2,77.43,107.04,77.71,107.27,78.07z"/>
				<path fill="#E5C47B" d="M107.19,163.06c0.279,0.311,0.63,0.841,0.97,1.16c-0.641,0.28-1.29,0.55-1.95,0.8L106.2,165
					c-0.26-1.29-3.17-0.99-4.19-0.87c-0.71,0.09-1.18,0.47-1.79,0.69c-0.52-0.811-0.96-1.771-1.31-2.65
					c-0.68-1.75-2.32-4.56-1.41-6.479c2.57,0.47,5.19,0.81,7.85,1.02l-0.02,0.26c0,1.17-0.05,2.65,0.479,3.66
					C106.26,161.44,106.82,162.19,107.19,163.06z"/>
				<path fill="#E5C47B" d="M106.2,165l0.01,0.02c-1.49,0.601-2.99,1.131-4.52,1.58l-0.03-0.109c-0.51-0.37-1.01-0.971-1.44-1.67
					c0.61-0.221,1.08-0.601,1.79-0.69C103.03,164.01,105.94,163.71,106.2,165z"/>
				<path fill="#E5C47B" d="M105.13,72.76c0.26,0.38,0.45,0.79,0.65,1.19c-0.74,0.34-1.45,0.73-2.11,1.2
					c-0.11-0.09-0.22-0.13-0.33-0.13c-0.33-0.01-0.63,0.47-0.72,0.93c0,0.01-0.03,0.02-0.04,0.04c-1.59,1.4-3.96,2.18-5.38,3.81
					l-0.37-0.09c0.72-2.7,1.55-5.36,2.44-8.05c0.63-1.87,1.4-3.68,2.39-5.38c0.25-0.43,0.58-0.95,0.96-1.33
					c0.07,0.15,0.13,0.34,0.17,0.55c0.19,0.88-0.26,1.77-0.08,2.63c0.15,0.73,0.86,1.15,1.23,1.83
					C104.4,70.84,104.58,71.95,105.13,72.76z"/>
				<path fill="#E5C47B" d="M102.95,77.67c0.609,0.77-0.181,1.96-0.42,2.79l0.029,0.04c-0.909,0.68-1.04-0.4-0.909-1.01
					c0.17-0.77,0.08-1.64,0.369-2.34c0.37-0.07,0.62,0.14,0.7,0.49C102.8,77.66,102.88,77.64,102.95,77.67z"/>
				<path fill="#E5C47B" d="M103.76,64.32c-0.43,0.05-0.81,0.3-1.14,0.63c-0.561-1.36-1.92-1.39-3.4-1.2
					c-0.89,0.12-1.1,0.61-1.78,1.12c-0.55,0.42-1.04,0.51-1.27,1.26c-0.23,0.72-0.06,1.44-0.54,2.13c-0.76,1.09-2.13,1.91-3.41,1.96
					c-1.72,0.07-2.64,0.8-3.57,2.19c-0.14,0.21-0.38,0.5-0.65,0.79c0.23-1.13,0.48-2.25,0.79-3.37c0.42-1.6,0.83-3.27,1.7-4.73
					c0.51-0.87,1.25-1.57,1.2-2.61v-0.07C95.77,62.6,99.82,63.24,103.76,64.32z"/>
				<path fill="#E5C47B" d="M102.62,64.95c-0.38,0.38-0.71,0.9-0.96,1.33c-0.99,1.7-1.76,3.51-2.39,5.38
					c-0.89,2.69-1.72,5.35-2.44,8.05c-0.64,2.4-1.18,4.83-1.62,7.3c-0.27,1.53-0.57,3.05-0.85,4.55c-0.59,3.02-1.09,6.02-1.09,9.23
					c0,0.08,0,0.17,0,0.25c-0.01,3.36-0.18,7.13,0.53,10.53c0.29,1.41,0.74,2.75,1.41,3.989c0.12,0.12,0.17,0.271,0.15,0.44
					l-0.01,0.03c-3.49-1.66-6.81-3.53-9.94-5.54c-0.88-3.29-0.52-7.45-0.91-10.8c-0.21-1.88-0.21-3.78-0.02-5.65
					c0.46-4.6,1.11-9.36,2.12-13.85c0.53-2.33,0.92-4.66,1.4-6.99c0.27-0.29,0.51-0.58,0.65-0.79c0.93-1.39,1.85-2.12,3.57-2.19
					c1.28-0.05,2.65-0.87,3.41-1.96c0.48-0.69,0.31-1.41,0.54-2.13c0.23-0.75,0.72-0.84,1.27-1.26c0.68-0.51,0.89-1,1.78-1.12
					C100.7,63.56,102.06,63.59,102.62,64.95z"/>
				<path fill="#E5C47B" d="M101.03,97.25c0.25-0.15,0.51-0.31,0.779-0.46c-0.38,0.61-0.63,0.61-0.83,1.41
					c-0.25,0.99-0.64,1.24-1.14,2.03c-0.45,0.74-0.28,1.73-0.52,2.53c-0.22,0.76-0.71,1.021-0.92,1.75
					c-0.18,0.641-0.29,1.471-0.24,2.181h0.09c0.07,0.239,0.08,0.479,0.12,0.71c-0.06,0.029-0.1,0.05-0.15,0.08
					c-1.51,0.829-3.35,2.67-4.42,4.09c-0.71-3.4-0.54-7.17-0.53-10.53h0.26c0.94,0.479,3-1.77,3.9-2.23
					C98.63,98.2,99.89,97.98,101.03,97.25z"/>
				<path fill="#E5C47B" d="M101.66,166.49l0.03,0.109c-2.22,0.67-4.48,1.2-6.76,1.601c-0.89-0.32-2.52-2.16-3.84-3.851
					c0.14,0.021,0.29,0.03,0.42,0.04c1.98,0.181,4.01-0.38,5.95,0c0.8,0.17,1.57,0.74,2.47,0.53c0.1-0.02,0.2-0.05,0.29-0.1
					C100.65,165.52,101.15,166.12,101.66,166.49z"/>
				<path fill="#E5C47B" d="M100.22,164.82c-0.09,0.05-0.19,0.08-0.29,0.1c-0.9,0.21-1.67-0.36-2.47-0.53
					c-1.94-0.38-3.97,0.181-5.95,0c-0.13-0.01-0.28-0.02-0.42-0.04c-0.79-1.02-1.45-2-1.77-2.56c-1.6-2.9-1.14-5.66-2.08-8.63
					c3.32,1.02,6.74,1.88,10.26,2.53c-0.91,1.92,0.73,4.729,1.41,6.479C99.26,163.05,99.7,164.01,100.22,164.82z"/>
				<path d="M97.97,127.45c0.71,0,1.29,0.58,1.29,1.29c0,0.72-0.58,1.29-1.29,1.29c-0.72,0-1.29-0.57-1.29-1.29
					C96.68,128.03,97.25,127.45,97.97,127.45z"/>
				<path fill="#E5C47B" d="M91.09,164.35c1.32,1.69,2.95,3.53,3.84,3.851c-3.01,0.54-6.05,0.83-9.08,0.899
					c-1.65-0.56-3.34-3.14-4.77-6.18c1.36,0.48,2.39,0.88,3.89,0.95C87,163.95,89.07,164.16,91.09,164.35z"/>
				<path fill="#E5C47B" d="M91.69,62.49c0.05,1.04-0.69,1.74-1.2,2.61c-0.87,1.46-1.28,3.13-1.7,4.73
					c-0.31,1.12-0.56,2.24-0.79,3.37c-0.81,0.84-1.99,1.67-2.44,0.34c-0.17-0.54,0.11-1.4,0.55-1.81c0.39-0.37,1.35-0.42,1.23-1.09
					c-0.13-0.67-1.08-0.5-1.44-1.1c-0.28-0.45-0.32-1.37-0.24-1.94c0.22-1.58,2.96-2.6,2.5-4.27c-0.15-0.52-0.42-0.82-0.97-0.82
					v-0.12c1.5-0.06,3-0.05,4.5,0.03V62.49z"/>
				<path fill="#E5C47B" d="M89.32,161.79c0.32,0.56,0.98,1.54,1.77,2.56c-2.02-0.189-4.09-0.399-6.12-0.479
					c-1.5-0.07-2.53-0.47-3.89-0.95c-2.03-4.35-3.52-9.63-3.55-11.38l-0.01-0.12c0.94-0.1,1.91-0.14,2.89-0.14l0.18-0.471
					c2.16,0.86,4.39,1.641,6.65,2.351C88.18,156.13,87.72,158.89,89.32,161.79z"/>
				<path fill="#E5C47B" d="M88.16,63.33c0.46,1.67-2.28,2.69-2.5,4.27c-0.08,0.57-0.04,1.49,0.24,1.94c0.36,0.6,1.31,0.43,1.44,1.1
					c0.12,0.67-0.84,0.72-1.23,1.09c-0.44,0.41-0.72,1.27-0.55,1.81c0.45,1.33,1.63,0.5,2.44-0.34c-0.48,2.33-0.87,4.66-1.4,6.99
					c-1.01,4.49-1.66,9.25-2.12,13.85c-0.19,1.87-0.19,3.77,0.02,5.65c0.39,3.35,0.03,7.51,0.91,10.8
					c-3.17-2.01-6.16-4.16-8.93-6.351v-0.02c-1.47-1.73-0.34-4.6-0.4-6.77c-0.1-3.53,0.05-7.11,0.4-10.6
					c0.33-3.38,0.85-6.85,1.47-10.23c0.06-0.31,0.11-0.64,0.18-0.99c0.99-0.79,1.82-2.16,1.3-3.29c-0.11-0.24-0.29-0.44-0.5-0.62
					c0.13-0.49,0.26-0.98,0.4-1.46c0.2,0.41,0.37,0.87,0.73,1.03c1.06,0.45,1.56-0.53,2.19-1.06c0.73-0.62,1.39-0.85,1.57-1.84
					c0.23-1.24-0.3-1.35-1.07-1.9c-0.33-0.24-0.7-0.48-1.09-0.71c0.81-1.01,1.68-2.03,1.96-3.06c1.19-0.12,2.37-0.2,3.57-0.23v0.12
					C87.74,62.51,88.01,62.81,88.16,63.33z"/>
				<path fill="#E5C47B" d="M85.85,169.1c-3.15,0.08-6.29-0.09-9.37-0.5v-0.01c-1.16-2.24-2.26-4.5-3.16-6.97
					c0.95,0.46,1.96,0.97,2.87,0.74c0.93-0.23,1.57-0.641,2.66-0.33c0.62,0.18,1.33,0.569,2,0.8c0.09,0.03,0.16,0.05,0.23,0.09
					C82.51,165.96,84.2,168.54,85.85,169.1z"/>
				<path fill="#E5C47B" d="M82.75,66.39c0.77,0.55,1.3,0.66,1.07,1.9c-0.18,0.99-0.84,1.22-1.57,1.84
					c-0.63,0.53-1.13,1.51-2.19,1.06c-0.36-0.16-0.53-0.62-0.73-1.03c0.31-0.97,0.65-1.9,1.08-2.72c0.3-0.57,0.76-1.16,1.25-1.76
					C82.05,65.91,82.42,66.15,82.75,66.39z"/>
				<path fill="#E5C47B" d="M47.18,112.98c0.53-1.091,1.28-2.091,2-3.08c0.46-0.641,0.78-1.36,1.49-1.721
					c0.67-0.359,1.52-0.25,2.2-0.62c0.94-0.529,0.6-1.739,1.4-2.439c0.05-0.04,0.1-0.08,0.15-0.11c1.39-1.06,4.23-1.38,5.11,0.34
					c0.73,0.181,1.26,0.67,2.07,0.641c0.07,0.42,0.85,0.7,1.24,0.899c0.38,0.19,1,0.67,1.38,0.771c0.03,0.58-0.26,1.95,0.61,1.92
					c0.57,1.3,2.18,1.24,3.06,2.189c0.23,0.261,0.29,0.711,0.54,0.98c0.16,0.18,0.56,0.34,0.68,0.5c0.35,0.49,0.38,1.15,0.8,1.67
					c0.4,0.5,0.95,1.021,1.5,1.38c2.53,1.72,6.28,1.24,9.26,1.41c0.24,0.58,0.7,1.17,0.99,1.71c0.65,1.22,1.3,2.54,0.57,3.94
					c-0.65,1.239-2,1.18-3.04,1.689c-1.36,0.65-1.34,2.86-1.64,4.2c-0.21,0.89-0.12,1.63-0.85,2.26
					c-0.51,0.44-1.17,0.561-1.77,0.721c-0.97,0.27-1.27,0.649-1.84,1.56c-0.42,0.67-0.74,0.88-1.33,1.33
					c-0.03,0.02-0.07,0.05-0.1,0.06c-1.1,0.82-2,1.271-2,2.811c0,0.62,0.26,1.95-0.01,2.51c-0.19,0.38-1.13,0.8-1.46,1
					c-0.54,0.32-1.74,1.58-2.58,1.97c-3.75-2.189-7.23-4.52-10.43-6.859c-0.11-0.92,0.1-1.9-0.21-2.79
					c-0.27-0.771-0.66-1.48-0.89-2.19c-0.41-1.229-0.99-2.649-1.8-3.7c-0.52-0.68-0.85-1.39-1.18-2.12
					c-0.29-0.64-0.68-1.02-1.03-1.64c-0.38-0.66-0.3-1.54-0.55-2.27c-0.23-0.681-0.63-0.92-1.02-1.471
					c-1.24-1.68-2.42-3.819-1.84-6.05C46.79,113.89,46.96,113.43,47.18,112.98z M66.74,116.15c0-0.71-0.59-1.29-1.3-1.29
					s-1.29,0.58-1.29,1.29s0.58,1.29,1.29,1.29S66.74,116.86,66.74,116.15z"/>
				<path fill="#E5C47B" d="M83.62,62.62c-0.28,1.03-1.15,2.05-1.96,3.06c-0.49,0.6-0.95,1.19-1.25,1.76
					c-0.43,0.82-0.77,1.75-1.08,2.72c-0.14,0.48-0.27,0.97-0.4,1.46c-0.32,1.32-0.57,2.68-0.8,3.91c-0.29,0.22-0.58,0.41-0.86,0.53
					c-1.62,0.68-3.05-0.64-4.55-0.77c-1.24-0.09-2.79,0.36-3.41,1.47c0.78,0.02,1.61-0.34,2.29-0.66c0.71-0.32,2.37-0.58,2.77,0.36
					c0.35,0.82-0.71,1.84-1.23,2.34c-1.09,1.03-1.18-0.38-2.17-0.71c-0.71-0.24-2.47,0.03-3.16,0.27c-0.16,0.05-0.3,0.11-0.45,0.17
					c0.46-2.54,1.44-5.08,2.26-7.57c0.73-2.28,1.97-4.95,3.85-6.41c0,0,0,0,0.01,0c2.21-0.64,4.47-1.15,6.74-1.49l0.01-0.01
					C81.36,62.87,82.49,62.73,83.62,62.62z"/>
				<path fill="#E5C47B" d="M81.08,162.92c-0.07-0.04-0.14-0.06-0.23-0.09c-0.67-0.23-1.38-0.62-2-0.8
					c-1.09-0.311-1.73,0.1-2.66,0.33c-0.91,0.229-1.92-0.28-2.87-0.74c-0.1-0.29-0.21-0.59-0.31-0.9
					c-0.79-2.319-2.26-4.38-2.83-6.819l-0.24-0.57c2.43-1,4.92-1.64,7.58-1.91l0.01,0.12C77.56,153.29,79.05,158.57,81.08,162.92z"
					/>
				<path fill="#E5C47B" d="M64.31,146.19c0.14-0.21,0.31-0.4,0.52-0.521c0.19-0.65-0.09-1.55,0.3-2.07
					c0.13,0.011,0.3-0.029,0.48-0.13c4.62,2.721,9.64,5.24,14.98,7.34l-0.18,0.471c-0.98,0-1.95,0.04-2.89,0.14
					c-2.66,0.271-5.15,0.91-7.58,1.91c-0.92,0.39-1.82,0.82-2.72,1.33c-0.01-0.44-0.12-0.891-0.3-1.18
					c-0.5-0.82-1.21-0.881-1.53-1.7c-0.33-0.83-0.37-1.66-1.14-2.28c-0.8-0.67-1.16-0.93-1.14-2.06
					C63.71,147.24,63.97,146.66,64.31,146.19z"/>
				<path fill="#E5C47B" d="M78.13,75.53c-0.07,0.35-0.12,0.68-0.18,0.99c-0.62,3.38-1.14,6.85-1.47,10.23
					c-0.35,3.49-0.5,7.07-0.4,10.6c0.06,2.17-1.07,5.04,0.4,6.77c-3.61-2.84-6.87-5.78-9.74-8.63c-1.03-2.52-0.36-6.38-0.23-9.01
					c0.13-2.56,0.37-5.05,0.78-7.56c0.02-0.12,0.04-0.26,0.07-0.39c0.15-0.06,0.29-0.12,0.45-0.17c0.69-0.24,2.45-0.51,3.16-0.27
					c0.99,0.33,1.08,1.74,2.17,0.71c0.52-0.5,1.58-1.52,1.23-2.34c-0.4-0.94-2.06-0.68-2.77-0.36c-0.68,0.32-1.51,0.68-2.29,0.66
					c0.62-1.11,2.17-1.56,3.41-1.47c1.5,0.13,2.93,1.45,4.55,0.77C77.55,75.94,77.84,75.75,78.13,75.53z"/>
				<path fill="#E5C47B" d="M76.48,168.59v0.01c-2.7-0.35-5.35-0.869-7.94-1.569c-0.42-1.53-0.78-3.07-1.12-4.65
					c0.64-0.189,0.42-0.59,0.67-1.479c1.37-0.04,2.75-0.061,4.01,0.25c0.39,0.1,0.8,0.27,1.22,0.47
					C74.22,164.09,75.32,166.35,76.48,168.59z"/>
				<path fill="#E5C47B" d="M73.01,160.72c0.1,0.311,0.21,0.61,0.31,0.9c-0.42-0.2-0.83-0.37-1.22-0.47
					c-1.26-0.311-2.64-0.29-4.01-0.25c-0.25,0.89-0.03,1.29-0.67,1.479c-0.04-0.2-0.08-0.41-0.12-0.61
					c-0.4-1.93-1.91-3.069-2.77-4.8l-0.19-0.229c0.16-0.141,0.32-0.271,0.48-0.4c0.68,0.11,1.56,0.05,1.95-0.29
					c0.33-0.27,0.46-0.84,0.45-1.39c0.9-0.51,1.8-0.94,2.72-1.33l0.24,0.57C70.75,156.34,72.22,158.4,73.01,160.72z"/>
				<path fill="#E5C47B" d="M67.37,66.7c1.99-0.84,4.03-1.55,6.1-2.15c-1.88,1.46-3.12,4.13-3.85,6.41
					c-0.82,2.49-1.8,5.03-2.26,7.57c-0.81,0.38-1.42,0.96-1.97,1.68c-0.89,1.19-1.08,3.02-2.01,4.34c-0.48,0.67-1.14,1.2-1.81,1.65
					c-0.69,0.47-1.53,0.54-2.25,0.97c-0.03,0.02-0.06,0.04-0.09,0.06c-4.9-6.01-7.3-10.52-6.64-11.15l-0.01-0.01
					C57,72.07,62.03,68.96,67.37,66.7z"/>
				<path fill="#E5C47B" d="M67.42,162.38c0.34,1.58,0.7,3.12,1.12,4.65c-2.42-0.65-4.78-1.45-7.06-2.391
					c0.7-0.22,0.64-1.14,1.12-1.63c0.61-0.64,1.34-0.55,2.16-0.55c0.71,0,1.48,0.09,2.19,0C67.15,162.44,67.3,162.42,67.42,162.38z"
					/>
				<path fill="#E5C47B" d="M67.3,161.77c0.04,0.2,0.08,0.41,0.12,0.61c-0.12,0.04-0.27,0.061-0.47,0.08c-0.71,0.09-1.48,0-2.19,0
					c-0.82,0-1.55-0.09-2.16,0.55c-0.48,0.49-0.42,1.41-1.12,1.63c-1.55-0.63-3.07-1.35-4.54-2.109l0.13-0.23
					c1.19-1.8,2.67-2.649,4.51-3.609c0.94-0.511,1.87-1.23,2.76-1.95l0.19,0.229C65.39,158.7,66.9,159.84,67.3,161.77z"/>
				<path fill="#E5C47B" d="M67.36,78.53c-0.03,0.13-0.05,0.27-0.07,0.39c-0.41,2.51-0.65,5-0.78,7.56
					c-0.13,2.63-0.8,6.49,0.23,9.01c-2.92-2.91-5.43-5.72-7.51-8.26c0.03-0.02,0.06-0.04,0.09-0.06c0.72-0.43,1.56-0.5,2.25-0.97
					c0.67-0.45,1.33-0.98,1.81-1.65c0.93-1.32,1.12-3.15,2.01-4.34C65.94,79.49,66.55,78.91,67.36,78.53z"/>
				<path fill="#E5C47B" d="M67.22,154.66c-0.04,0.02-0.08,0.04-0.12,0.06c-0.77,0.42-1.52,1.011-2.28,1.62
					c-0.27-0.04-0.5-0.1-0.67-0.189c-0.87-0.46-1.35-1.271-2.09-1.83c-0.05-0.431-0.51-0.57-0.82-0.84
					c-0.29-0.271-0.4-0.41-0.61-0.79c-0.33-0.57-0.75-1.171-1.14-1.74c-0.63-0.931-1.09-2.601-1.26-3.74
					c2.04-0.65,4.06-0.979,6.08-1.02c-0.34,0.47-0.6,1.05-1.2,1.25c-0.02,1.13,0.34,1.39,1.14,2.06c0.77,0.62,0.81,1.45,1.14,2.28
					c0.32,0.819,1.03,0.88,1.53,1.7C67.1,153.77,67.21,154.22,67.22,154.66z"/>
				<path d="M65.44,114.86c0.71,0,1.3,0.58,1.3,1.29s-0.59,1.29-1.3,1.29s-1.29-0.58-1.29-1.29S64.73,114.86,65.44,114.86z"/>
				<path fill="#E5C47B" d="M55.87,140.47c-0.05-0.16-0.09-0.319-0.11-0.489c-0.15-1.021-0.27-1.9-0.51-2.891
					c-0.04-0.149-0.06-0.32-0.07-0.479c3.2,2.34,6.68,4.67,10.43,6.859c-0.18,0.101-0.35,0.141-0.48,0.13
					c-0.39,0.521-0.11,1.42-0.3,2.07c-0.21,0.12-0.38,0.311-0.52,0.521c-2.02,0.04-4.04,0.369-6.08,1.02c0-0.02-0.01-0.04-0.01-0.07
					c-0.12-0.899-0.68-1.56-0.9-2.42c-0.2-0.83-0.16-1.56-0.52-2.35C56.51,141.72,56.09,141.14,55.87,140.47z"/>
				<path fill="#E5C47B" d="M64.82,156.34c-0.16,0.13-0.32,0.26-0.48,0.4c-0.89,0.72-1.82,1.439-2.76,1.95
					c-1.84,0.96-3.32,1.81-4.51,3.609l-0.13,0.23c-4.35-2.29-8.34-5.13-11.77-8.521l0.09-0.109c0.26,0.159,0.53,0.26,0.82,0.31
					c2.53-2.76,7.69-5.38,11.19-6.67c0.32-0.11,0.64-0.23,0.96-0.33c0.17,1.14,0.63,2.81,1.26,3.74c0.39,0.569,0.81,1.17,1.14,1.74
					c0.21,0.38,0.32,0.52,0.61,0.79c0.31,0.27,0.77,0.409,0.82,0.84c0.74,0.56,1.22,1.37,2.09,1.83
					C64.32,156.24,64.55,156.3,64.82,156.34z"/>
				<path fill="#E5C47B" d="M60.72,97.25c0.06,1.02-0.1,2.08-1.28,1.79l-0.01,0.04c-0.16,0.32-1.3,0.53-1.75,0.61
					c-1.34,0.24-1.21-0.34-1.44-1.31c0.71,0.46,1.49,0.71,2.38,0.42c0.03-0.54,0.02-1.1,0.02-1.63c0.27-0.08,0.56-0.2,0.87-0.19
					C59.97,97,60.29,97.15,60.72,97.25z"/>
				<path fill="#E5C47B" d="M58.64,97.17c0,0.53,0.01,1.09-0.02,1.63c-0.89,0.29-1.67,0.04-2.38-0.42
					c-0.02-0.09-0.04-0.18-0.07-0.28c-0.34-1.11-0.29-1.36-1.46-1.48c-0.19-0.02-0.38-0.03-0.58-0.03c-0.58-0.5-1.12-0.96-1.62-1.41
					c0.02-0.22,0.06-0.43,0.11-0.63c0.45,0.02,0.59,0.34,1.12,0.35c0.39,0.01,0.85-0.25,1.23-0.28c0.93-0.08,1.52,0.32,1.97,1.07
					c0.41,0.67,0.33,1.49,1.26,1.55C58.35,97.25,58.49,97.21,58.64,97.17z"/>
				<path fill="#E5C47B" d="M59.23,87.23c-0.86,0.6-0.84,1.58-1.4,2.41c-0.49,0.72-1.03,1.52-1.63,2.09
					c-0.47,0.44-1.16,1.04-1.71,1.4c-0.75,0.49-1.12,0.18-1.96,0.25c0.05-0.27,0.07-0.61,0.16-0.86c0.32-0.85,2.5-2.33,1.29-3.3
					c-0.82-0.66-3.44,0.35-4.28,0.66c-0.7,0.25-1.59,0.24-2.23,0.55c-0.02,0.01-0.03,0.02-0.06,0.03c-1.27-1.42-2.27-2.99-2.93-4.88
					l-0.09-0.07c2.4-3.55,5.15-6.7,8.19-9.44l0.01,0.01C51.93,76.71,54.33,81.22,59.23,87.23z"/>
				<path fill="#E5C47B" d="M58.22,147.14c0,0.03,0.01,0.051,0.01,0.07c-0.32,0.1-0.64,0.22-0.96,0.33
					c-3.5,1.29-8.66,3.91-11.19,6.67c-0.29-0.05-0.56-0.15-0.82-0.31l-0.09,0.109c-2-1.99-3.82-4.149-5.42-6.49l0.27-0.18
					c1.31-0.04,3.42-2.3,4.73-3.21c1.75-1.21,2.95-1.72,4.91-2.36c2.02-0.649,4.1-1.159,6.21-1.3c0.22,0.67,0.64,1.25,0.93,1.9
					c0.36,0.79,0.32,1.52,0.52,2.35C57.54,145.58,58.1,146.24,58.22,147.14z"/>
				<path fill="#28BF22" d="M56.17,98.1c0.03,0.1,0.05,0.19,0.07,0.28c-0.69-0.44-1.32-1.1-1.93-1.63c-0.06-0.05-0.13-0.1-0.18-0.16
					c0.2,0,0.39,0.01,0.58,0.03C55.88,96.74,55.83,96.99,56.17,98.1z"/>
				<path fill="#E5C47B" d="M55.76,139.98c0.02,0.17,0.06,0.329,0.11,0.489c-2.11,0.141-4.19,0.65-6.21,1.3
					c-1.96,0.641-3.16,1.15-4.91,2.36c-1.31,0.91-3.42,3.17-4.73,3.21l-0.27,0.18c-1.57-2.319-2.93-4.81-4.02-7.479l0.09-0.04
					c0.68-1.87,5.24-3.94,7.08-4.45c1.48-0.42,3.24-1.22,4.79-1.319c1.78-0.12,3.07,0.77,4.92,0.52l0.04-0.05
					c0.82,0.64,1.67,1.27,2.53,1.91c0.01,0.159,0.03,0.33,0.07,0.479C55.49,138.08,55.61,138.96,55.76,139.98z"/>
				<path fill="#E5C47B" d="M45.19,128.46c-6.72-6.08-10.94-11.31-11.97-13.43c0.56-3.57,1.51-7.28,2.85-11.15l0.15,0.061
					c1.27,2.069,3.66,3.149,5.23,5.069c1.06,1.29,2.34,1.92,3.68,2.92c0.76,0.57,1.38,0.891,2.05,1.051
					c-0.22,0.449-0.39,0.909-0.52,1.399c-0.58,2.23,0.6,4.37,1.84,6.05c0.39,0.551,0.79,0.79,1.02,1.471
					c0.25,0.729,0.17,1.609,0.55,2.27c0.35,0.62,0.74,1,1.03,1.64c0.33,0.73,0.66,1.44,1.18,2.12c0.81,1.051,1.39,2.471,1.8,3.7
					c0.23,0.71,0.62,1.42,0.89,2.19c0.31,0.89,0.1,1.87,0.21,2.79c-0.86-0.641-1.71-1.271-2.53-1.91
					C49.91,132.58,47.41,130.47,45.19,128.46z"/>
				<path fill="#E5C47B" d="M37.28,100.88c0.58-2,1.25-3.92,2.01-5.77c1.07,0.98,3.12,0.24,3.43,1.7c0.17,0.75,0.16,2.13,0,2.89
					c-0.09,0.49-0.45,0.86-0.41,1.28c0.03,0.24,0.33,0.65,0.44,0.88c0.74,0.159,1.51-0.36,2.32-0.32c0.96,1.49-0.48,3.55,0.82,4.979
					c0.81,0.881,1.08,0.62,2.08,0.37c1.01-0.26,0.88,0.25,1.39,0.7l0.02-0.03c0.84-0.579,1.5-1.5,1.29-2.609
					c-0.92-0.38-3.65,0.38-3.33-1.351c0.04-0.25,0.43-0.569,0.55-0.84c0.2-0.479,0.29-1.1,0.41-1.58c0.01-0.02,0.01-0.06,0.02-0.08
					c0.31,0.12,0.64,0.25,0.98,0.431c0.89,0.489,1.87,1.319,2.77,1.899c0.36,0.23,1.38,1.03,2.35,1.58
					c-0.05,0.03-0.1,0.07-0.15,0.11c-0.8,0.7-0.46,1.91-1.4,2.439c-0.68,0.37-1.53,0.261-2.2,0.62c-0.71,0.36-1.03,1.08-1.49,1.721
					c-0.72,0.989-1.47,1.989-2,3.08c-0.67-0.16-1.29-0.48-2.05-1.051c-1.34-1-2.62-1.63-3.68-2.92c-1.57-1.92-3.96-3-5.23-5.069
					l-0.15-0.061c0.36-0.99,0.74-2,1.13-3.02L37.28,100.88z"/>
				<path fill="#E5C47B" d="M52.65,134.7l-0.04,0.05c-1.85,0.25-3.14-0.64-4.92-0.52c-1.55,0.1-3.31,0.899-4.79,1.319
					c-1.84,0.51-6.4,2.58-7.08,4.45l-0.09,0.04c-1.06-2.56-1.88-5.28-2.42-8.14l0.15-0.03c2.78-2.95,7.58-3.39,11.73-3.41
					C47.41,130.47,49.91,132.58,52.65,134.7z"/>
				<path fill="#E5C47B" d="M50.67,104.95c0.21,1.109-0.45,2.03-1.29,2.609l-0.02,0.03c-0.51-0.45-0.38-0.96-1.39-0.7
					c-1,0.25-1.27,0.511-2.08-0.37c-1.3-1.43,0.14-3.489-0.82-4.979c-0.81-0.04-1.58,0.479-2.32,0.32
					c-0.11-0.23-0.41-0.641-0.44-0.88c-0.04-0.42,0.32-0.79,0.41-1.28c0.16-0.76,0.17-2.14,0-2.89c-0.31-1.46-2.36-0.72-3.43-1.7
					c0.35-0.86,0.73-1.71,1.12-2.54c0.74,1.08,1.01,2.64,2.13,3.62c0.36,0.33,1.01,0.51,1.29,0.82c0.31,0.35,0.35,1.03,0.64,1.42
					c0.43,0.59,1.36,1.22,1.94,1.7c0.67,0.55,1.27,0.74,1.91,0.97c-0.01,0.021-0.01,0.061-0.02,0.08
					c-0.12,0.48-0.21,1.101-0.41,1.58c-0.12,0.271-0.51,0.59-0.55,0.84C47.02,105.33,49.75,104.57,50.67,104.95z"/>
				<path fill="#E5C47B" d="M46.66,94.97c1.49-0.04,2.06,2.76,2.01,3.93c-0.03,0.79-0.17,1.46-0.35,2.2
					c-0.64-0.229-1.24-0.419-1.91-0.97c-0.58-0.48-1.51-1.11-1.94-1.7c-0.29-0.39-0.33-1.07-0.64-1.42
					c-0.28-0.31-0.93-0.49-1.29-0.82c-1.12-0.98-1.39-2.54-2.13-3.62c1.17-2.5,2.5-4.86,3.98-7.06l0.09,0.07
					c0.66,1.89,1.66,3.46,2.93,4.88c-0.76,0.42-1.13,1.26-1.73,1.87c-0.92,0.93-2.83,1.79-2.09,3.6
					C44.28,97.57,45.57,94.99,46.66,94.97z"/>
				<path fill="#E5C47B" d="M45.19,128.46c-4.15,0.021-8.95,0.46-11.73,3.41l-0.15,0.03c-0.97-5.16-1.07-10.801-0.09-16.87
					C34.25,117.15,38.47,122.38,45.19,128.46z"/>
			</g>
			<g>
				<path fill="none" stroke="#000000" stroke-width="2" stroke-miterlimit="10" d="M33.22,115.03c1.03,2.12,5.25,7.35,11.97,13.43
					c2.22,2.01,4.72,4.12,7.46,6.24c0.82,0.64,1.67,1.27,2.53,1.91c3.2,2.34,6.68,4.67,10.43,6.859c4.62,2.721,9.64,5.24,14.98,7.34
					c2.16,0.86,4.39,1.641,6.65,2.351c3.32,1.02,6.74,1.88,10.26,2.53c2.57,0.47,5.19,0.81,7.85,1.02
					c5.011,0.41,10.17,0.34,15.45-0.33c0.03,0,0.061-0.01,0.09-0.01"/>
				<path fill="none" stroke="#000000" stroke-width="2" stroke-miterlimit="10" d="M140.73,118.09c1.279-0.62,0.56-0.06,1.989,0.01
					c0.5,0.021,1.141,0.25,1.86,0.62c0.8,0.41,1.689,1,2.58,1.66c2.109,1.57,4.16,3.561,4.729,4.521
					c0.44,0.77,0.971,1.46,1.511,2.14c1.029,1.28,2.119,2.51,2.819,4.04c1.101,2.41,8.521,11.07,11.67,13.7
					c0.141,0.12,0.261,0.21,0.38,0.3c0.28,0.22,0.511,0.37,0.681,0.43"/>
				<path fill="none" stroke="#000000" stroke-width="2" stroke-miterlimit="10" d="M138.65,126.75c0.109,0.01,0.229,0.01,0.35-0.02
					c0.95-0.07,2.01-0.641,3.05-0.631c1.96,0.011,3.84,1.48,5.271,2.75c0.96,0.841,1.819,1.75,2.62,2.7
					c2.04,2.42,3.689,5.13,5.529,7.71c0.58,0.84,1.181,1.66,1.83,2.45c1.4,1.7,2.891,3.43,4.04,5.26c0.101,0.141,0.19,0.29,0.3,0.44
					c0.61,0.939,1.351,1.85,2.07,2.63c1.87,1.99,2.23,2.62,4.66,3.56c0.18,0.07,0.37,0.141,0.58,0.221"/>
				<path fill="none" stroke="#000000" stroke-width="2" stroke-miterlimit="10" d="M80.23,63.05c1.13-0.18,2.26-0.32,3.39-0.43
					c1.19-0.12,2.37-0.2,3.57-0.23c1.5-0.06,3-0.05,4.5,0.03c4.08,0.18,8.13,0.82,12.07,1.9c5.95,1.63,11.61,4.29,16.641,7.98
					c2.819,2.06,5.439,4.45,7.81,7.16c0.28,0.32,0.57,0.66,0.85,1c2.87,3.47,5.33,7.44,7.261,11.92v0.01
					c1.42,3.29,2.56,6.84,3.359,10.669c0.511,2.351,0.88,4.801,1.12,7.36c0.101,1.09,0.17,2.2,0.23,3.34
					c0.029,0.5,0.04,1.021,0.05,1.53c0.02,0.54,0.03,1.07,0.03,1.61"/>
				<path fill="none" stroke="#000000" stroke-width="2" stroke-miterlimit="10" d="M73.48,64.55c2.21-0.64,4.47-1.15,6.74-1.49"/>
				<path fill="none" stroke="#000000" stroke-width="2" stroke-miterlimit="10" d="M36.89,102.28c0.13-0.471,0.25-0.931,0.39-1.4
					c0.58-2,1.25-3.92,2.01-5.77c0.35-0.86,0.73-1.71,1.12-2.54c1.17-2.5,2.5-4.86,3.98-7.06c2.4-3.55,5.15-6.7,8.19-9.44
					c4.42-4,9.45-7.11,14.79-9.37c1.99-0.84,4.03-1.55,6.1-2.15"/>
				<path fill="none" stroke="#000000" stroke-miterlimit="10" d="M119.19,89.63c0.239-0.07,0.71-0.46,1.35-1.11
					c0.479-0.48,1.06-1.12,1.72-1.86c0.181-0.2,0.351-0.41,0.54-0.63c1.32-1.54,2.9-3.46,4.601-5.57c0.26-0.32,0.52-0.66,0.81-1
					c5.47-6.88,11.88-15.32,14.6-18.88c0.511-0.65,0.87-1.13,1.091-1.41c0.689,0.61,1.89,0.7,3.069,0.5c0.04,0,0.09-0.01,0.13-0.02
					c0.091-0.43,0.011-0.8-0.199-1.11c-1.131-1.78-6.101-1.61-5.41,1.42c0.56,0.24,0.97,0.41,1.319,0.62
					c0.61,0.37,0.99,0.81,1.48,1.78c1.58,0.09,2.51-1.34,2.68-2.69c0.05-0.4,0.03-0.8-0.069-1.13c-0.07-0.3-0.2-0.55-0.381-0.75"/>
				<path fill="none" stroke="#000000" stroke-miterlimit="10" d="M67.71,70.18c0.18-0.32,0.03-1.6-0.34-3.48
					c-1.31-6.68-5.42-20.94-7.29-26.4c-0.95-1.78-0.74-2.36-0.63-3.87c0.11-1.82,1.49-3.42-0.38-4.96
					c-4.86-1.35-4.47,4.78-0.26,5.66"/>
				<path fill="none" stroke="#000000" stroke-width="2" stroke-miterlimit="10" d="M76.48,104.14c2.77,2.19,5.76,4.341,8.93,6.351
					c3.13,2.01,6.45,3.88,9.94,5.54c2.46,1.189,5,2.26,7.61,3.22c5.03,1.83,10.34,3.21,15.89,3.92c6.7,0.89,13.761,0.82,21.101-0.54
					h0.01"/>
				<path fill="none" stroke="#000000" stroke-width="2" stroke-miterlimit="10" d="M52.59,76.08c-0.66,0.63,1.74,5.14,6.64,11.15
					c2.08,2.54,4.59,5.35,7.51,8.26c2.87,2.85,6.13,5.79,9.74,8.63"/>
				<line fill="none" stroke="#000000" stroke-width="2" stroke-miterlimit="10" x1="80.23" y1="63.05" x2="80.22" y2="63.06"/>
				<path fill="none" stroke="#000000" stroke-width="2" stroke-miterlimit="10" d="M33.46,131.87c2.78-2.95,7.58-3.39,11.73-3.41
					c0.12,0,0.22,0,0.34,0"/>
				<path fill="none" stroke="#000000" stroke-width="2" stroke-miterlimit="10" d="M35.82,140c0.68-1.87,5.24-3.94,7.08-4.45
					c1.48-0.42,3.24-1.22,4.79-1.319c1.78-0.12,3.07,0.77,4.92,0.52"/>
				<path fill="none" stroke="#000000" stroke-width="2" stroke-miterlimit="10" d="M40.02,147.34c1.31-0.04,3.42-2.3,4.73-3.21
					c1.75-1.21,2.95-1.72,4.91-2.36c2.02-0.649,4.1-1.159,6.21-1.3c1.78-0.13,3.59,0.011,5.39,0.58"/>
				<path fill="none" stroke="#000000" stroke-width="2" stroke-miterlimit="10" d="M45.26,153.9c0.26,0.159,0.53,0.26,0.82,0.31
					c2.53-2.76,7.69-5.38,11.19-6.67c0.32-0.11,0.64-0.23,0.96-0.33c2.04-0.65,4.06-0.979,6.08-1.02c2.61-0.061,5.2,0.35,7.71,1.149
					"/>
				<path fill="none" stroke="#000000" stroke-width="2" stroke-miterlimit="10" d="M57.07,162.3c1.19-1.8,2.67-2.649,4.51-3.609
					c0.94-0.511,1.87-1.23,2.76-1.95c0.16-0.141,0.32-0.271,0.48-0.4c0.76-0.609,1.51-1.2,2.28-1.62c0.04-0.02,0.08-0.04,0.12-0.06
					c0.9-0.51,1.8-0.94,2.72-1.33c2.43-1,4.92-1.64,7.58-1.91c0.94-0.1,1.91-0.14,2.89-0.14"/>
				<path fill="none" stroke="#000000" stroke-width="2" stroke-miterlimit="10" d="M68.61,167.28c-0.02-0.08-0.04-0.17-0.07-0.25
					c-0.42-1.53-0.78-3.07-1.12-4.65c-0.04-0.2-0.08-0.41-0.12-0.61c-0.4-1.93-1.91-3.069-2.77-4.8"/>
				<path fill="none" stroke="#000000" stroke-width="2" stroke-miterlimit="10" d="M76.48,168.59c-1.16-2.24-2.26-4.5-3.16-6.97
					c-0.1-0.29-0.21-0.59-0.31-0.9c-0.79-2.319-2.26-4.38-2.83-6.819"/>
				<path fill="none" stroke="#000000" stroke-width="2" stroke-miterlimit="10" d="M86.81,169.2c-0.31,0.05-0.64,0.02-0.96-0.101
					c-1.65-0.56-3.34-3.14-4.77-6.18c-2.03-4.35-3.52-9.63-3.55-11.38"/>
				<path fill="none" stroke="#000000" stroke-width="2" stroke-miterlimit="10" d="M95.11,168.25c-0.05,0-0.11-0.01-0.18-0.05
					c-0.89-0.32-2.52-2.16-3.84-3.851c-0.79-1.02-1.45-2-1.77-2.56c-1.6-2.9-1.14-5.66-2.08-8.63c0-0.01-0.01-0.04-0.01-0.04"/>
				<path fill="none" stroke="#000000" stroke-width="2" stroke-miterlimit="10" d="M108.22,164.27c-0.02-0.02-0.04-0.029-0.06-0.05
					c-0.34-0.319-0.69-0.85-0.97-1.16c-0.37-0.869-0.931-1.619-1.381-2.43c-0.529-1.01-0.479-2.49-0.479-3.66"/>
				<path fill="none" stroke="#000000" stroke-width="2" stroke-miterlimit="10" d="M101.66,166.49c-0.51-0.37-1.01-0.971-1.44-1.67
					c-0.52-0.811-0.96-1.771-1.31-2.65c-0.68-1.75-2.32-4.56-1.41-6.479c0.03-0.08,0.06-0.141,0.1-0.21"/>
				<path fill="none" stroke="#000000" stroke-width="2" stroke-miterlimit="10" d="M49.06,111.28c0.17,0.63,0.47,1.14,0.38,1.819
					c-0.91,0.04-1.61,0.03-2.26-0.119c-0.67-0.16-1.29-0.48-2.05-1.051c-1.34-1-2.62-1.63-3.68-2.92c-1.57-1.92-3.96-3-5.23-5.069"
					/>
				<path fill="none" stroke="#000000" stroke-width="2" stroke-miterlimit="10" d="M56.54,104.85c-0.04,1.04-1.05,0.74-2.12,0.16
					c-0.97-0.55-1.99-1.35-2.35-1.58c-0.9-0.58-1.88-1.41-2.77-1.899c-0.34-0.181-0.67-0.311-0.98-0.431
					c-0.64-0.229-1.24-0.419-1.91-0.97c-0.58-0.48-1.51-1.11-1.94-1.7c-0.29-0.39-0.33-1.07-0.64-1.42
					c-0.28-0.31-0.93-0.49-1.29-0.82c-1.12-0.98-1.39-2.54-2.13-3.62c-0.05-0.06-0.09-0.12-0.13-0.17"/>
				<path fill="none" stroke="#000000" stroke-width="2" stroke-miterlimit="10" d="M58.64,97.12c0,0.02,0,0.03,0,0.05
					c0,0.53,0.01,1.09-0.02,1.63c-0.89,0.29-1.67,0.04-2.38-0.42c-0.69-0.44-1.32-1.1-1.93-1.63c-0.06-0.05-0.13-0.1-0.18-0.16
					c-0.58-0.5-1.12-0.96-1.62-1.41c-0.14-0.14-0.28-0.27-0.41-0.4c-0.68-0.68-1.41-1.25-2.13-1.86c-0.93-0.8-1.79-1.61-2.56-2.46
					c-1.27-1.42-2.27-2.99-2.93-4.88"/>
				<path fill="none" stroke="#000000" stroke-width="2" stroke-miterlimit="10" d="M73.59,64.45c-0.04,0.03-0.07,0.07-0.11,0.1
					c-0.01,0-0.01,0-0.01,0c-1.88,1.46-3.12,4.13-3.85,6.41c-0.82,2.49-1.8,5.03-2.26,7.57c-0.03,0.13-0.05,0.27-0.07,0.39
					c-0.41,2.51-0.65,5-0.78,7.56c-0.13,2.63-0.8,6.49,0.23,9.01"/>
				<path fill="none" stroke="#000000" stroke-width="2" stroke-miterlimit="10" d="M83.69,62.36c-0.01,0.08-0.04,0.17-0.07,0.26
					c-0.28,1.03-1.15,2.05-1.96,3.06c-0.49,0.6-0.95,1.19-1.25,1.76c-0.43,0.82-0.77,1.75-1.08,2.72c-0.14,0.48-0.27,0.97-0.4,1.46
					c-0.32,1.32-0.57,2.68-0.8,3.91c-0.07,0.35-0.12,0.68-0.18,0.99c-0.62,3.38-1.14,6.85-1.47,10.23c-0.35,3.49-0.5,7.07-0.4,10.6
					c0.06,2.17-1.07,5.04,0.4,6.77v0.02"/>
				<path fill="none" stroke="#000000" stroke-width="2" stroke-miterlimit="10" d="M91.69,62.49c0.05,1.04-0.69,1.74-1.2,2.61
					c-0.87,1.46-1.28,3.13-1.7,4.73c-0.31,1.12-0.56,2.24-0.79,3.37c-0.48,2.33-0.87,4.66-1.4,6.99c-1.01,4.49-1.66,9.25-2.12,13.85
					c-0.19,1.87-0.19,3.77,0.02,5.65c0.39,3.35,0.03,7.51,0.91,10.8c0.03,0.14,0.06,0.27,0.1,0.39"/>
				<path fill="none" stroke="#000000" stroke-width="2" stroke-miterlimit="10" d="M103.76,64.32c-0.43,0.05-0.81,0.3-1.14,0.63
					c-0.38,0.38-0.71,0.9-0.96,1.33c-0.99,1.7-1.76,3.51-2.39,5.38c-0.89,2.69-1.72,5.35-2.44,8.05c-0.64,2.4-1.18,4.83-1.62,7.3
					c-0.27,1.53-0.57,3.05-0.85,4.55c-0.59,3.02-1.09,6.02-1.09,9.23c0,0.08,0,0.17,0,0.25c-0.01,3.36-0.18,7.13,0.53,10.53
					c0.29,1.41,0.74,2.75,1.41,3.989c0.12,0.12,0.17,0.271,0.15,0.44"/>
				<path fill="none" stroke="#000000" stroke-width="2" stroke-miterlimit="10" d="M103.1,118.88c1.86-1.689,3.311-2.77,5.78-3.54
					c0.12-0.04,0.24-0.07,0.37-0.1c3.06-0.91,6.04-1.3,9.17-1.891c3.39-0.64,6.63-0.01,10.01,0.16c1.88,0.09,3.801,0.32,5.62,0.811
					c0.851,0.229,1.84,0.359,2.601,0.85c0.63,0.41,1.04,1.09,1.729,1.48c0.57,0.319,1.74,0.409,1.97,0.79"/>
				<path fill="none" stroke="#000000" stroke-width="2" stroke-miterlimit="10" d="M93.8,111.57c1.07-1.42,2.91-3.261,4.42-4.09
					c0.05-0.03,0.09-0.051,0.15-0.08c1.79-1.021,3.439-2.311,5.26-3.141c3.58-1.64,6.91-3.67,10.88-3.87
					c2.98-0.15,5.87-0.62,8.92-0.52c1.801,0.05,3.58,0.14,5.351,0.39c0.89,0.12,1.729,0.32,2.63,0.53c0.3,0.07,0.62,0.1,0.92,0.12
					c0.64,0.05,1.29,0.03,1.92,0.06c0.38,0.02,0.75,0.07,1.11,0.16c1.439,0.4,2.51,1.561,3.939,2.01"/>
				<path fill="none" stroke="#000000" stroke-width="2" stroke-miterlimit="10" d="M101.82,96.78c4.33-2.38,9.819-2.59,14.529-3.76
					c0.5-0.12,0.99-0.26,1.45-0.4c1.42-0.45,2.75-0.95,4.28-1.19c0.3-0.05,0.61-0.09,0.93-0.13c0.431-0.04,0.87-0.06,1.3-0.08
					c0.591-0.02,1.181-0.02,1.771-0.03c0.95,0,1.91,0.02,2.86,0.02c2.359,0,5.159,0.35,7.35,1.19"/>
				<line fill="none" stroke="#000000" stroke-miterlimit="10" x1="101.81" y1="96.79" x2="101.82" y2="96.78"/>
				<path fill="none" stroke="#000000" stroke-width="2" stroke-miterlimit="10" d="M93.53,101.04c0.94,0.479,3-1.77,3.9-2.23
					c1.2-0.61,2.46-0.83,3.6-1.56c0.25-0.15,0.51-0.31,0.779-0.46"/>
				<path fill="none" stroke="#000000" stroke-width="2" stroke-miterlimit="10" d="M94.58,91.6c2.9-0.94,5.11-3.88,7.71-5.35
					c0.17-0.1,0.33-0.19,0.51-0.29c0.61-0.31,1.28-0.61,1.96-0.88c0.67-0.27,1.36-0.51,2-0.73c0.11-0.03,0.21-0.08,0.311-0.12
					c1.51-0.53,2.89-1.29,4.43-1.78c1.4-0.44,3.33-0.86,4.78-1.08c1.56-0.24,3.14,0.14,4.689-0.24c2.07-0.53,4.21-0.64,6.431-0.67
					c0.54,0,1.1,0,1.659,0c0.011,0,0.011,0,0.021,0"/>
				<path fill="none" stroke="#000000" stroke-width="2" stroke-miterlimit="10" d="M97.2,79.8c1.42-1.63,3.79-2.41,5.38-3.81
					c0.01-0.02,0.04-0.03,0.04-0.04c0.34-0.29,0.689-0.56,1.05-0.8c0.66-0.47,1.37-0.86,2.11-1.2c0.79-0.37,1.609-0.65,2.439-0.87
					c2.28-0.61,4.61-1.04,7-1.16c1.79-0.09,3.45,0.31,5.181,0.38c0.18,0.01,0.359,0.02,0.529,0.02"/>
				<path fill="none" stroke="#000000" stroke-width="2" stroke-miterlimit="10" d="M137.33,132.39c-0.03,0-0.05,0-0.08,0
					c-0.2,0-0.4,0-0.59-0.01c-3.271-0.02-6.351-0.25-9.63-0.25c-3.05,0-5.8-0.62-8.561-1.28c-1.43-0.34-2.87-0.689-4.33-0.97
					c-0.069-0.31,0.07-0.42,0.25-0.64"/>
				<path fill="none" stroke="#000000" stroke-width="2" stroke-miterlimit="10" d="M133.27,141.05
					c-1.35-0.13-2.689,0.19-4.029,0.431c-0.62,0.1-1.24,0.199-1.87,0.229c-2.101,0.09-4.83,0.36-6.87-0.14
					c-0.83-0.2-3.55-0.58-5.73-1.261c-1.71-0.52-3.109-1.22-3.01-2.149"/>
				<path fill="none" stroke="#000000" stroke-width="2" stroke-miterlimit="10" d="M126.68,150.63c-2.359,2.021-7.109,0.25-10.05,0
					c-0.45-0.04-0.899-0.12-1.36-0.21c-1.109-0.22-2.25-0.57-3.3-0.9c-0.25-0.09-0.489-0.17-0.729-0.25
					c-1.2-0.369-3.471-0.539-3.15-2.31"/>
				<path fill="none" stroke="#000000" stroke-width="2" stroke-miterlimit="10" d="M65.44,114.86c0.71,0,1.3,0.58,1.3,1.29
					s-0.59,1.29-1.3,1.29s-1.29-0.58-1.29-1.29S64.73,114.86,65.44,114.86z"/>
				<path fill="none" stroke="#000000" stroke-width="2" stroke-miterlimit="10" d="M99.26,128.74c0,0.72-0.58,1.29-1.29,1.29
					c-0.72,0-1.29-0.57-1.29-1.29c0-0.71,0.57-1.29,1.29-1.29C98.68,127.45,99.26,128.03,99.26,128.74z"/>
				<path fill="none" stroke="#000000" stroke-width="2" stroke-miterlimit="10" d="M69.92,130.17c-0.61,1.84,0.37,3.6,1.74,5.01
					c0.99,1.021,2.17,1.86,3.12,2.431c3.21,1.93,6.44,2.12,9.04-0.62"/>
				<path fill="none" stroke="#000000" stroke-width="2" stroke-miterlimit="10" d="M37.2,100.86c-0.39,1.02-0.77,2.03-1.13,3.02
					c-1.34,3.87-2.29,7.58-2.85,11.15c-0.98,6.069-0.88,11.71,0.09,16.87c0.54,2.859,1.36,5.58,2.42,8.14
					c1.09,2.67,2.45,5.16,4.02,7.479c1.6,2.341,3.42,4.5,5.42,6.49c3.43,3.391,7.42,6.23,11.77,8.521
					c1.47,0.76,2.99,1.479,4.54,2.109c2.28,0.94,4.64,1.74,7.06,2.391c2.59,0.7,5.24,1.22,7.94,1.569c3.08,0.41,6.22,0.58,9.37,0.5
					c3.03-0.069,6.07-0.359,9.08-0.899c2.28-0.4,4.54-0.931,6.76-1.601c1.529-0.449,3.029-0.979,4.52-1.58
					c0.66-0.25,1.31-0.52,1.95-0.8c4.49-1.989,8.75-4.58,12.64-7.84c2.08-1.72,4.05-3.64,5.88-5.75c0,0,0.021-0.01,0.03-0.02
					c2.46-2.83,4.69-6,6.63-9.53c1.2-2.19,2.3-4.521,3.26-6.99c0.021-0.02,0.021-0.03,0.03-0.05c0.08-0.18,0.14-0.36,0.2-0.55
					c0.15-0.351,0.28-0.73,0.42-1.101c0.65-1.81,1.24-3.699,1.75-5.659c0.15-0.53,0.28-1.061,0.4-1.61
					c0.199-0.82,0.39-1.65,0.55-2.49c0.3-1.47,0.56-2.99,0.78-4.54c0.029-0.2,0.06-0.39,0.09-0.59c0.09-0.72,0.189-1.47,0.26-2.21
					c0.01-0.08,0.02-0.18,0.03-0.26"/>
				<path fill="none" stroke="#000000" stroke-width="2" stroke-miterlimit="10" d="M168.2,145.16c0.399,1.09,0.12,2.939,0.17,4.109
					c0.09,1.431,0.01,2.891,0,4.33c0,0.07,0,0.141,0,0.221"/>
			</g>
		</g>
	</g>
</g>
</svg>
