<?xml version="1.0" encoding="utf-8"?>
<!-- Generator: Adobe Illustrator 16.0.4, SVG Export Plug-In . SVG Version: 6.00 Build 0)  -->
<!DOCTYPE svg PUBLIC "-//W3C//DTD SVG 1.1//EN" "http://www.w3.org/Graphics/SVG/1.1/DTD/svg11.dtd">
<svg version="1.1" id="Layer_1" xmlns="http://www.w3.org/2000/svg" xmlns:xlink="http://www.w3.org/1999/xlink" x="0px" y="0px"
	 width="66px" height="66px" viewBox="0 0 66 66" enable-background="new 0 0 66 66" xml:space="preserve">
<g>
	<g id="XMLID_1_">
		<g>
			<path fill="#28BF22" d="M66.771,53.492c0.178,0.484,0.054,1.307,0.076,1.826c0.04,0.635,0.004,1.284,0,1.924
				c-0.058-0.022-0.111-0.045-0.165-0.066v-3.812c0.045,0.035,0.08,0.062,0.12,0.094L66.771,53.492z"/>
			<path fill="#329CA9" d="M66.682,53.301v0.062c-0.013-0.014-0.03-0.026-0.049-0.04C66.646,53.314,66.664,53.306,66.682,53.301z"/>
			<path fill="#FFFFFF" d="M66.167,53.745c0.182-0.142,0.271-0.328,0.466-0.422c0.019,0.014,0.036,0.026,0.049,0.04v3.812
				c-0.933-0.383-1.119-0.68-1.905-1.516c-0.32-0.347-0.649-0.751-0.92-1.168l0.04-0.031c0.644,0,0.955-0.066,1.515-0.333
				C65.678,53.994,65.949,53.923,66.167,53.745z"/>
			<path fill="#329CA9" d="M66.633,53.323c-0.195,0.094-0.284,0.28-0.466,0.422c-0.218,0.178-0.489,0.249-0.756,0.383
				c-0.56,0.267-0.871,0.333-1.515,0.333l-0.04,0.031c-0.049-0.067-0.089-0.134-0.134-0.196c-0.511-0.812-1.173-1.581-1.795-2.337
				c-0.288-0.351-0.555-0.715-0.812-1.088l0.102-0.076c0-1.19-0.293-2.274-0.399-3.443c-0.058-0.72-0.329-1.319-0.622-1.91
				c0.458,0.569,0.941,1.115,1.253,1.795C61.937,48.308,65.233,52.155,66.633,53.323z"/>
			<path fill="#FFFFFF" d="M61.115,50.871c-0.817-1.146-1.551-2.351-2.457-3.426c-0.223-1.03-0.329-2.079-0.516-3.132
				c-0.071-0.396-0.324-1.223-0.72-1.831c0.938,0.697,1.849,1.582,2.102,2.009c0.195,0.342,0.431,0.648,0.671,0.95
				c0.293,0.591,0.564,1.19,0.622,1.91c0.106,1.169,0.399,2.253,0.399,3.443L61.115,50.871z"/>
			<path fill="#329CA9" d="M57.339,15.509c0.021-0.178,0.013-0.355-0.031-0.502c0.093,0.138,0.129,0.302,0.089,0.493
				C57.379,15.505,57.356,15.509,57.339,15.509z"/>
			<path fill="#329CA9" d="M57.423,42.482c-0.396-0.293-0.791-0.556-1.146-0.737C56.721,41.67,57.112,42.012,57.423,42.482z"/>
			<path fill="#329CA9" d="M56.147,16.705c-0.218-0.431-0.387-0.626-0.657-0.791c0.227-0.289,0.387-0.502,0.484-0.626
				c0.307,0.271,0.84,0.311,1.364,0.222C57.263,16.109,56.85,16.745,56.147,16.705z"/>
			<path fill="#329CA9" d="M57.339,15.509c-0.524,0.089-1.058,0.049-1.364-0.222c-0.098,0.125-0.258,0.338-0.484,0.626
				c-0.155-0.093-0.338-0.169-0.587-0.275c-0.307-1.346,1.902-1.422,2.404-0.631C57.352,15.154,57.36,15.332,57.339,15.509z"/>
			<path fill="#329CA9" d="M54.566,41.465c0.568-0.275,0.248-0.026,0.884,0.005c0.222,0.009,0.507,0.111,0.826,0.275
				c0.355,0.182,0.751,0.444,1.146,0.737c0.396,0.608,0.648,1.436,0.72,1.831c0.187,1.053,0.293,2.102,0.516,3.132
				c-0.355-0.422-0.737-0.826-1.164-1.199c-0.636-0.564-1.471-1.218-2.342-1.223c-0.462-0.004-0.933,0.249-1.354,0.28
				c0.066-0.235,0.124-0.471,0.178-0.715c0.089-0.364,0.173-0.733,0.244-1.106C54.353,42.829,54.469,42.153,54.566,41.465z"/>
			<path fill="#329CA9" d="M53.798,45.304c-0.227,0.871-0.489,1.711-0.778,2.515c-0.089,0-0.178,0-0.262-0.004
				c-0.169-0.383-0.524-0.733-0.516-1.204c0.014-0.653,0.502-0.827,0.924-1.209c0.245-0.23,0.698-0.453,0.805-0.812h0.005
				C53.922,44.833,53.864,45.068,53.798,45.304z"/>
			<path fill="#329CA9" d="M52.744,48.552c0.036-0.08,0.062-0.16,0.089-0.244C52.82,48.388,52.793,48.467,52.744,48.552z"/>
			<path fill="#329CA9" d="M52.758,47.814c0.084,0.004,0.173,0.004,0.262,0.004c-0.062,0.165-0.119,0.333-0.187,0.489
				C52.864,48.13,52.829,47.97,52.758,47.814z"/>
			<path fill="#329CA9" d="M54.495,38.066c-0.582,0.244-1.08-0.382-1.284-0.854c-0.155-0.359-0.115-0.702-0.315-1.039
				c-0.187-0.303-0.347-0.587-0.471-0.934c-0.183-0.506-0.404-1.004-0.738-1.381c0.169,0.009,0.334,0.031,0.493,0.075
				c0.641,0.173,1.115,0.689,1.751,0.889l0.169-0.036c0.227,1.044,0.391,2.133,0.497,3.271L54.495,38.066z"/>
			<path fill="#329CA9" d="M51.687,33.859c0.334,0.377,0.556,0.875,0.738,1.381c0.124,0.347,0.284,0.631,0.471,0.934
				c0.2,0.337,0.16,0.68,0.315,1.039c0.204,0.472,0.702,1.098,1.284,0.854l0.102-0.009c0.045,0.484,0.076,0.978,0.103,1.483
				l-0.08,0.005c-0.009,0-0.018,0-0.026,0c-0.413-0.005-0.76-0.071-1.182-0.244c-0.027-0.601-0.103-1.218-0.343-1.777
				c-0.115-0.249-0.208-0.462-0.319-0.737c-0.08-0.191-0.244-0.404-0.382-0.552c-0.303-0.342-0.604-0.586-0.778-1.044
				c-0.19-0.502-0.386-0.964-0.755-1.359C51.118,33.854,51.407,33.845,51.687,33.859z"/>
			<path fill="#329CA9" d="M51.193,33.446c0.191,0.111,0.352,0.249,0.493,0.413c-0.279-0.014-0.568-0.004-0.853-0.027
				c-0.035-0.04-0.075-0.076-0.115-0.115c-0.169-0.16-0.72-0.582-0.146-0.618C50.799,33.081,51.007,33.334,51.193,33.446z"/>
			<path fill="#329CA9" d="M52.731,48.574c-0.427,1.097-0.916,2.132-1.449,3.105l-0.03-0.014c-0.601-0.058-1.195,0.085-1.791,0.191
				c0.075-0.045,0.155-0.089,0.218-0.146c0.249-0.209,0.382-0.569,0.627-0.778c0.279-0.235,0.555-0.382,0.755-0.701
				c0.267-0.432,0.524-0.818,0.946-1.129C52.273,48.907,52.571,48.854,52.731,48.574z"/>
			<path fill="#329CA9" d="M48.479,47.703c1.457,0,2.825,0.103,4.278,0.111c0.071,0.155,0.106,0.315,0.075,0.493
				c-0.026,0.084-0.053,0.164-0.089,0.244c-0.004,0.009-0.004,0.014-0.013,0.022c-0.16,0.279-0.458,0.333-0.725,0.528
				c-0.422,0.311-0.68,0.697-0.946,1.129c-0.2,0.319-0.476,0.466-0.755,0.701c-0.245,0.209-0.378,0.569-0.627,0.778
				c-0.062,0.058-0.143,0.102-0.218,0.146c-0.275,0.044-0.551,0.089-0.831,0.102c-0.933,0.04-2.146,0.16-3.052-0.062
				c-0.369-0.089-1.577-0.258-2.546-0.561c-0.014-0.346-0.026-0.697,0.129-0.981c0.142-0.271,0.431-0.436,0.564-0.711
				c0.168-0.347,0.213-0.693,0.435-1.018c0.209-0.298,0.347-0.577,0.436-0.924c0.045-0.187,0.076-0.378,0.08-0.568
				C45.902,47.428,47.124,47.703,48.479,47.703z"/>
			<path fill="#329CA9" d="M49.381,24.746c-0.249,0-0.497,0-0.737,0c0.115-0.142,0.231-0.293,0.36-0.444
				C49.128,24.444,49.257,24.595,49.381,24.746z"/>
			<path fill="#329CA9" d="M44.845,43.722c2.977,0.396,6.113,0.365,9.375-0.239c-0.071,0.373-0.155,0.742-0.244,1.106h-0.005
				c-0.106,0.359-0.56,0.582-0.805,0.812c-0.422,0.382-0.91,0.556-0.924,1.209c-0.009,0.471,0.347,0.821,0.516,1.204
				c-1.453-0.009-2.821-0.111-4.278-0.111c-1.355,0-2.577-0.275-3.804-0.568c0.005-0.227-0.022-0.458-0.098-0.671
				c-0.12-0.36-0.368-0.653-0.342-1.094c0.022-0.288,0.19-0.511,0.298-0.777C44.658,44.313,44.747,44.016,44.845,43.722z"/>
			<path fill="#329CA9" d="M47.732,29.327c0.165,0.075,0.263,0.133,0.324,0.187c-0.262,0.004-0.523,0.004-0.786,0.013
				c-0.022-0.013-0.044-0.027-0.071-0.04c-0.359-0.187-0.435-0.391-0.706-0.697c0.645-0.027,0.706-0.444,0.244-0.853
				c-0.19-0.165-0.342-0.311-0.377-0.436c0.079-0.089,0.155-0.182,0.239-0.28c0.066-0.027,0.146-0.049,0.244-0.067
				c0.578-0.116,0.738-0.049,0.889,0.542c0.143,0.524,0.045,0.8-0.577,0.817C47.018,29.096,47.284,29.123,47.732,29.327z"/>
			<path fill="#329CA9" d="M46.6,27.221c0.587-0.685,1.289-1.538,2.044-2.475c0.24,0,0.488,0,0.737,0
				c1.275,1.542,2.368,3.306,3.226,5.296l-0.013,0.009c-0.974-0.374-2.218-0.529-3.266-0.529c-0.423,0-0.849-0.009-1.271-0.009
				c-0.062-0.053-0.159-0.111-0.324-0.187c-0.448-0.205-0.715-0.231-0.577-0.813c0.622-0.018,0.72-0.293,0.577-0.817
				c-0.15-0.591-0.311-0.658-0.889-0.542C46.746,27.172,46.666,27.194,46.6,27.221z"/>
			<path fill="#329CA9" d="M47.497,30.211c-0.448,0.271-0.809-0.089-1.075-0.417c-0.044-0.058-0.093-0.111-0.142-0.173
				c0.133-0.022,0.271-0.04,0.413-0.058c0.19-0.018,0.387-0.027,0.577-0.036C47.608,29.705,47.608,29.785,47.497,30.211z"/>
			<path fill="#329CA9" d="M46.36,27.501c-0.036-0.111,0.03-0.209,0.239-0.28C46.516,27.319,46.439,27.412,46.36,27.501z"/>
			<path fill="#329CA9" d="M46.737,27.937c0.462,0.409,0.4,0.826-0.244,0.853c0.271,0.306,0.347,0.511,0.706,0.697
				c0.027,0.013,0.049,0.027,0.071,0.04c-0.19,0.009-0.387,0.018-0.577,0.036c-0.143,0.018-0.28,0.036-0.413,0.058
				c-0.249-0.284-0.533-0.608-0.636-0.959c-0.031-0.111-0.04-0.227-0.049-0.333c0.213-0.213,0.471-0.498,0.765-0.826
				C46.396,27.625,46.547,27.772,46.737,27.937z"/>
			<path fill="#329CA9" d="M44.85,28.447c-0.183-0.529-0.986-0.782-1.031-1.369c0.369-0.102,1.062-0.12,1.391,0.08
				c0.462,0.285,0.364,0.724,0.387,1.168c-0.284,0.289-0.493,0.462-0.6,0.493l-0.066,0.004C44.93,28.718,44.898,28.594,44.85,28.447
				z"/>
			<path fill="#329CA9" d="M47.271,29.527c0.263-0.009,0.524-0.009,0.786-0.013c0.227,0.208-0.187,0.329-0.204,0.857
				c0.352,0.08,0.453-0.258,0.777-0.231c0.383,0.04,0.312,0.453,0.547,0.653c0.315,0.267,1.479,0.329,1.159,0.902
				c-0.355,0.64-1.621,0.422-2.177,0.16c-0.262-0.129-0.387-0.427-0.586-0.573c-0.245-0.178-0.542-0.12-0.818-0.271
				c-0.115-0.066-0.23-0.218-0.351-0.275c-0.427-0.205-0.204-0.004-0.547,0.182c-0.506,0.275-0.835-0.258-1.044-0.613
				c-0.102,0.018-0.235-0.031-0.333-0.013c-0.04-0.04-0.071-0.093-0.103-0.142c0.631-0.2,1.223-0.422,1.902-0.529
				c0.049,0.062,0.098,0.116,0.142,0.173c0.267,0.329,0.627,0.688,1.075,0.417C47.608,29.785,47.608,29.705,47.271,29.527z"/>
			<path fill="#329CA9" d="M40.873,27.345c0.129,0.449,0.6,0.236,0.484,0.853c-0.094,0.471-0.24,0.933-0.769,0.973
				c-0.409,0.036-0.658-0.271-1.049-0.311c-0.227-0.022-0.427,0-0.622-0.058s-0.289-0.191-0.542-0.182
				c-0.049-0.453-0.204-0.817-0.479-1.16c-0.059-0.08-0.138-0.173-0.183-0.271c0.271-0.138,0.568-0.271,0.871-0.391
				c0.564,0.12,1.235,0.36,1.492-0.071c-0.168-0.018-0.319-0.191-0.466-0.307c0.671-0.236,1.284-0.573,1.968-0.791
				c0.622-0.195,1.479-0.382,2.124-0.48c0.693-0.106,1.395,0.062,2.084-0.106c0.919-0.235,1.87-0.284,2.856-0.298
				c-0.755,0.938-1.457,1.791-2.044,2.475c-0.209,0.071-0.275,0.168-0.239,0.28c-0.294,0.329-0.552,0.613-0.765,0.826
				c-0.022-0.444,0.075-0.884-0.387-1.168c-0.328-0.2-1.021-0.182-1.391-0.08c0.045,0.586,0.849,0.84,1.031,1.369
				c0.049,0.146,0.08,0.271,0.08,0.377c0,0.427-0.404,0.524-0.92,0.498c-0.049-0.431,0.564-0.386,0.253-0.928
				c-0.178-0.32-0.507-0.467-0.8-0.662c-0.476-0.311-0.72-0.502-1.324-0.502C41.694,27.23,41.295,27.319,40.873,27.345z"/>
			<path fill="#329CA9" d="M51.252,51.666l0.03,0.014c-0.861,1.568-1.853,2.977-2.945,4.234c-0.004,0.004-0.014,0.009-0.014,0.009
				c-1.048,0.897-3.158,0.11-4.465,0c-0.2-0.019-0.399-0.054-0.604-0.094c0.383-0.111,0.765-0.315,1.143-0.436
				c0.692-0.218,1.208-0.528,1.697-1.013c0.555-0.556,1.342-0.84,1.95-1.355c0.133-0.115,0.218-0.275,0.342-0.391
				c0.146-0.129,0.32-0.155,0.476-0.28c0.151-0.115,0.235-0.275,0.409-0.391c0.053-0.031,0.119-0.071,0.19-0.106
				C50.057,51.751,50.651,51.608,51.252,51.666z"/>
			<path fill="#329CA9" d="M41.868,55.709c-0.075-0.084-0.094-0.178-0.08-0.279c0.467,0.146,0.973,0.302,1.466,0.399
				c-0.204,0.066-0.408,0.098-0.617,0.08C42.454,55.887,41.992,55.843,41.868,55.709z"/>
			<path fill="#329CA9" d="M48.63,51.959c0.28-0.013,0.556-0.058,0.831-0.102c-0.071,0.035-0.138,0.075-0.19,0.106
				c-0.174,0.115-0.258,0.275-0.409,0.391c-0.155,0.125-0.329,0.151-0.476,0.28c-0.124,0.115-0.209,0.275-0.342,0.391
				c-0.608,0.516-1.396,0.8-1.95,1.355c-0.489,0.484-1.005,0.795-1.697,1.013c-0.378,0.12-0.76,0.324-1.143,0.436
				c-0.493-0.098-0.999-0.253-1.466-0.399c0.058-0.352,0.556-0.778,0.685-0.982c0.155-0.267,0.23-0.648,0.319-0.929
				c0.2-0.626,0.244-1.262,0.244-1.928c0-0.085,0-0.169-0.004-0.254c0.969,0.303,2.177,0.472,2.546,0.561
				C46.484,52.119,47.697,51.999,48.63,51.959z"/>
			<path fill="#329CA9" d="M44.81,41.341c-0.649-0.36-1.324-0.347-2.049-0.556c-0.732-0.209-1.395-0.6-2.181-0.586
				c1.359-0.404,2.683-0.578,4.073-0.84c1.507-0.284,2.946-0.005,4.448,0.071c0.835,0.04,1.688,0.142,2.496,0.359
				c0.378,0.103,0.818,0.16,1.155,0.378c0.28,0.182,0.463,0.484,0.769,0.657c0.254,0.143,0.773,0.183,0.876,0.352l0.209,0.026
				c-0.014,0.089-0.027,0.173-0.04,0.262c-0.098,0.688-0.214,1.364-0.347,2.018c-3.262,0.604-6.398,0.635-9.375,0.239
				c0.045-0.142,0.094-0.275,0.143-0.408c0.129-0.338,0.479-0.667,0.528-0.978C45.573,41.878,45.143,41.527,44.81,41.341z"/>
			<path fill="#329CA9" d="M43.734,30.327c-2.093,0.52-4.532,0.613-6.456,1.67c0.143-0.235,0.115-0.484,0.227-0.755
				c0.298-0.706,1.004-1.142,1.418-1.75c0.426-0.066,0.986,0.125,1.43,0.147c0.587,0.026,1.191-0.084,1.751-0.196
				c0.479-0.093,1.026-0.111,1.515-0.036c0.355,0.049,0.556,0.436,0.76,0.742C44.174,30.211,43.956,30.273,43.734,30.327z"/>
			<path fill="#329CA9" d="M54.722,40.221c-0.031,0.329-0.075,0.662-0.115,0.982l-0.209-0.026c-0.103-0.169-0.622-0.209-0.876-0.352
				c-0.306-0.173-0.488-0.476-0.769-0.657c-0.337-0.218-0.777-0.275-1.155-0.378c-0.809-0.218-1.661-0.319-2.496-0.359
				c-1.502-0.076-2.941-0.355-4.448-0.071c-1.391,0.262-2.714,0.436-4.073,0.84c-0.067,0-0.129,0-0.191,0.009
				c-0.338,0.026-0.866,0.129-1.2,0.035c-0.262-0.071-0.439-0.329-0.586-0.537c-0.364,0.044-0.511-0.512-0.688-0.747
				c-0.2-0.271-0.524-0.635-0.787-0.84c-0.359-0.288-0.71-0.488-0.977-0.821c-0.089-0.111-0.276-0.244-0.343-0.364
				c-0.035-0.067-0.053-0.143-0.062-0.218c0.795-0.453,1.528-1.026,2.337-1.396c1.59-0.724,3.069-1.63,4.834-1.719
				c1.323-0.067,2.607-0.275,3.963-0.231c0.8,0.022,1.591,0.062,2.377,0.173c0.396,0.053,0.769,0.142,1.168,0.235
				c0.134,0.031,0.275,0.044,0.409,0.053c0.369,0.396,0.564,0.857,0.755,1.359c0.174,0.458,0.476,0.702,0.778,1.044
				c0.138,0.147,0.302,0.36,0.382,0.552c0.111,0.275,0.204,0.488,0.319,0.737c0.24,0.56,0.315,1.177,0.343,1.777
				c0.422,0.173,0.769,0.239,1.182,0.244c0.009,0,0.018,0,0.026,0l0.08-0.005C54.713,39.764,54.717,39.994,54.722,40.221z"/>
			<path fill="#329CA9" d="M39.495,26.337c-0.199-0.107-0.551-0.156-0.528-0.462c0.022-0.458,0.911-0.662,1.155-0.929
				c0.431-0.489,0.022-1.395-0.244-1.862c-0.165-0.293-0.396-0.489-0.573-0.746c-0.106-0.156-0.187-0.32-0.267-0.484
				c0.351-0.165,0.715-0.289,1.084-0.387c1.013-0.271,2.048-0.462,3.11-0.515c0.795-0.04,1.532,0.138,2.301,0.168
				c1.253,0.916,2.417,1.978,3.471,3.181c-0.129,0.151-0.245,0.302-0.36,0.444c-0.986,0.014-1.938,0.062-2.856,0.298
				c-0.689,0.169-1.391,0-2.084,0.106c-0.645,0.098-1.502,0.285-2.124,0.48c-0.684,0.218-1.297,0.555-1.968,0.791
				C39.575,26.386,39.535,26.354,39.495,26.337z"/>
			<path fill="#329CA9" d="M39.611,26.421c0.146,0.115,0.298,0.289,0.466,0.307c-0.257,0.431-0.928,0.191-1.492,0.071
				c0.298-0.12,0.604-0.227,0.889-0.324C39.522,26.461,39.566,26.439,39.611,26.421z"/>
			<path fill="#329CA9" d="M40.122,21.467c-0.369,0.098-0.733,0.222-1.084,0.387c-0.089-0.178-0.174-0.36-0.289-0.529
				c-0.244-0.36-0.324-0.853-0.528-1.244c-0.165-0.302-0.48-0.489-0.547-0.813c-0.08-0.382,0.12-0.777,0.035-1.168
				c-0.018-0.093-0.044-0.178-0.075-0.245c0.146-0.146,0.315-0.257,0.507-0.28c2.644,0.724,5.158,1.906,7.393,3.545
				c-0.769-0.031-1.506-0.208-2.301-0.168C42.17,21.005,41.135,21.196,40.122,21.467z"/>
			<path fill="#329CA9" d="M38.847,58.624c2.227,0.182,4.519,0.15,6.864-0.146c-1.729,1.448-3.621,2.599-5.615,3.483
				c-0.151-0.143-0.307-0.378-0.432-0.516c-0.164-0.387-0.413-0.72-0.613-1.08c-0.235-0.448-0.213-1.106-0.213-1.626L38.847,58.624z
				"/>
			<path fill="#329CA9" d="M39.727,24.466c-0.516,0.027-0.702,0.822-1.106,0.827c-0.009,0-0.014,0-0.022,0s-0.026,0-0.035-0.005
				c-0.062,0-0.124-0.004-0.187-0.009c-0.103-0.6,0.271-1.511-0.244-1.924c-0.231-0.178-0.432-0.089-0.498-0.396
				c-0.018-0.066-0.014-0.142,0-0.217c0.151-0.129,0.307-0.249,0.467-0.355c0.164,0.106,0.329,0.346,0.427,0.453
				c0.178,0.187,0.355,0.342,0.546,0.462c0.151,0.098,0.524,0.222,0.627,0.382C39.847,23.907,39.74,24.213,39.727,24.466z"/>
			<path fill="#329CA9" d="M37.634,22.743c0.04-0.205,0.174-0.418,0.32-0.414c0.049,0,0.098,0.018,0.146,0.058
				C37.94,22.494,37.785,22.614,37.634,22.743z"/>
			<path fill="#329CA9" d="M44.81,41.341c0.333,0.187,0.764,0.537,0.706,0.995c-0.049,0.311-0.399,0.64-0.528,0.978
				c-0.049,0.133-0.098,0.267-0.143,0.408c-2.466-0.315-4.825-0.928-7.06-1.741l0.062-0.164c0.826-0.751,1.47-1.231,2.567-1.573
				c0.054-0.018,0.106-0.031,0.165-0.044c0.786-0.014,1.448,0.377,2.181,0.586C43.485,40.994,44.16,40.98,44.81,41.341z"/>
			<path fill="#329CA9" d="M37.896,26.79c0.164-0.084,0.417-0.049,0.688,0.009c-0.303,0.12-0.6,0.253-0.871,0.391
				C37.651,27.057,37.665,26.91,37.896,26.79z"/>
			<path fill="#329CA9" d="M37.367,23.275c0.164-0.031,0.275,0.062,0.312,0.218c0.035,0.009,0.07,0,0.102,0.014
				c0.271,0.342-0.08,0.871-0.187,1.239l0.014,0.018c-0.404,0.302-0.462-0.178-0.404-0.449
				C37.278,23.973,37.238,23.586,37.367,23.275z"/>
			<path fill="#329CA9" d="M34.404,40.55c-1.551-0.737-3.026-1.568-4.417-2.461c-0.391-1.462-0.231-3.311-0.404-4.799
				c-0.094-0.835-0.094-1.679-0.009-2.51c0.205-2.044,0.493-4.159,0.942-6.153c0.236-1.035,0.409-2.071,0.622-3.106
				c0.12-0.129,0.227-0.257,0.289-0.351c0.413-0.617,0.822-0.942,1.586-0.973c0.569-0.022,1.177-0.387,1.515-0.871
				c0.213-0.307,0.138-0.626,0.24-0.946c0.102-0.333,0.319-0.373,0.563-0.56c0.303-0.227,0.396-0.444,0.791-0.498
				c0.658-0.084,1.262-0.071,1.511,0.533c-0.169,0.169-0.315,0.4-0.427,0.591c-0.439,0.755-0.781,1.559-1.062,2.39
				c-0.396,1.195-0.765,2.377-1.084,3.577c-0.284,1.066-0.524,2.146-0.72,3.243c-0.12,0.68-0.253,1.355-0.378,2.021
				c-0.262,1.342-0.484,2.675-0.484,4.101c0,0.036,0,0.076,0,0.111c-0.005,1.493-0.08,3.168,0.235,4.679
				c0.129,0.626,0.329,1.222,0.626,1.772c0.053,0.054,0.075,0.12,0.066,0.195L34.404,40.55z"/>
			<path fill="#329CA9" d="M39.225,62.307l0.004,0.01c-0.661,0.266-1.328,0.502-2.008,0.701l-0.014-0.049
				c-0.227-0.164-0.448-0.431-0.64-0.741c0.271-0.099,0.48-0.267,0.796-0.307C37.816,61.867,39.109,61.734,39.225,62.307z"/>
			<path fill="#329CA9" d="M52.606,30.042c0.631,1.461,1.138,3.043,1.493,4.745l-0.169,0.036c-0.636-0.2-1.11-0.716-1.751-0.889
				c-0.159-0.044-0.324-0.066-0.493-0.075c-0.142-0.165-0.302-0.302-0.493-0.413c-0.187-0.111-0.395-0.365-0.621-0.347
				c-0.573,0.036-0.022,0.458,0.146,0.618c0.04,0.04,0.08,0.075,0.115,0.115c-0.134-0.009-0.275-0.022-0.409-0.053
				c-0.399-0.093-0.772-0.182-1.168-0.235c-0.786-0.111-1.577-0.151-2.377-0.173c-1.355-0.044-2.64,0.164-3.963,0.231
				c-1.765,0.089-3.244,0.996-4.834,1.719c-0.809,0.369-1.542,0.942-2.337,1.396c-0.019-0.103-0.022-0.209-0.054-0.315h-0.04
				c-0.022-0.315,0.026-0.685,0.106-0.969c0.094-0.324,0.312-0.439,0.409-0.777c0.106-0.355,0.031-0.795,0.23-1.125
				c0.223-0.351,0.396-0.462,0.507-0.902c0.089-0.355,0.2-0.355,0.369-0.626l0.004-0.004c1.924-1.057,4.363-1.151,6.456-1.67
				c0.222-0.053,0.439-0.116,0.644-0.178c0.031,0.049,0.062,0.102,0.103,0.142c0.098-0.018,0.231,0.031,0.333,0.013
				c0.209,0.355,0.538,0.889,1.044,0.613c0.343-0.187,0.12-0.387,0.547-0.182c0.12,0.058,0.235,0.209,0.351,0.275
				c0.276,0.151,0.573,0.093,0.818,0.271c0.199,0.146,0.324,0.444,0.586,0.573c0.556,0.262,1.821,0.48,2.177-0.16
				c0.32-0.573-0.844-0.635-1.159-0.902c-0.235-0.2-0.164-0.613-0.547-0.653c-0.324-0.027-0.426,0.311-0.777,0.231
				c0.018-0.529,0.431-0.649,0.204-0.857c0.423,0,0.849,0.009,1.271,0.009c1.048,0,2.292,0.155,3.266,0.529L52.606,30.042z"/>
			<path fill="#FFFFFF" d="M34.995,46.197c0-0.315,0.253-0.573,0.573-0.573c0.315,0,0.572,0.258,0.572,0.573
				c0,0.319-0.257,0.572-0.572,0.572C35.248,46.77,34.995,46.517,34.995,46.197z"/>
			<path fill="#329CA9" d="M39.188,40.243c0.334,0.094,0.862-0.009,1.2-0.035c0.062-0.009,0.124-0.009,0.191-0.009
				c-0.059,0.013-0.111,0.026-0.165,0.044c-1.098,0.342-1.741,0.822-2.567,1.573l-0.062,0.164c-1.16-0.427-2.288-0.902-3.381-1.431
				l0.004-0.014c0.009-0.075-0.014-0.142-0.066-0.195c-0.298-0.551-0.498-1.146-0.626-1.772c0.475-0.631,1.292-1.448,1.963-1.817
				c0.022-0.013,0.04-0.022,0.067-0.035c0.009,0.075,0.026,0.15,0.062,0.218c0.066,0.12,0.254,0.253,0.343,0.364
				c0.267,0.333,0.617,0.533,0.977,0.821c0.263,0.205,0.587,0.569,0.787,0.84c0.178,0.235,0.324,0.791,0.688,0.747
				C38.749,39.914,38.927,40.172,39.188,40.243z"/>
			<path fill="#329CA9" d="M39.225,62.307c-0.115-0.572-1.408-0.439-1.861-0.386c-0.315,0.04-0.524,0.208-0.796,0.307
				c-0.23-0.36-0.427-0.787-0.582-1.178c-0.302-0.777-1.03-2.026-0.626-2.879c1.142,0.209,2.306,0.359,3.487,0.453l-0.009,0.115
				c0,0.52-0.022,1.178,0.213,1.626c0.2,0.36,0.449,0.693,0.613,1.08c0.125,0.138,0.28,0.373,0.432,0.516
				c-0.285,0.124-0.573,0.244-0.867,0.355L39.225,62.307z"/>
			<path fill="#329CA9" d="M36.438,62.271c-0.399,0.094-0.741-0.16-1.097-0.235c-0.862-0.169-1.764,0.08-2.644,0
				c-0.058-0.005-0.125-0.009-0.187-0.018c-0.351-0.453-0.644-0.889-0.787-1.138c-0.711-1.288-0.506-2.515-0.924-3.834
				c1.475,0.453,2.995,0.835,4.559,1.124c-0.404,0.853,0.324,2.102,0.626,2.879c0.155,0.391,0.352,0.817,0.582,1.178
				C36.527,62.249,36.483,62.263,36.438,62.271z"/>
			<path fill="#329CA9" d="M37.709,18.1c0.085,0.391-0.115,0.786-0.035,1.168c0.066,0.324,0.382,0.511,0.547,0.813
				c0.204,0.391,0.284,0.884,0.528,1.244c0.115,0.169,0.2,0.351,0.289,0.529c-0.329,0.151-0.645,0.324-0.938,0.533
				c-0.049-0.04-0.098-0.058-0.146-0.058c-0.146-0.004-0.28,0.209-0.32,0.414c0,0.004-0.014,0.009-0.018,0.018
				c-0.706,0.622-1.76,0.969-2.391,1.693l-0.164-0.04c0.319-1.2,0.688-2.381,1.084-3.577c0.28-0.831,0.622-1.635,1.062-2.39
				c0.111-0.191,0.258-0.422,0.427-0.591C37.665,17.922,37.691,18.006,37.709,18.1z"/>
			<path fill="#329CA9" d="M37.367,23.275c-0.129,0.311-0.089,0.698-0.164,1.04c-0.058,0.271,0,0.75,0.404,0.449l-0.014-0.018
				c0.106-0.369,0.458-0.897,0.187-1.239c-0.031-0.014-0.066-0.004-0.102-0.014C37.643,23.338,37.531,23.245,37.367,23.275z
				 M39.073,23.302c-0.19-0.12-0.368-0.275-0.546-0.462c-0.098-0.107-0.263-0.347-0.427-0.453c0.293-0.209,0.608-0.382,0.938-0.533
				c0.08,0.164,0.16,0.329,0.267,0.484c0.178,0.257,0.408,0.453,0.573,0.746c0.267,0.467,0.675,1.373,0.244,1.862
				c-0.244,0.267-1.133,0.471-1.155,0.929c-0.022,0.306,0.329,0.355,0.528,0.462c0.04,0.018,0.08,0.049,0.116,0.084
				c-0.045,0.018-0.089,0.04-0.138,0.053c-0.285,0.098-0.591,0.204-0.889,0.324c-0.271-0.058-0.524-0.093-0.688-0.009
				c-0.231,0.12-0.245,0.267-0.183,0.4c-0.08,0.044-0.151,0.084-0.227,0.129c-1.155,0.653-2.137,1.959-3.426,2.377l-0.098-0.018
				c0.125-0.666,0.258-1.342,0.378-2.021c0.195-1.097,0.436-2.177,0.72-3.243l0.164,0.04c0.631-0.724,1.685-1.071,2.391-1.693
				c0.004-0.009,0.018-0.013,0.018-0.018c-0.014,0.075-0.018,0.151,0,0.217c0.066,0.307,0.267,0.218,0.498,0.396
				c0.515,0.413,0.142,1.324,0.244,1.924c0.062,0.004,0.124,0.009,0.187,0.009c0.009,0.005,0.026,0.005,0.035,0.005s0.014,0,0.022,0
				c0.404-0.005,0.591-0.8,1.106-0.827c0.014-0.253,0.12-0.56-0.026-0.782C39.598,23.524,39.225,23.4,39.073,23.302z"/>
			<path fill="#329CA9" d="M44.263,28.394c0.312,0.542-0.302,0.498-0.253,0.928c0.516,0.027,0.92-0.071,0.92-0.498l0.066-0.004
				c0.106-0.031,0.315-0.204,0.6-0.493c0.009,0.107,0.018,0.222,0.049,0.333c0.103,0.351,0.387,0.675,0.636,0.959
				c-0.68,0.106-1.271,0.329-1.902,0.529c-0.204-0.307-0.404-0.693-0.76-0.742c-0.488-0.075-1.035-0.058-1.515,0.036
				c-0.56,0.111-1.164,0.222-1.751,0.196c-0.443-0.022-1.004-0.213-1.43-0.147c-0.414,0.609-1.12,1.044-1.418,1.75
				c-0.111,0.271-0.084,0.52-0.227,0.755l-0.004,0.004c-0.12,0.067-0.236,0.138-0.347,0.205c-0.507,0.324-1.066,0.422-1.6,0.693
				c-0.4,0.205-1.315,1.205-1.733,0.991H33.48c0-0.035,0-0.075,0-0.111c0-1.426,0.222-2.759,0.484-4.101l0.098,0.018
				c1.289-0.418,2.271-1.724,3.426-2.377c0.075-0.044,0.146-0.084,0.227-0.129c0.045,0.098,0.124,0.191,0.183,0.271
				c0.275,0.342,0.431,0.707,0.479,1.16c0.253-0.009,0.347,0.125,0.542,0.182s0.396,0.036,0.622,0.058
				c0.391,0.04,0.64,0.347,1.049,0.311c0.528-0.04,0.675-0.502,0.769-0.973c0.115-0.617-0.355-0.404-0.484-0.853
				c0.422-0.026,0.821-0.115,1.266-0.115c0.604,0,0.849,0.191,1.324,0.502C43.756,27.927,44.085,28.074,44.263,28.394z"/>
			<path fill="#329CA9" d="M35.652,36.4h0.04c0.031,0.106,0.035,0.213,0.054,0.315c-0.027,0.013-0.045,0.022-0.067,0.035
				c-0.671,0.369-1.488,1.187-1.963,1.817c-0.315-1.511-0.24-3.186-0.235-4.679h0.115c0.417,0.214,1.333-0.786,1.733-0.991
				c0.533-0.271,1.093-0.369,1.6-0.693c0.11-0.067,0.227-0.138,0.347-0.205c-0.169,0.271-0.28,0.271-0.369,0.626
				c-0.111,0.44-0.284,0.551-0.507,0.902c-0.199,0.329-0.124,0.769-0.23,1.125c-0.098,0.338-0.315,0.453-0.409,0.777
				C35.679,35.716,35.63,36.085,35.652,36.4z"/>
			<path fill="#329CA9" d="M34.217,63.729c-0.395-0.142-1.119-0.959-1.706-1.71c0.062,0.009,0.129,0.013,0.187,0.018
				c0.88,0.08,1.782-0.169,2.644,0c0.355,0.075,0.697,0.329,1.097,0.235c0.045-0.009,0.089-0.022,0.129-0.044
				c0.191,0.311,0.413,0.577,0.64,0.741l0.014,0.049C36.234,63.315,35.23,63.551,34.217,63.729z"/>
			<path fill="#329CA9" d="M28.064,61.383c0.604,0.213,1.062,0.391,1.728,0.422c0.902,0.036,1.822,0.129,2.719,0.214
				c0.586,0.751,1.311,1.568,1.706,1.71c-1.337,0.24-2.688,0.369-4.034,0.4C29.45,63.88,28.699,62.733,28.064,61.383z"/>
			<path fill="#329CA9" d="M37.634,17.855c-0.249-0.604-0.853-0.617-1.511-0.533c-0.396,0.053-0.488,0.271-0.791,0.498
				c-0.244,0.187-0.462,0.227-0.563,0.56c-0.103,0.32-0.027,0.64-0.24,0.946c-0.338,0.484-0.946,0.849-1.515,0.871
				c-0.764,0.031-1.173,0.355-1.586,0.973c-0.062,0.094-0.169,0.222-0.289,0.351c0.103-0.502,0.213-1,0.351-1.497
				c0.187-0.711,0.369-1.453,0.755-2.102c0.227-0.387,0.555-0.698,0.533-1.16v-0.031c1.813,0.08,3.612,0.365,5.363,0.844
				C37.949,17.598,37.78,17.708,37.634,17.855z"/>
			<path fill="#329CA9" d="M32.778,16.762c0.022,0.462-0.307,0.773-0.533,1.16c-0.387,0.648-0.569,1.391-0.755,2.102
				c-0.138,0.498-0.249,0.995-0.351,1.497c-0.36,0.374-0.884,0.742-1.084,0.151c-0.076-0.24,0.049-0.622,0.244-0.804
				c0.173-0.165,0.6-0.187,0.547-0.484c-0.058-0.298-0.48-0.222-0.64-0.489c-0.124-0.2-0.142-0.609-0.106-0.862
				c0.098-0.702,1.315-1.155,1.111-1.897c-0.067-0.231-0.187-0.364-0.431-0.364v-0.053c0.667-0.027,1.333-0.022,2,0.013V16.762z"/>
			<path fill="#329CA9" d="M27.61,20.627c-0.16-0.071-0.235-0.275-0.324-0.458c0.138-0.431,0.289-0.844,0.48-1.208
				c0.133-0.253,0.338-0.515,0.555-0.782c0.173,0.102,0.338,0.208,0.484,0.315c0.342,0.244,0.578,0.293,0.476,0.844
				c-0.08,0.439-0.374,0.542-0.698,0.817C28.304,20.392,28.082,20.828,27.61,20.627z"/>
			<path fill="#329CA9" d="M27.846,56.003c0.959,0.382,1.95,0.729,2.955,1.044c0.417,1.319,0.213,2.546,0.924,3.834
				c0.143,0.249,0.436,0.685,0.787,1.138c-0.897-0.085-1.817-0.178-2.719-0.214c-0.667-0.031-1.124-0.209-1.728-0.422
				c-0.902-1.933-1.564-4.278-1.578-5.056l-0.004-0.054c0.418-0.044,0.849-0.062,1.284-0.062L27.846,56.003z"/>
			<path fill="#C8F4C6" d="M27.686,17.011c0.502-0.08,1.004-0.143,1.506-0.191c-0.125,0.458-0.511,0.911-0.871,1.36
				c-0.409-0.236-0.871-0.431-1.328-0.44c-0.089-0.391,0.458-0.506,0.688-0.724L27.686,17.011z"/>
			<path fill="#329CA9" d="M29.281,19.339c0.102-0.551-0.133-0.6-0.476-0.844c-0.146-0.107-0.311-0.213-0.484-0.315
				c0.36-0.449,0.747-0.902,0.871-1.36c0.529-0.053,1.053-0.089,1.586-0.102v0.053c0.245,0,0.364,0.133,0.431,0.364
				c0.204,0.742-1.013,1.195-1.111,1.897c-0.036,0.253-0.018,0.662,0.106,0.862c0.16,0.267,0.582,0.191,0.64,0.489
				c0.053,0.298-0.374,0.32-0.547,0.484c-0.195,0.182-0.32,0.564-0.244,0.804c0.2,0.591,0.724,0.222,1.084-0.151
				c-0.213,1.035-0.386,2.071-0.622,3.106c-0.449,1.995-0.737,4.109-0.942,6.153c-0.084,0.831-0.084,1.675,0.009,2.51
				c0.173,1.488,0.013,3.337,0.404,4.799c-1.409-0.894-2.737-1.849-3.968-2.821v-0.01c-0.653-0.769-0.151-2.043-0.178-3.007
				c-0.044-1.568,0.022-3.159,0.178-4.709c0.146-1.502,0.377-3.043,0.653-4.545c0.026-0.138,0.049-0.284,0.08-0.44
				c0.44-0.351,0.809-0.959,0.578-1.461c-0.049-0.107-0.129-0.196-0.222-0.275c0.058-0.218,0.116-0.436,0.178-0.649
				c0.089,0.182,0.165,0.387,0.324,0.458c0.471,0.2,0.693-0.235,0.973-0.471C28.908,19.881,29.201,19.779,29.281,19.339z"/>
			<path fill="#329CA9" d="M27.331,21.094c0.231,0.502-0.138,1.111-0.578,1.461c0.103-0.546,0.213-1.15,0.355-1.737
				C27.202,20.898,27.282,20.987,27.331,21.094z"/>
			<path fill="#329CA9" d="M25.504,20.041c0.342-0.346,1.297-0.471,1.644-0.106c0.053,0.058,0.102,0.142,0.138,0.235
				c-0.062,0.213-0.12,0.431-0.178,0.649c-0.151-0.125-0.342-0.222-0.498-0.32c-0.289-0.173-0.511-0.08-0.826-0.191
				C25.643,20.254,25.558,20.166,25.504,20.041z"/>
			<path fill="#329CA9" d="M27.073,60.987c0.276,0.08,0.591,0.254,0.889,0.355c0.04,0.014,0.071,0.022,0.103,0.04
				c0.635,1.351,1.386,2.497,2.119,2.746c-1.399,0.035-2.794-0.04-4.163-0.223v-0.004c-0.516-0.995-1.004-2-1.404-3.097
				c0.422,0.204,0.871,0.431,1.275,0.328C26.304,61.032,26.589,60.85,27.073,60.987z"/>
			<path fill="#329CA9" d="M24.074,60.597c0.173,0.044,0.355,0.12,0.542,0.209c0.4,1.097,0.888,2.102,1.404,3.097v0.004
				c-1.2-0.155-2.377-0.387-3.528-0.697c-0.187-0.68-0.347-1.364-0.498-2.066c0.284-0.084,0.187-0.262,0.298-0.657
				C22.901,60.468,23.514,60.459,24.074,60.597z"/>
			<path fill="#329CA9" d="M26.482,56.273l0.004,0.054c0.014,0.777,0.675,3.123,1.578,5.056c-0.031-0.018-0.062-0.026-0.103-0.04
				c-0.297-0.102-0.613-0.275-0.889-0.355c-0.484-0.138-0.769,0.045-1.182,0.146c-0.404,0.103-0.853-0.124-1.275-0.328
				c-0.044-0.129-0.093-0.263-0.138-0.4c-0.351-1.03-1.004-1.946-1.258-3.03l-0.106-0.253C24.194,56.678,25.3,56.394,26.482,56.273z
				"/>
			<path fill="#329CA9" d="M24.536,24.009c0.231-0.222,0.702-0.675,0.546-1.04c-0.178-0.418-0.915-0.302-1.23-0.16
				c-0.302,0.142-0.671,0.302-1.018,0.293c0.275-0.493,0.964-0.693,1.515-0.653c0.667,0.058,1.302,0.644,2.021,0.342
				c0.125-0.054,0.253-0.138,0.382-0.236c-0.031,0.156-0.053,0.302-0.08,0.44c-0.276,1.502-0.507,3.043-0.653,4.545
				c-0.155,1.55-0.222,3.141-0.178,4.709c0.027,0.964-0.476,2.239,0.178,3.007c-1.604-1.261-3.052-2.567-4.328-3.834
				c-0.458-1.12-0.16-2.834-0.102-4.003c0.058-1.137,0.165-2.244,0.347-3.359c0.009-0.053,0.018-0.116,0.031-0.173
				c0.066-0.026,0.128-0.053,0.2-0.076c0.307-0.106,1.088-0.227,1.404-0.12C24.012,23.84,24.052,24.466,24.536,24.009z"/>
			<path fill="#329CA9" d="M25.785,20.308c0.315,0.111,0.538,0.018,0.826,0.191c0.156,0.098,0.347,0.196,0.498,0.32
				c-0.142,0.586-0.253,1.19-0.355,1.737c-0.129,0.098-0.257,0.182-0.382,0.236c-0.72,0.302-1.355-0.285-2.021-0.342
				c-0.551-0.04-1.24,0.16-1.515,0.653c0.347,0.009,0.715-0.151,1.018-0.293c0.315-0.142,1.053-0.258,1.23,0.16
				c0.156,0.364-0.315,0.817-0.546,1.04c-0.484,0.458-0.524-0.169-0.964-0.315c-0.315-0.107-1.097,0.013-1.404,0.12
				c-0.071,0.022-0.133,0.049-0.2,0.076c0.204-1.128,0.64-2.257,1.004-3.363c0.324-1.013,0.875-2.199,1.71-2.848c0,0,0,0,0.004,0
				c0.982-0.285,1.986-0.511,2.995-0.662c-0.231,0.218-0.777,0.333-0.688,0.724c0.458,0.009,0.919,0.204,1.328,0.44
				c-0.217,0.267-0.422,0.529-0.555,0.782c-0.191,0.364-0.342,0.778-0.48,1.208c-0.036-0.093-0.084-0.178-0.138-0.235
				c-0.347-0.364-1.302-0.24-1.644,0.106C25.558,20.166,25.643,20.254,25.785,20.308z"/>
			<path fill="#329CA9" d="M19.853,61.423c0.271-0.284,0.596-0.244,0.96-0.244c0.315,0,0.657,0.04,0.973,0
				c0.089-0.009,0.156-0.018,0.209-0.036c0.151,0.702,0.311,1.387,0.498,2.066c-1.075-0.289-2.124-0.645-3.137-1.062
				C19.667,62.05,19.64,61.641,19.853,61.423z"/>
			<circle fill="#F7F7F7" cx="21.117" cy="40.604" r="0.575"/>
			<path fill="#329CA9" d="M21.706,58.331c-0.173,0.15-0.564,0.178-0.867,0.128c0.338-0.271,0.671-0.532,1.013-0.72
				c0.018-0.009,0.036-0.018,0.053-0.026C21.91,57.957,21.853,58.211,21.706,58.331z"/>
			<path fill="#329CA9" d="M20.839,58.459c0.302,0.05,0.693,0.022,0.867-0.128c0.146-0.12,0.204-0.374,0.2-0.618
				c0.4-0.227,0.8-0.418,1.208-0.591l0.106,0.253c0.253,1.084,0.907,2,1.258,3.03c0.044,0.138,0.093,0.271,0.138,0.4
				c-0.187-0.089-0.369-0.165-0.542-0.209c-0.56-0.138-1.173-0.129-1.782-0.111c-0.111,0.396-0.014,0.573-0.298,0.657
				c-0.018-0.089-0.036-0.182-0.053-0.271c-0.178-0.857-0.849-1.364-1.231-2.133l-0.084-0.103
				C20.697,58.575,20.769,58.518,20.839,58.459z"/>
			<path fill="#329CA9" d="M21.093,56.434c0.142,0.364,0.458,0.391,0.68,0.755c0.08,0.129,0.129,0.329,0.133,0.524
				c-0.018,0.009-0.036,0.018-0.053,0.026c-0.342,0.188-0.675,0.449-1.013,0.72c-0.12-0.018-0.222-0.044-0.297-0.084
				c-0.387-0.204-0.6-0.564-0.929-0.813c-0.022-0.19-0.227-0.253-0.364-0.373c-0.129-0.12-0.178-0.182-0.271-0.351
				c-0.146-0.253-0.333-0.52-0.507-0.773c-0.28-0.413-0.484-1.155-0.56-1.661c0.906-0.289,1.804-0.436,2.701-0.453
				c-0.151,0.208-0.267,0.466-0.533,0.555c-0.009,0.502,0.151,0.618,0.507,0.916C20.928,55.696,20.946,56.064,21.093,56.434z"/>
			<path fill="#329CA9" d="M21.19,52.741c2.053,1.209,4.283,2.328,6.656,3.262l-0.08,0.208c-0.436,0-0.866,0.019-1.284,0.062
				c-1.182,0.12-2.288,0.404-3.368,0.849c-0.409,0.173-0.809,0.364-1.208,0.591c-0.004-0.195-0.053-0.396-0.133-0.524
				c-0.222-0.364-0.538-0.391-0.68-0.755c-0.146-0.369-0.165-0.737-0.506-1.013c-0.355-0.298-0.516-0.414-0.507-0.916
				c0.267-0.089,0.382-0.347,0.533-0.555c0.062-0.094,0.138-0.178,0.231-0.231c0.084-0.289-0.04-0.688,0.133-0.92
				C21.035,52.804,21.11,52.786,21.19,52.741z"/>
			<path fill="#329CA9" d="M20.71,58.739c0.382,0.769,1.053,1.275,1.231,2.133c0.018,0.089,0.036,0.182,0.053,0.271
				c-0.053,0.019-0.12,0.027-0.209,0.036c-0.315,0.04-0.657,0-0.973,0c-0.364,0-0.689-0.04-0.96,0.244
				c-0.213,0.218-0.187,0.627-0.498,0.725c-0.688-0.28-1.364-0.601-2.017-0.938l0.058-0.103c0.529-0.8,1.187-1.178,2.004-1.604
				c0.418-0.227,0.831-0.547,1.227-0.867L20.71,58.739z"/>
			<path fill="#329CA9" d="M18.396,27.728c-0.014,0.009-0.027,0.018-0.04,0.026c-2.177-2.67-3.244-4.674-2.95-4.954l-0.004-0.004
				c1.964-1.777,4.199-3.159,6.571-4.163c0.884-0.373,1.791-0.689,2.71-0.955c-0.835,0.648-1.386,1.834-1.71,2.848
				c-0.364,1.106-0.8,2.235-1.004,3.363c-0.36,0.169-0.631,0.427-0.875,0.747c-0.396,0.529-0.48,1.342-0.893,1.928
				c-0.213,0.298-0.506,0.533-0.804,0.733C19.089,27.505,18.716,27.537,18.396,27.728z"/>
			<path fill="#329CA9" d="M20.2,26.563c0.413-0.586,0.498-1.399,0.893-1.928c0.244-0.32,0.515-0.578,0.875-0.747
				c-0.014,0.058-0.022,0.12-0.031,0.173c-0.182,1.115-0.289,2.222-0.347,3.359c-0.058,1.168-0.355,2.883,0.102,4.003
				c-1.297-1.292-2.412-2.541-3.336-3.67c0.013-0.009,0.026-0.018,0.04-0.026c0.32-0.191,0.693-0.222,1-0.431
				C19.693,27.097,19.986,26.861,20.2,26.563z"/>
			<path fill="#329CA9" d="M18.48,32.086c0.204,0.009,0.346,0.076,0.538,0.12c0.026,0.453-0.044,0.924-0.569,0.795l-0.004,0.018
				c-0.071,0.142-0.578,0.235-0.777,0.271c-0.596,0.106-0.538-0.151-0.64-0.582c0.315,0.205,0.662,0.315,1.058,0.187
				c0.013-0.24,0.009-0.489,0.009-0.724C18.214,32.135,18.343,32.082,18.48,32.086z"/>
			<path fill="#329CA9" d="M21.19,52.741c-0.08,0.045-0.155,0.062-0.213,0.058c-0.173,0.231-0.049,0.631-0.133,0.92
				c-0.093,0.054-0.168,0.138-0.231,0.231c-0.897,0.018-1.795,0.164-2.701,0.453c0-0.009-0.004-0.019-0.004-0.031
				c-0.053-0.4-0.302-0.693-0.4-1.075c-0.089-0.369-0.071-0.693-0.231-1.044c-0.129-0.289-0.315-0.547-0.413-0.845
				c-0.022-0.071-0.04-0.142-0.049-0.218c-0.066-0.453-0.12-0.844-0.227-1.284c-0.018-0.066-0.026-0.142-0.031-0.213
				C17.978,50.733,19.524,51.769,21.19,52.741z"/>
			<path fill="#28BF22" d="M16.348,31.926c0.52,0.053,0.498,0.164,0.649,0.657c0.013,0.044,0.022,0.084,0.031,0.125
				c-0.307-0.195-0.586-0.489-0.857-0.724c-0.026-0.022-0.058-0.044-0.08-0.071C16.179,31.913,16.263,31.917,16.348,31.926z"/>
			<path fill="#329CA9" d="M16.09,31.913c-0.249-0.013-0.502-0.013-0.75-0.026c0.018-0.191,0.013-0.4,0.031-0.6
				C15.592,31.486,15.833,31.69,16.09,31.913z"/>
			<path fill="#329CA9" d="M17.338,31.513c0.182,0.298,0.146,0.662,0.56,0.689c0.066,0.004,0.129-0.014,0.195-0.031
				c0,0.235,0.004,0.484-0.009,0.724c-0.396,0.129-0.742,0.018-1.058-0.187c-0.009-0.04-0.018-0.08-0.031-0.125
				c-0.151-0.493-0.129-0.604-0.649-0.657c-0.084-0.009-0.169-0.014-0.258-0.014c-0.257-0.222-0.498-0.426-0.72-0.626
				c0.009-0.098,0.027-0.191,0.049-0.28c0.2,0.009,0.262,0.151,0.498,0.156c0.173,0.004,0.378-0.111,0.547-0.125
				C16.876,31.002,17.139,31.18,17.338,31.513z"/>
			<path fill="#329CA9" d="M15.379,30.486c0.022-0.12,0.031-0.271,0.071-0.382c0.142-0.378,1.111-1.035,0.573-1.466
				c-0.364-0.293-1.528,0.156-1.902,0.293c-0.311,0.111-0.706,0.106-0.991,0.244c-0.009,0.004-0.013,0.009-0.026,0.013
				c-0.564-0.631-1.009-1.328-1.302-2.168l-0.04-0.031c1.066-1.577,2.288-2.977,3.639-4.194l0.004,0.004
				c-0.293,0.28,0.773,2.284,2.95,4.954c-0.382,0.267-0.373,0.702-0.622,1.071c-0.218,0.32-0.458,0.675-0.724,0.929
				c-0.209,0.195-0.516,0.462-0.76,0.622C15.917,30.593,15.752,30.456,15.379,30.486z"/>
			<path fill="#329CA9" d="M16.219,35.653c0.618-0.471,1.879-0.612,2.271,0.151c0.324,0.08,0.56,0.298,0.919,0.284
				c0.031,0.187,0.378,0.312,0.551,0.4c0.168,0.084,0.444,0.298,0.613,0.342c0.014,0.258-0.115,0.866,0.271,0.854
				c0.253,0.577,0.969,0.551,1.36,0.973c0.102,0.115,0.129,0.315,0.24,0.436c0.071,0.08,0.249,0.15,0.302,0.222
				c0.155,0.218,0.169,0.511,0.355,0.742c0.178,0.223,0.422,0.453,0.667,0.613c1.124,0.764,2.79,0.551,4.114,0.626
				c0.106,0.258,0.311,0.521,0.439,0.76c0.289,0.542,0.578,1.129,0.253,1.751c-0.289,0.551-0.889,0.524-1.351,0.751
				c-0.604,0.289-0.595,1.271-0.729,1.866c-0.093,0.396-0.054,0.724-0.378,1.004c-0.227,0.195-0.52,0.249-0.786,0.319
				c-0.431,0.12-0.564,0.289-0.818,0.693c-0.187,0.298-0.329,0.391-0.591,0.591c-0.013,0.009-0.031,0.022-0.044,0.027
				c-0.489,0.364-0.889,0.563-0.889,1.248c0,0.275,0.116,0.866-0.004,1.115c-0.084,0.169-0.502,0.355-0.648,0.444
				c-0.24,0.142-0.773,0.702-1.146,0.875c-1.666-0.973-3.212-2.008-4.634-3.048c-0.049-0.408,0.044-0.844-0.093-1.239
				c-0.12-0.343-0.293-0.658-0.396-0.974c-0.182-0.546-0.44-1.177-0.8-1.644c-0.231-0.302-0.377-0.617-0.524-0.941
				c-0.129-0.285-0.302-0.454-0.458-0.729c-0.169-0.293-0.133-0.684-0.244-1.008c-0.103-0.303-0.28-0.409-0.454-0.653
				c-0.551-0.746-1.075-1.697-0.817-2.688c0.058-0.218,0.133-0.422,0.231-0.622c0.236-0.483,0.569-0.928,0.889-1.368
				c0.205-0.284,0.347-0.604,0.662-0.764c0.298-0.16,0.675-0.111,0.978-0.275c0.417-0.236,0.267-0.773,0.622-1.085
				C16.174,35.685,16.197,35.667,16.219,35.653z M21.692,40.604c0-0.315-0.262-0.573-0.578-0.573c-0.315,0-0.573,0.258-0.573,0.573
				s0.257,0.573,0.573,0.573C21.431,41.177,21.692,40.919,21.692,40.604z"/>
			<path fill="#329CA9" d="M13.229,48.636c0.791-0.053,1.364,0.343,2.186,0.231l0.018-0.022c0.364,0.284,0.742,0.564,1.124,0.849
				c0.004,0.071,0.013,0.146,0.031,0.213c0.107,0.44,0.16,0.831,0.227,1.284c0.009,0.076,0.027,0.146,0.049,0.218
				c-0.938,0.062-1.862,0.289-2.759,0.578c-0.871,0.284-1.404,0.511-2.182,1.048c-0.582,0.404-1.52,1.409-2.102,1.427l-0.12,0.08
				c-0.698-1.031-1.302-2.138-1.786-3.323l0.04-0.019c0.302-0.83,2.328-1.75,3.146-1.977C11.758,49.036,12.54,48.681,13.229,48.636z
				"/>
			<path fill="#329CA9" d="M6.84,47.601l0.066-0.013c1.235-1.312,3.368-1.507,5.212-1.516c0.986,0.894,2.097,1.831,3.314,2.772
				l-0.018,0.022c-0.822,0.111-1.395-0.284-2.186-0.231c-0.688,0.045-1.47,0.4-2.128,0.587c-0.817,0.227-2.844,1.146-3.146,1.977
				l-0.04,0.019C7.444,50.08,7.08,48.871,6.84,47.601z"/>
			<path fill="#329CA9" d="M20.626,58.637c-0.396,0.32-0.809,0.641-1.227,0.867c-0.817,0.426-1.475,0.804-2.004,1.604l-0.058,0.103
				c-1.933-1.018-3.706-2.279-5.229-3.786l0.04-0.049c0.116,0.071,0.236,0.116,0.364,0.138c1.125-1.226,3.417-2.39,4.972-2.963
				c0.143-0.049,0.285-0.103,0.427-0.146c0.076,0.506,0.28,1.248,0.56,1.661c0.173,0.254,0.36,0.521,0.507,0.773
				c0.093,0.169,0.142,0.23,0.271,0.351c0.138,0.12,0.342,0.183,0.364,0.373c0.329,0.249,0.542,0.609,0.929,0.813
				c0.075,0.04,0.178,0.066,0.297,0.084C20.769,58.518,20.697,58.575,20.626,58.637z"/>
			<path fill="#329CA9" d="M11.763,26.99l0.04,0.031c0.293,0.84,0.737,1.537,1.302,2.168c-0.338,0.187-0.502,0.56-0.769,0.831
				c-0.409,0.413-1.258,0.795-0.929,1.6c0.307,0.729,0.879-0.418,1.364-0.427c0.662-0.018,0.916,1.227,0.893,1.746
				c-0.013,0.351-0.076,0.649-0.155,0.978c-0.285-0.102-0.551-0.187-0.849-0.431c-0.258-0.213-0.671-0.493-0.862-0.755
				c-0.128-0.173-0.146-0.476-0.284-0.631c-0.125-0.138-0.413-0.217-0.573-0.364c-0.498-0.435-0.617-1.128-0.946-1.608
				C10.514,29.016,11.105,27.967,11.763,26.99z"/>
			<path fill="#329CA9" d="M18.48,32.086c-0.138-0.004-0.267,0.049-0.387,0.084c-0.066,0.018-0.129,0.036-0.195,0.031
				c-0.414-0.027-0.378-0.391-0.56-0.689c-0.2-0.333-0.462-0.511-0.875-0.475c-0.169,0.013-0.374,0.129-0.547,0.125
				c-0.235-0.005-0.297-0.147-0.498-0.156c-0.022,0.089-0.04,0.182-0.049,0.28c-0.018,0.2-0.013,0.409-0.031,0.6
				c0.249,0.013,0.502,0.013,0.75,0.026c0.022,0.027,0.054,0.049,0.08,0.071c0.271,0.235,0.551,0.529,0.857,0.724
				c0.103,0.431,0.044,0.688,0.64,0.582c0.2-0.036,0.706-0.129,0.777-0.271l0.004-0.018c0.524,0.128,0.595-0.342,0.569-0.795
				C18.827,32.162,18.685,32.095,18.48,32.086z M43.254,55.829c0.205,0.04,0.404,0.075,0.604,0.094c1.307,0.11,3.417,0.897,4.465,0
				c-0.812,0.938-1.688,1.79-2.612,2.555c-2.346,0.297-4.638,0.328-6.864,0.146c-1.182-0.094-2.346-0.244-3.487-0.453
				c-1.564-0.289-3.083-0.671-4.559-1.124c-1.004-0.315-1.995-0.662-2.955-1.044c-2.373-0.934-4.603-2.053-6.656-3.262
				c0.374-0.173,0.906-0.733,1.146-0.875c0.146-0.089,0.564-0.275,0.648-0.444c0.12-0.249,0.004-0.84,0.004-1.115
				c0-0.685,0.4-0.884,0.889-1.248c0.013-0.005,0.031-0.019,0.044-0.027c0.262-0.2,0.404-0.293,0.591-0.591
				c0.253-0.404,0.387-0.573,0.818-0.693c0.267-0.07,0.56-0.124,0.786-0.319c0.324-0.28,0.285-0.608,0.378-1.004
				c0.133-0.596,0.124-1.577,0.729-1.866c0.462-0.227,1.062-0.2,1.351-0.751c0.324-0.622,0.036-1.209-0.253-1.751
				c-0.129-0.239-0.333-0.502-0.439-0.76c-1.324-0.075-2.99,0.138-4.114-0.626c-0.245-0.16-0.489-0.391-0.667-0.613
				c-0.187-0.231-0.2-0.524-0.355-0.742c-0.053-0.071-0.231-0.142-0.302-0.222c-0.111-0.12-0.138-0.32-0.24-0.436
				c-0.391-0.422-1.106-0.396-1.36-0.973c-0.386,0.013-0.257-0.596-0.271-0.854c-0.168-0.044-0.444-0.258-0.613-0.342
				c-0.173-0.089-0.52-0.214-0.551-0.4c-0.36,0.014-0.595-0.204-0.919-0.284c-0.391-0.764-1.653-0.622-2.271-0.151
				c-0.431-0.244-0.884-0.6-1.044-0.701c-0.4-0.258-0.835-0.627-1.231-0.845c-0.151-0.08-0.297-0.138-0.435-0.191
				c0.08-0.329,0.142-0.626,0.155-0.978c0.022-0.52-0.231-1.764-0.893-1.746c-0.484,0.009-1.057,1.155-1.364,0.427
				c-0.329-0.804,0.52-1.187,0.929-1.6c0.266-0.271,0.431-0.644,0.769-0.831c0.013-0.004,0.018-0.009,0.026-0.013
				c0.285-0.138,0.68-0.133,0.991-0.244c0.374-0.138,1.538-0.586,1.902-0.293c0.538,0.431-0.431,1.088-0.573,1.466
				c-0.04,0.111-0.049,0.262-0.071,0.382c0.374-0.031,0.538,0.107,0.871-0.111c0.244-0.16,0.551-0.427,0.76-0.622
				c0.267-0.253,0.506-0.608,0.724-0.929c0.249-0.369,0.24-0.804,0.622-1.071c0.924,1.129,2.039,2.377,3.336,3.67
				c1.275,1.267,2.724,2.573,4.328,3.834v0.01c1.23,0.973,2.559,1.928,3.968,2.821c1.391,0.893,2.866,1.724,4.417,2.461
				c1.093,0.528,2.221,1.004,3.381,1.431c2.234,0.813,4.594,1.426,7.06,1.741c-0.098,0.294-0.187,0.592-0.311,0.871
				c-0.107,0.267-0.275,0.489-0.298,0.777c-0.026,0.44,0.222,0.733,0.342,1.094c0.075,0.213,0.103,0.444,0.098,0.671
				c-0.004,0.19-0.035,0.382-0.08,0.568c-0.089,0.347-0.227,0.626-0.436,0.924c-0.222,0.324-0.267,0.671-0.435,1.018
				c-0.134,0.275-0.423,0.439-0.564,0.711c-0.155,0.284-0.143,0.636-0.129,0.981c0.004,0.085,0.004,0.169,0.004,0.254
				c0,0.666-0.044,1.302-0.244,1.928c-0.089,0.28-0.164,0.662-0.319,0.929c-0.129,0.204-0.627,0.631-0.685,0.982
				c-0.014,0.102,0.005,0.195,0.08,0.279c0.124,0.134,0.586,0.178,0.769,0.2C42.846,55.927,43.05,55.896,43.254,55.829z
				 M36.141,46.197c0-0.315-0.257-0.573-0.572-0.573c-0.32,0-0.573,0.258-0.573,0.573c0,0.319,0.253,0.572,0.573,0.572
				C35.884,46.77,36.141,46.517,36.141,46.197z"/>
			<path fill="#329CA9" d="M13.979,36.787c0.374-0.258,0.667-0.667,0.573-1.16c-0.409-0.169-1.622,0.169-1.479-0.6
				c0.018-0.111,0.191-0.253,0.244-0.373c0.089-0.214,0.129-0.489,0.182-0.702c0.005-0.009,0.005-0.027,0.009-0.036
				c0.138,0.053,0.284,0.111,0.435,0.191c0.396,0.218,0.831,0.587,1.231,0.845c0.16,0.102,0.613,0.457,1.044,0.701
				c-0.022,0.014-0.044,0.031-0.066,0.049c-0.355,0.312-0.205,0.849-0.622,1.085c-0.302,0.164-0.68,0.115-0.978,0.275
				c-0.315,0.159-0.458,0.479-0.662,0.764c-0.32,0.44-0.653,0.885-0.889,1.368c-0.297-0.07-0.573-0.213-0.911-0.466
				c-0.595-0.444-1.164-0.725-1.635-1.298c-0.698-0.853-1.76-1.333-2.324-2.252l-0.067-0.027c0.16-0.439,0.329-0.889,0.502-1.341
				l0.036,0.009c0.258-0.889,0.556-1.742,0.893-2.563c0.476,0.435,1.386,0.106,1.524,0.755c0.076,0.333,0.071,0.947,0,1.284
				c-0.04,0.218-0.2,0.382-0.182,0.569c0.013,0.106,0.146,0.289,0.195,0.391c0.329,0.071,0.671-0.16,1.031-0.142
				c0.427,0.662-0.213,1.577,0.365,2.212c0.36,0.392,0.479,0.275,0.924,0.165c0.449-0.116,0.391,0.11,0.618,0.311L13.979,36.787z"/>
			<path fill="#329CA9" d="M11.034,34.254c-0.049-0.102-0.182-0.284-0.195-0.391c-0.018-0.187,0.142-0.351,0.182-0.569
				c0.071-0.337,0.076-0.951,0-1.284c-0.138-0.648-1.048-0.32-1.524-0.755c0.156-0.382,0.324-0.76,0.498-1.129
				c0.329,0.48,0.449,1.173,0.946,1.608c0.16,0.147,0.449,0.227,0.573,0.364c0.138,0.156,0.156,0.458,0.284,0.631
				c0.191,0.262,0.604,0.542,0.862,0.755c0.297,0.245,0.564,0.329,0.849,0.431c-0.004,0.009-0.004,0.027-0.009,0.036
				c-0.053,0.213-0.093,0.488-0.182,0.702c-0.053,0.12-0.227,0.262-0.244,0.373c-0.142,0.769,1.071,0.431,1.479,0.6
				c0.093,0.493-0.2,0.902-0.573,1.16L13.971,36.8c-0.227-0.2-0.169-0.427-0.618-0.311c-0.444,0.11-0.564,0.227-0.924-0.165
				c-0.578-0.635,0.062-1.55-0.365-2.212C11.705,34.094,11.363,34.325,11.034,34.254z"/>
			<path fill="#329CA9" d="M17.912,54.403c-0.142,0.044-0.284,0.098-0.427,0.146c-1.555,0.573-3.847,1.737-4.972,2.963
				c-0.128-0.021-0.249-0.066-0.364-0.138l-0.04,0.049c-0.888-0.884-1.697-1.844-2.408-2.883l0.12-0.08
				c0.582-0.018,1.52-1.022,2.102-1.427c0.778-0.537,1.311-0.764,2.182-1.048c0.897-0.289,1.822-0.516,2.759-0.578
				c0.098,0.298,0.284,0.556,0.413,0.845c0.16,0.351,0.142,0.675,0.231,1.044c0.098,0.382,0.347,0.675,0.4,1.075
				C17.907,54.385,17.912,54.395,17.912,54.403z"/>
			<path fill="#329CA9" d="M6.8,40.105c0.458,0.942,2.333,3.266,5.318,5.967c-1.844,0.009-3.977,0.204-5.212,1.516L6.84,47.601
				C6.409,45.309,6.364,42.803,6.8,40.105z"/>
			<path fill="#329CA9" d="M8.133,35.179c0.564,0.919,1.626,1.399,2.324,2.252c0.471,0.573,1.04,0.854,1.635,1.298
				c0.338,0.253,0.613,0.396,0.911,0.466c-0.098,0.2-0.173,0.404-0.231,0.622c-0.258,0.991,0.267,1.942,0.817,2.688
				c0.173,0.244,0.351,0.351,0.454,0.653c0.111,0.324,0.075,0.715,0.244,1.008c0.156,0.275,0.329,0.444,0.458,0.729
				c0.147,0.324,0.293,0.64,0.524,0.941c0.36,0.467,0.618,1.098,0.8,1.644c0.102,0.315,0.275,0.631,0.396,0.974
				c0.138,0.396,0.044,0.831,0.093,1.239c-0.382-0.284-0.76-0.564-1.124-0.849c-1.218-0.941-2.328-1.879-3.314-2.772
				c-2.986-2.701-4.861-5.024-5.318-5.967c0.249-1.586,0.671-3.234,1.266-4.954L8.133,35.179z"/>
			<path fill="#329CA9" d="M54.903,15.638c0.249,0.106,0.432,0.182,0.587,0.275c0.271,0.165,0.439,0.36,0.657,0.791
				c0.702,0.04,1.115-0.596,1.191-1.195c0.018,0,0.04-0.004,0.058-0.009c0.04-0.191,0.004-0.355-0.089-0.493
				C56.806,14.216,54.597,14.292,54.903,15.638z M64.776,55.66c0.786,0.836,0.973,1.133,1.905,1.516v10.463H0.038V0.994h66.644
				v52.307c-0.018,0.005-0.035,0.014-0.049,0.022c-1.399-1.168-4.696-5.016-5.185-6.087c-0.312-0.68-0.795-1.226-1.253-1.795
				c-0.24-0.302-0.476-0.608-0.671-0.95c-0.253-0.427-1.164-1.312-2.102-2.009c-0.311-0.471-0.702-0.812-1.146-0.737
				c-0.319-0.164-0.604-0.267-0.826-0.275c-0.636-0.031-0.315-0.28-0.884-0.005c0.013-0.089,0.026-0.173,0.04-0.262
				c0.04-0.32,0.084-0.653,0.115-0.982c-0.005-0.227-0.009-0.457-0.022-0.68c-0.026-0.506-0.058-0.999-0.103-1.483
				c-0.106-1.138-0.271-2.227-0.497-3.271c-0.355-1.702-0.862-3.283-1.493-4.745c-0.857-1.991-1.95-3.754-3.226-5.296
				c-0.124-0.151-0.253-0.302-0.377-0.444c-1.054-1.204-2.218-2.266-3.471-3.181c-2.234-1.639-4.749-2.821-7.393-3.545
				c-1.751-0.479-3.55-0.764-5.363-0.844c-0.667-0.035-1.333-0.04-2-0.013c-0.533,0.013-1.057,0.049-1.586,0.102
				c-0.502,0.049-1.004,0.111-1.506,0.191l-0.004,0.004c-1.008,0.151-2.013,0.377-2.995,0.662c-0.004,0-0.004,0-0.004,0
				c-0.919,0.266-1.826,0.582-2.71,0.955c-2.373,1.004-4.607,2.386-6.571,4.163c-1.351,1.217-2.572,2.617-3.639,4.194
				c-0.658,0.978-1.249,2.026-1.769,3.137c-0.173,0.369-0.342,0.747-0.498,1.129c-0.337,0.822-0.635,1.675-0.893,2.563L8.568,33.81
				c-0.173,0.453-0.342,0.902-0.502,1.341c-0.595,1.72-1.018,3.368-1.266,4.954c-0.436,2.697-0.391,5.203,0.04,7.495
				c0.24,1.271,0.604,2.479,1.075,3.617c0.484,1.186,1.088,2.292,1.786,3.323c0.711,1.039,1.52,1.999,2.408,2.883
				c1.524,1.507,3.297,2.769,5.229,3.786c0.653,0.337,1.329,0.657,2.017,0.938c1.013,0.417,2.062,0.772,3.137,1.062
				c1.151,0.311,2.328,0.542,3.528,0.697c1.369,0.183,2.764,0.258,4.163,0.223c1.346-0.031,2.697-0.16,4.034-0.4
				c1.014-0.178,2.018-0.413,3.004-0.711c0.68-0.199,1.347-0.436,2.008-0.701c0.294-0.111,0.582-0.231,0.867-0.355
				c1.994-0.885,3.887-2.035,5.615-3.483c0.925-0.765,1.8-1.617,2.612-2.555c0,0,0.01-0.005,0.014-0.009
				c1.093-1.258,2.084-2.666,2.945-4.234c0.533-0.974,1.022-2.009,1.449-3.105c0.009-0.009,0.009-0.014,0.013-0.022
				c0.049-0.085,0.076-0.164,0.089-0.244c0.067-0.156,0.125-0.324,0.187-0.489c0.289-0.804,0.552-1.644,0.778-2.515
				c0.422-0.031,0.893-0.284,1.354-0.28c0.871,0.005,1.706,0.658,2.342,1.223c0.427,0.373,0.809,0.777,1.164,1.199
				c0.906,1.075,1.64,2.279,2.457,3.426c0.258,0.373,0.524,0.737,0.812,1.088c0.622,0.756,1.284,1.524,1.795,2.337
				c0.045,0.062,0.085,0.129,0.134,0.196C64.127,54.909,64.456,55.313,64.776,55.66z"/>
		</g>
		<g>
			<polyline fill="none" stroke="#329CA9" stroke-width="2" stroke-miterlimit="10" points="66.682,57.176 66.682,67.639 
				0.038,67.639 0.038,0.994 66.682,0.994 66.682,53.301 66.682,53.363 			"/>
			<path fill="none" stroke="#FFFFFF" stroke-width="2" stroke-miterlimit="10" d="M6.8,40.105c0.458,0.942,2.333,3.266,5.318,5.967
				c0.986,0.894,2.097,1.831,3.314,2.772c0.364,0.284,0.742,0.564,1.124,0.849c1.421,1.04,2.968,2.075,4.634,3.048
				c2.053,1.209,4.283,2.328,6.656,3.262c0.959,0.382,1.95,0.729,2.955,1.044c1.475,0.453,2.995,0.835,4.559,1.124
				c1.142,0.209,2.306,0.359,3.487,0.453c2.227,0.182,4.519,0.15,6.864-0.146c0.014,0,0.027-0.005,0.04-0.005"/>
			<path fill="none" stroke="#FFFFFF" stroke-width="2" stroke-miterlimit="10" d="M54.566,41.465
				c0.568-0.275,0.248-0.026,0.884,0.005c0.222,0.009,0.507,0.111,0.826,0.275c0.355,0.182,0.751,0.444,1.146,0.737
				c0.938,0.697,1.849,1.582,2.102,2.009c0.195,0.342,0.431,0.648,0.671,0.95c0.458,0.569,0.941,1.115,1.253,1.795
				c0.488,1.071,3.785,4.919,5.185,6.087c0.019,0.014,0.036,0.026,0.049,0.04c0.045,0.035,0.08,0.062,0.12,0.094
				c0.125,0.098,0.227,0.164,0.303,0.19"/>
			<path fill="none" stroke="#FFFFFF" stroke-width="2" stroke-miterlimit="10" d="M53.642,45.312
				c0.049,0.005,0.103,0.005,0.156-0.009c0.422-0.031,0.893-0.284,1.354-0.28c0.871,0.005,1.706,0.658,2.342,1.223
				c0.427,0.373,0.809,0.777,1.164,1.199c0.906,1.075,1.64,2.279,2.457,3.426c0.258,0.373,0.524,0.737,0.812,1.088
				c0.622,0.756,1.284,1.524,1.795,2.337c0.045,0.062,0.085,0.129,0.134,0.196c0.271,0.417,0.6,0.821,0.92,1.168
				c0.786,0.836,0.973,1.133,1.905,1.516c0.054,0.021,0.107,0.044,0.165,0.066c0.08,0.031,0.164,0.062,0.258,0.098"/>
			<path fill="none" stroke="#FFFFFF" stroke-width="2" stroke-miterlimit="10" d="M27.686,17.011
				c0.502-0.08,1.004-0.143,1.506-0.191c0.529-0.053,1.053-0.089,1.586-0.102c0.667-0.027,1.333-0.022,2,0.013
				c1.813,0.08,3.612,0.365,5.363,0.844c2.644,0.724,5.158,1.906,7.393,3.545c1.253,0.916,2.417,1.978,3.471,3.181
				c0.124,0.143,0.253,0.293,0.377,0.444c1.275,1.542,2.368,3.306,3.226,5.296c0.631,1.461,1.138,3.043,1.493,4.745
				c0.227,1.044,0.391,2.133,0.497,3.271c0.045,0.484,0.076,0.978,0.103,1.483c0.014,0.223,0.018,0.453,0.022,0.68
				c0.009,0.24,0.014,0.476,0.014,0.716"/>
			<path fill="none" stroke="#FFFFFF" stroke-width="2" stroke-miterlimit="10" d="M24.687,17.678
				c0.982-0.285,1.986-0.511,2.995-0.662"/>
			<path fill="none" stroke="#FFFFFF" stroke-width="2" stroke-miterlimit="10" d="M8.43,34.44c0.058-0.208,0.111-0.413,0.173-0.622
				c0.258-0.889,0.556-1.742,0.893-2.563c0.156-0.382,0.324-0.76,0.498-1.129c0.52-1.11,1.111-2.159,1.769-3.137
				c1.066-1.577,2.288-2.977,3.639-4.194c1.964-1.777,4.199-3.159,6.571-4.163c0.884-0.373,1.791-0.689,2.71-0.955"/>
			<path fill="none" stroke="#FFFFFF" stroke-miterlimit="10" d="M44.996,28.82c0.106-0.031,0.315-0.204,0.6-0.493
				c0.213-0.213,0.471-0.498,0.765-0.826c0.079-0.089,0.155-0.182,0.239-0.28c0.587-0.685,1.289-1.538,2.044-2.475
				c0.115-0.142,0.231-0.293,0.36-0.444c2.43-3.057,5.277-6.807,6.486-8.388c0.227-0.289,0.387-0.502,0.484-0.626
				c0.307,0.271,0.84,0.311,1.364,0.222c0.018,0,0.04-0.004,0.058-0.009c0.04-0.191,0.004-0.355-0.089-0.493
				c-0.502-0.791-2.711-0.715-2.404,0.631c0.249,0.106,0.432,0.182,0.587,0.275c0.271,0.165,0.439,0.36,0.657,0.791
				c0.702,0.04,1.115-0.596,1.191-1.195c0.021-0.178,0.013-0.355-0.031-0.502c-0.031-0.133-0.089-0.245-0.169-0.333"/>
			<path fill="none" stroke="#FFFFFF" stroke-miterlimit="10" d="M22.124,20.179c0.08-0.142,0.013-0.711-0.151-1.546
				c-0.582-2.968-2.408-9.304-3.239-11.729c-0.422-0.791-0.329-1.048-0.28-1.719c0.049-0.809,0.662-1.52-0.169-2.204
				c-2.159-0.6-1.986,2.124-0.115,2.515"/>
			<path fill="none" stroke="#FFFFFF" stroke-width="2" stroke-miterlimit="10" d="M26.02,35.268
				c1.23,0.973,2.559,1.928,3.968,2.821c1.391,0.893,2.866,1.724,4.417,2.461c1.093,0.528,2.221,1.004,3.381,1.431
				c2.234,0.813,4.594,1.426,7.06,1.741c2.977,0.396,6.113,0.365,9.375-0.239h0.004"/>
			<path fill="none" stroke="#FFFFFF" stroke-width="2" stroke-miterlimit="10" d="M15.406,22.8c-0.293,0.28,0.773,2.284,2.95,4.954
				c0.924,1.129,2.039,2.377,3.336,3.67c1.275,1.267,2.724,2.573,4.328,3.834"/>
			<line fill="none" stroke="#000000" stroke-width="2" stroke-miterlimit="10" x1="27.686" y1="17.011" x2="27.682" y2="17.016"/>
			<path fill="none" stroke="#FFFFFF" stroke-miterlimit="10" d="M52.744,48.552c0.049-0.085,0.076-0.164,0.089-0.244
				c0.031-0.178-0.004-0.338-0.075-0.493c-0.169-0.383-0.524-0.733-0.516-1.204c0.014-0.653,0.502-0.827,0.924-1.209
				c0.245-0.23,0.698-0.453,0.805-0.812c0.009-0.022,0.014-0.045,0.018-0.071"/>
			<path fill="none" stroke="#000000" stroke-miterlimit="10" d="M38.62,25.293c0.054,0,0.098,0,0.138-0.005"/>
			<path fill="none" stroke="#FFFFFF" stroke-width="2" stroke-miterlimit="10" d="M6.906,47.588
				c1.235-1.312,3.368-1.507,5.212-1.516c0.053,0,0.098,0,0.151,0"/>
			<path fill="none" stroke="#FFFFFF" stroke-width="2" stroke-miterlimit="10" d="M7.955,51.199c0.302-0.83,2.328-1.75,3.146-1.977
				c0.658-0.187,1.439-0.542,2.128-0.587c0.791-0.053,1.364,0.343,2.186,0.231"/>
			<path fill="none" stroke="#FFFFFF" stroke-width="2" stroke-miterlimit="10" d="M9.821,54.461
				c0.582-0.018,1.52-1.022,2.102-1.427c0.778-0.537,1.311-0.764,2.182-1.048c0.897-0.289,1.822-0.516,2.759-0.578
				c0.791-0.058,1.595,0.005,2.395,0.258"/>
			<path fill="none" stroke="#FFFFFF" stroke-width="2" stroke-miterlimit="10" d="M12.149,57.375
				c0.116,0.071,0.236,0.116,0.364,0.138c1.125-1.226,3.417-2.39,4.972-2.963c0.143-0.049,0.285-0.103,0.427-0.146
				c0.906-0.289,1.804-0.436,2.701-0.453c1.16-0.027,2.311,0.155,3.426,0.511"/>
			<path fill="none" stroke="#FFFFFF" stroke-width="2" stroke-miterlimit="10" d="M17.396,61.107
				c0.529-0.8,1.187-1.178,2.004-1.604c0.418-0.227,0.831-0.547,1.227-0.867c0.071-0.062,0.142-0.119,0.213-0.178
				c0.338-0.271,0.671-0.532,1.013-0.72c0.018-0.009,0.036-0.018,0.053-0.026c0.4-0.227,0.8-0.418,1.208-0.591
				c1.08-0.444,2.186-0.729,3.368-0.849c0.418-0.044,0.849-0.062,1.284-0.062"/>
			<path fill="none" stroke="#FFFFFF" stroke-width="2" stroke-miterlimit="10" d="M22.523,63.32
				c-0.009-0.036-0.018-0.076-0.031-0.111c-0.187-0.68-0.347-1.364-0.498-2.066c-0.018-0.089-0.036-0.182-0.053-0.271
				c-0.178-0.857-0.849-1.364-1.231-2.133"/>
			<path fill="none" stroke="#FFFFFF" stroke-width="2" stroke-miterlimit="10" d="M26.02,63.902c-0.516-0.995-1.004-2-1.404-3.097
				c-0.044-0.129-0.093-0.263-0.138-0.4c-0.351-1.03-1.004-1.946-1.258-3.03"/>
			<path fill="none" stroke="#FFFFFF" stroke-width="2" stroke-miterlimit="10" d="M30.609,64.173
				c-0.138,0.022-0.284,0.009-0.426-0.044c-0.733-0.249-1.484-1.396-2.119-2.746c-0.902-1.933-1.564-4.278-1.578-5.056"/>
			<path fill="none" stroke="#FFFFFF" stroke-width="2" stroke-miterlimit="10" d="M34.297,63.751c-0.021,0-0.049-0.005-0.08-0.022
				c-0.395-0.142-1.119-0.959-1.706-1.71c-0.351-0.453-0.644-0.889-0.787-1.138c-0.711-1.288-0.506-2.515-0.924-3.834
				c0-0.005-0.004-0.019-0.004-0.019"/>
			<path fill="none" stroke="#FFFFFF" stroke-width="2" stroke-miterlimit="10" d="M40.122,61.982
				c-0.009-0.009-0.018-0.013-0.026-0.021c-0.151-0.143-0.307-0.378-0.432-0.516c-0.164-0.387-0.413-0.72-0.613-1.08
				c-0.235-0.448-0.213-1.106-0.213-1.626"/>
			<path fill="none" stroke="#FFFFFF" stroke-width="2" stroke-miterlimit="10" d="M37.207,62.969
				c-0.227-0.164-0.448-0.431-0.64-0.741c-0.23-0.36-0.427-0.787-0.582-1.178c-0.302-0.777-1.03-2.026-0.626-2.879
				c0.013-0.036,0.026-0.062,0.044-0.094"/>
			<path fill="none" stroke="#FFFFFF" stroke-width="2" stroke-miterlimit="10" d="M13.837,38.439
				c0.076,0.28,0.209,0.507,0.169,0.809c-0.404,0.018-0.715,0.014-1.004-0.054c-0.297-0.07-0.573-0.213-0.911-0.466
				c-0.595-0.444-1.164-0.725-1.635-1.298c-0.698-0.853-1.76-1.333-2.324-2.252"/>
			<path fill="none" stroke="#FFFFFF" stroke-width="2" stroke-miterlimit="10" d="M17.161,35.583
				c-0.018,0.462-0.466,0.328-0.942,0.07c-0.431-0.244-0.884-0.6-1.044-0.701c-0.4-0.258-0.835-0.627-1.231-0.845
				c-0.151-0.08-0.297-0.138-0.435-0.191c-0.285-0.102-0.551-0.187-0.849-0.431c-0.258-0.213-0.671-0.493-0.862-0.755
				c-0.128-0.173-0.146-0.476-0.284-0.631c-0.125-0.138-0.413-0.217-0.573-0.364c-0.498-0.435-0.617-1.128-0.946-1.608
				c-0.022-0.026-0.04-0.053-0.058-0.075"/>
			<path fill="none" stroke="#FFFFFF" stroke-width="2" stroke-miterlimit="10" d="M18.094,32.148c0,0.009,0,0.013,0,0.022
				c0,0.235,0.004,0.484-0.009,0.724c-0.396,0.129-0.742,0.018-1.058-0.187c-0.307-0.195-0.586-0.489-0.857-0.724
				c-0.026-0.022-0.058-0.044-0.08-0.071c-0.257-0.222-0.498-0.426-0.72-0.626c-0.062-0.062-0.125-0.12-0.182-0.178
				c-0.302-0.302-0.626-0.555-0.946-0.826c-0.413-0.355-0.795-0.715-1.137-1.093c-0.564-0.631-1.009-1.328-1.302-2.168"/>
			<path fill="none" stroke="#FFFFFF" stroke-width="2" stroke-miterlimit="10" d="M24.736,17.633
				c-0.018,0.013-0.031,0.031-0.049,0.044c-0.004,0-0.004,0-0.004,0c-0.835,0.648-1.386,1.834-1.71,2.848
				c-0.364,1.106-0.8,2.235-1.004,3.363c-0.014,0.058-0.022,0.12-0.031,0.173c-0.182,1.115-0.289,2.222-0.347,3.359
				c-0.058,1.168-0.355,2.883,0.102,4.003"/>
			<path fill="none" stroke="#FFFFFF" stroke-width="2" stroke-miterlimit="10" d="M29.223,16.705
				c-0.004,0.036-0.018,0.075-0.031,0.115c-0.125,0.458-0.511,0.911-0.871,1.36c-0.217,0.267-0.422,0.529-0.555,0.782
				c-0.191,0.364-0.342,0.778-0.48,1.208c-0.062,0.213-0.12,0.431-0.178,0.649c-0.142,0.586-0.253,1.19-0.355,1.737
				c-0.031,0.156-0.053,0.302-0.08,0.44c-0.276,1.502-0.507,3.043-0.653,4.545c-0.155,1.55-0.222,3.141-0.178,4.709
				c0.027,0.964-0.476,2.239,0.178,3.007v0.01"/>
			<path fill="none" stroke="#FFFFFF" stroke-width="2" stroke-miterlimit="10" d="M32.778,16.762
				c0.022,0.462-0.307,0.773-0.533,1.16c-0.387,0.648-0.569,1.391-0.755,2.102c-0.138,0.498-0.249,0.995-0.351,1.497
				c-0.213,1.035-0.386,2.071-0.622,3.106c-0.449,1.995-0.737,4.109-0.942,6.153c-0.084,0.831-0.084,1.675,0.009,2.51
				c0.173,1.488,0.013,3.337,0.404,4.799c0.013,0.062,0.026,0.119,0.044,0.173"/>
			<path fill="none" stroke="#FFFFFF" stroke-width="2" stroke-miterlimit="10" d="M38.141,17.575
				c-0.191,0.022-0.36,0.133-0.507,0.28c-0.169,0.169-0.315,0.4-0.427,0.591c-0.439,0.755-0.781,1.559-1.062,2.39
				c-0.396,1.195-0.765,2.377-1.084,3.577c-0.284,1.066-0.524,2.146-0.72,3.243c-0.12,0.68-0.253,1.355-0.378,2.021
				c-0.262,1.342-0.484,2.675-0.484,4.101c0,0.036,0,0.076,0,0.111c-0.005,1.493-0.08,3.168,0.235,4.679
				c0.129,0.626,0.329,1.222,0.626,1.772c0.053,0.054,0.075,0.12,0.066,0.195"/>
			<path fill="none" stroke="#FFFFFF" stroke-width="2" stroke-miterlimit="10" d="M37.848,41.816
				c0.826-0.751,1.47-1.231,2.567-1.573c0.054-0.018,0.106-0.031,0.165-0.044c1.359-0.404,2.683-0.578,4.073-0.84
				c1.507-0.284,2.946-0.005,4.448,0.071c0.835,0.04,1.688,0.142,2.496,0.359c0.378,0.103,0.818,0.16,1.155,0.378
				c0.28,0.182,0.463,0.484,0.769,0.657c0.254,0.143,0.773,0.183,0.876,0.352"/>
			<path fill="none" stroke="#FFFFFF" stroke-width="2" stroke-miterlimit="10" d="M33.715,38.568
				c0.475-0.631,1.292-1.448,1.963-1.817c0.022-0.013,0.04-0.022,0.067-0.035c0.795-0.453,1.528-1.026,2.337-1.396
				c1.59-0.724,3.069-1.63,4.834-1.719c1.323-0.067,2.607-0.275,3.963-0.231c0.8,0.022,1.591,0.062,2.377,0.173
				c0.396,0.053,0.769,0.142,1.168,0.235c0.134,0.031,0.275,0.044,0.409,0.053c0.284,0.022,0.573,0.013,0.853,0.027
				c0.169,0.009,0.334,0.031,0.493,0.075c0.641,0.173,1.115,0.689,1.751,0.889"/>
			<path fill="none" stroke="#FFFFFF" stroke-width="2" stroke-miterlimit="10" d="M37.278,31.997
				c1.924-1.057,4.363-1.151,6.456-1.67c0.222-0.053,0.439-0.116,0.644-0.178c0.631-0.2,1.223-0.422,1.902-0.529
				c0.133-0.022,0.271-0.04,0.413-0.058c0.19-0.018,0.387-0.027,0.577-0.036c0.263-0.009,0.524-0.009,0.786-0.013
				c0.423,0,0.849,0.009,1.271,0.009c1.048,0,2.292,0.155,3.266,0.529"/>
			<line fill="none" stroke="#000000" stroke-miterlimit="10" x1="37.274" y1="32.001" x2="37.278" y2="31.997"/>
			<path fill="none" stroke="#FFFFFF" stroke-width="2" stroke-miterlimit="10" d="M33.595,33.89
				c0.417,0.214,1.333-0.786,1.733-0.991c0.533-0.271,1.093-0.369,1.6-0.693c0.11-0.067,0.227-0.138,0.347-0.205"/>
			<path fill="none" stroke="#FFFFFF" stroke-width="2" stroke-miterlimit="10" d="M34.062,29.696
				c1.289-0.418,2.271-1.724,3.426-2.377c0.075-0.044,0.146-0.084,0.227-0.129c0.271-0.138,0.568-0.271,0.871-0.391
				c0.298-0.12,0.604-0.227,0.889-0.324c0.049-0.013,0.093-0.036,0.138-0.053c0.671-0.236,1.284-0.573,1.968-0.791
				c0.622-0.195,1.479-0.382,2.124-0.48c0.693-0.106,1.395,0.062,2.084-0.106c0.919-0.235,1.87-0.284,2.856-0.298
				c0.24,0,0.488,0,0.737,0c0.005,0,0.005,0,0.009,0"/>
			<path fill="none" stroke="#FFFFFF" stroke-width="2" stroke-miterlimit="10" d="M35.226,24.453
				c0.631-0.724,1.685-1.071,2.391-1.693c0.004-0.009,0.018-0.013,0.018-0.018c0.151-0.129,0.307-0.249,0.467-0.355
				c0.293-0.209,0.608-0.382,0.938-0.533c0.351-0.165,0.715-0.289,1.084-0.387c1.013-0.271,2.048-0.462,3.11-0.515
				c0.795-0.04,1.532,0.138,2.301,0.168c0.08,0.004,0.16,0.009,0.235,0.009"/>
			<path fill="none" stroke="#FFFFFF" stroke-width="2" stroke-miterlimit="10" d="M53.056,47.818c-0.014,0-0.022,0-0.036,0
				c-0.089,0-0.178,0-0.262-0.004c-1.453-0.009-2.821-0.111-4.278-0.111c-1.355,0-2.577-0.275-3.804-0.568
				c-0.635-0.151-1.275-0.307-1.924-0.432c-0.031-0.138,0.031-0.187,0.111-0.284"/>
			<path fill="none" stroke="#FFFFFF" stroke-width="2" stroke-miterlimit="10" d="M51.252,51.666
				c-0.601-0.058-1.195,0.085-1.791,0.191c-0.275,0.044-0.551,0.089-0.831,0.102c-0.933,0.04-2.146,0.16-3.052-0.062
				c-0.369-0.089-1.577-0.258-2.546-0.561c-0.76-0.23-1.382-0.542-1.338-0.955"/>
			<path fill="none" stroke="#FFFFFF" stroke-width="2" stroke-miterlimit="10" d="M48.323,55.923c-1.048,0.897-3.158,0.11-4.465,0
				c-0.2-0.019-0.399-0.054-0.604-0.094c-0.493-0.098-0.999-0.253-1.466-0.399c-0.111-0.04-0.218-0.076-0.324-0.111
				c-0.533-0.164-1.542-0.24-1.399-1.026"/>
			<circle fill="none" stroke="#FFFFFF" stroke-width="2" stroke-miterlimit="10" cx="21.117" cy="40.604" r="0.575"/>
			<path fill="none" stroke="#FFFFFF" stroke-width="2" stroke-miterlimit="10" d="M36.141,46.197c0,0.319-0.257,0.572-0.572,0.572
				c-0.32,0-0.573-0.253-0.573-0.572c0-0.315,0.253-0.573,0.573-0.573C35.884,45.624,36.141,45.882,36.141,46.197z"/>
			<path fill="none" stroke="#F9F9F9" stroke-width="2" stroke-miterlimit="10" d="M23.105,46.832
				c-0.271,0.817,0.165,1.6,0.773,2.227c0.44,0.453,0.964,0.826,1.386,1.079c1.426,0.857,2.861,0.942,4.017-0.275"/>
			<path fill="none" stroke="#FFFFFF" stroke-width="2" stroke-miterlimit="10" d="M8.568,33.81
				c-0.173,0.453-0.342,0.902-0.502,1.341c-0.595,1.72-1.018,3.368-1.266,4.954c-0.436,2.697-0.391,5.203,0.04,7.495
				c0.24,1.271,0.604,2.479,1.075,3.617c0.484,1.186,1.088,2.292,1.786,3.323c0.711,1.039,1.52,1.999,2.408,2.883
				c1.524,1.507,3.297,2.769,5.229,3.786c0.653,0.337,1.329,0.657,2.017,0.938c1.013,0.417,2.062,0.772,3.137,1.062
				c1.151,0.311,2.328,0.542,3.528,0.697c1.369,0.183,2.764,0.258,4.163,0.223c1.346-0.031,2.697-0.16,4.034-0.4
				c1.014-0.178,2.018-0.413,3.004-0.711c0.68-0.199,1.347-0.436,2.008-0.701c0.294-0.111,0.582-0.231,0.867-0.355
				c1.994-0.885,3.887-2.035,5.615-3.483c0.925-0.765,1.8-1.617,2.612-2.555c0,0,0.01-0.005,0.014-0.009
				c1.093-1.258,2.084-2.666,2.945-4.234c0.533-0.974,1.022-2.009,1.449-3.105c0.009-0.009,0.009-0.014,0.013-0.022
				c0.036-0.08,0.062-0.16,0.089-0.244c0.067-0.156,0.125-0.324,0.187-0.489c0.289-0.804,0.552-1.644,0.778-2.515
				c0.066-0.235,0.124-0.471,0.178-0.715c0.089-0.364,0.173-0.733,0.244-1.106c0.133-0.653,0.249-1.329,0.347-2.018
				c0.013-0.089,0.026-0.173,0.04-0.262c0.04-0.32,0.084-0.653,0.115-0.982c0.004-0.035,0.009-0.08,0.014-0.115"/>
			<path fill="none" stroke="#FFFFFF" stroke-width="2" stroke-miterlimit="10" d="M66.771,53.492
				c0.178,0.484,0.054,1.307,0.076,1.826c0.04,0.635,0.004,1.284,0,1.924c0,0.031,0,0.062,0,0.098"/>
			<path fill="none" stroke="#FFFFFF" stroke-miterlimit="10" d="M56.205,41.759c0.022-0.005,0.045-0.01,0.071-0.014
				c0.444-0.075,0.836,0.267,1.146,0.737c0.396,0.608,0.648,1.436,0.72,1.831c0.187,1.053,0.293,2.102,0.516,3.132
				c0.018,0.084,0.035,0.173,0.053,0.258"/>
			<path fill="none" stroke="#FFFFFF" stroke-miterlimit="10" d="M59.645,44.206c0.155,0.436,0.359,0.831,0.551,1.235
				c0.293,0.591,0.564,1.19,0.622,1.91c0.106,1.169,0.399,2.253,0.399,3.443"/>
			<path fill="none" stroke="#FFFFFF" stroke-miterlimit="10" d="M63.896,54.461c0.644,0,0.955-0.066,1.515-0.333
				c0.267-0.134,0.538-0.205,0.756-0.383c0.182-0.142,0.271-0.328,0.466-0.422c0.014-0.009,0.031-0.018,0.049-0.022
				c0.005,0,0.009-0.004,0.014-0.004"/>
		</g>
	</g>
</g>
</svg>
